SplineFontDB: 3.2
FontName: IRNazli-Bold
FullName: IRNazli-Bold
FamilyName: IRNazli
Weight: Bold
Copyright: Copyright (c) 2022, Information Technology Organization of Iran (ito.gov.ir)
Version: 1.001
ItalicAngle: 0
UnderlinePosition: -100
UnderlineWidth: 60
Ascent: 1638
Descent: 410
InvalidEm: 0
sfntRevision: 0x00010042
LayerCount: 2
Layer: 0 1 "Back" 1
Layer: 1 1 "Fore" 0
XUID: [1021 420 722297922 16376440]
StyleMap: 0x0020
FSType: 0
OS2Version: 3
OS2_WeightWidthSlopeOnly: 0
OS2_UseTypoMetrics: 0
CreationTime: 1356418389
ModificationTime: 1662630533
PfmFamily: 17
TTFWeight: 700
TTFWidth: 5
LineGap: 100
VLineGap: 0
Panose: 2 0 5 6 0 0 0 2 0 2
OS2TypoAscent: 1662
OS2TypoAOffset: 0
OS2TypoDescent: -1228
OS2TypoDOffset: 0
OS2TypoLinegap: 1500
OS2WinAscent: 1662
OS2WinAOffset: 0
OS2WinDescent: 1228
OS2WinDOffset: 0
HheadAscent: 1662
HheadAOffset: 0
HheadDescent: -1228
HheadDOffset: 0
OS2SubXSize: 1434
OS2SubYSize: 1331
OS2SubXOff: 0
OS2SubYOff: 293
OS2SupXSize: 1434
OS2SupYSize: 1331
OS2SupXOff: 0
OS2SupYOff: 930
OS2StrikeYSize: 50
OS2StrikeYPos: 250
OS2CapHeight: 1680
OS2XHeight: 594
OS2FamilyClass: 2048
OS2Vendor: 'PARS'
OS2CodePages: 20000041.00000000
OS2UnicodeRanges: 00002003.00000000.00000000.00000000
Lookup: 1 1 0 "'isol' Isolated Forms in Arabic lookup 0" { "'isol' Isolated Forms in Arabic lookup 0 subtable"  } ['isol' ('arab' <'dflt' > ) ]
Lookup: 1 1 0 "'init' Initial Forms in Arabic lookup 1" { "'init' Initial Forms in Arabic lookup 1 subtable"  } ['init' ('arab' <'dflt' > ) ]
Lookup: 1 1 0 "'fina' Terminal Forms in Arabic lookup 2" { "'fina' Terminal Forms in Arabic lookup 2 subtable"  } ['fina' ('arab' <'dflt' > ) ]
Lookup: 1 1 0 "'medi' Medial Forms in Arabic lookup 3" { "'medi' Medial Forms in Arabic lookup 3 subtable"  } ['medi' ('arab' <'dflt' > ) ]
Lookup: 4 1 0 "'ccmp' Glyph Composition/Decomposition in Arabic lookup 4" { "'ccmp' Glyph Composition/Decomposition in Arabic lookup 4 subtable"  } ['ccmp' ('arab' <'dflt' > ) ]

StartChar: quotedbl
Encoding: 34 34 4
Width: 757
Flags: W
LayerCount: 2
Fore
SplineSet
206 703 m 1,0,1
 200 732 200 732 196.5 754 c 128,-1,2
 193 776 193 776 190 786 c 0,3,4
 169 894 169 894 156.5 971.5 c 128,-1,5
 144 1049 144 1049 144 1075 c 0,6,7
 144 1132 144 1132 169 1165 c 128,-1,8
 194 1198 194 1198 234 1198 c 0,9,10
 253 1198 253 1198 269.5 1189 c 128,-1,11
 286 1180 286 1180 298 1164.5 c 128,-1,12
 310 1149 310 1149 317 1128 c 128,-1,13
 324 1107 324 1107 324 1082 c 0,14,15
 324 1068 324 1068 321 1042.5 c 128,-1,16
 318 1017 318 1017 311 973.5 c 128,-1,17
 304 930 304 930 292 864 c 128,-1,18
 280 798 280 798 262 703 c 1,19,-1
 206 703 l 1,0,1
506 703 m 1,20,21
 500 732 500 732 496.5 754 c 128,-1,22
 493 776 493 776 490 786 c 0,23,24
 469 894 469 894 456.5 971.5 c 128,-1,25
 444 1049 444 1049 444 1075 c 0,26,27
 444 1132 444 1132 469 1165 c 128,-1,28
 494 1198 494 1198 534 1198 c 0,29,30
 553 1198 553 1198 569.5 1189 c 128,-1,31
 586 1180 586 1180 598 1164.5 c 128,-1,32
 610 1149 610 1149 617 1128 c 128,-1,33
 624 1107 624 1107 624 1082 c 0,34,35
 624 1068 624 1068 621 1042.5 c 128,-1,36
 618 1017 618 1017 611 973.5 c 128,-1,37
 604 930 604 930 592 864 c 128,-1,38
 580 798 580 798 562 703 c 1,39,-1
 506 703 l 1,20,21
EndSplineSet
EndChar

StartChar: quotesingle
Encoding: 39 39 5
Width: 385
Flags: W
LayerCount: 2
Fore
SplineSet
161 703 m 1,0,1
 155 732 155 732 151.5 754 c 128,-1,2
 148 776 148 776 145 786 c 0,3,4
 124 894 124 894 111.5 971.5 c 128,-1,5
 99 1049 99 1049 99 1075 c 0,6,7
 99 1132 99 1132 124 1165 c 128,-1,8
 149 1198 149 1198 189 1198 c 0,9,10
 208 1198 208 1198 224.5 1189 c 128,-1,11
 241 1180 241 1180 253 1164.5 c 128,-1,12
 265 1149 265 1149 272 1128 c 128,-1,13
 279 1107 279 1107 279 1082 c 0,14,15
 279 1068 279 1068 276 1042.5 c 128,-1,16
 273 1017 273 1017 266 973.5 c 128,-1,17
 259 930 259 930 247 864 c 128,-1,18
 235 798 235 798 217 703 c 1,19,-1
 161 703 l 1,0,1
EndSplineSet
EndChar

StartChar: asterisk
Encoding: 42 42 6
Width: 1126
Flags: W
LayerCount: 2
Fore
SplineSet
568 347 m 1,0,-1
 574 687 l 1,1,-1
 355 467 l 1,2,-1
 250 467 l 1,3,-1
 527 746 l 1,4,-1
 203 746 l 1,5,-1
 223 839 l 1,6,-1
 547 839 l 1,7,-1
 277 1104 l 1,8,-1
 370 1104 l 1,9,-1
 579 899 l 1,10,-1
 585 1199 l 1,11,-1
 704 1239 l 1,12,-1
 699 912 l 1,13,-1
 905 1104 l 1,14,-1
 1013 1104 l 1,15,-1
 730 839 l 1,16,-1
 1065 839 l 1,17,-1
 1043 746 l 1,18,-1
 729 746 l 1,19,-1
 1002 467 l 1,20,-1
 910 467 l 1,21,-1
 696 687 l 1,22,-1
 688 386 l 1,23,-1
 568 347 l 1,0,-1
EndSplineSet
EndChar

StartChar: plus
Encoding: 43 43 7
Width: 1121
GlyphClass: 2
Flags: W
LayerCount: 2
Fore
SplineSet
961 402 m 1,0,-1
 619 402 l 1,1,-1
 619 64 l 1,2,-1
 496 64 l 1,3,-1
 496 402 l 1,4,-1
 157 402 l 1,5,-1
 157 531 l 1,6,-1
 496 531 l 1,7,-1
 496 872 l 1,8,-1
 619 872 l 1,9,-1
 619 531 l 1,10,-1
 961 531 l 1,11,-1
 961 402 l 1,0,-1
EndSplineSet
EndChar

StartChar: hyphen
Encoding: 45 45 8
Width: 1132
Flags: W
LayerCount: 2
Fore
SplineSet
961 402 m 1,0,-1
 157 402 l 1,1,-1
 157 531 l 1,2,-1
 961 531 l 1,3,-1
 961 402 l 1,0,-1
EndSplineSet
EndChar

StartChar: period
Encoding: 46 46 9
Width: 466
GlyphClass: 2
Flags: W
LayerCount: 2
Fore
SplineSet
383 124 m 0,0,1
 383 71 383 71 347.5 35 c 128,-1,2
 312 -1 312 -1 259 -1 c 0,3,4
 207 -1 207 -1 171.5 35 c 128,-1,5
 136 71 136 71 136 124 c 0,6,7
 136 175 136 175 172 211 c 128,-1,8
 208 247 208 247 259 247 c 0,9,10
 311 247 311 247 347 211 c 128,-1,11
 383 175 383 175 383 124 c 0,0,1
EndSplineSet
EndChar

StartChar: slash
Encoding: 47 47 10
Width: 643
Flags: W
LayerCount: 2
Fore
SplineSet
518 1228 m 1,0,-1
 236 -105 l 1,1,-1
 131 -105 l 1,2,-1
 413 1228 l 1,3,-1
 518 1228 l 1,0,-1
EndSplineSet
EndChar

StartChar: less
Encoding: 60 60 11
Width: 992
Flags: W
LayerCount: 2
Fore
SplineSet
54 367 m 1,0,-1
 54 513 l 1,1,-1
 938 902 l 1,2,-1
 938 734 l 1,3,-1
 268 440 l 1,4,-1
 938 146 l 1,5,-1
 938 -21 l 1,6,-1
 54 367 l 1,0,-1
EndSplineSet
EndChar

StartChar: equal
Encoding: 61 61 12
Width: 969
Flags: W
LayerCount: 2
Fore
SplineSet
840 224 m 1,0,-1
 118 224 l 1,1,-1
 118 326 l 1,2,-1
 840 326 l 1,3,-1
 840 224 l 1,0,-1
840 462 m 1,4,-1
 118 462 l 1,5,-1
 118 564 l 1,6,-1
 840 564 l 1,7,-1
 840 462 l 1,4,-1
EndSplineSet
EndChar

StartChar: greater
Encoding: 62 62 13
Width: 992
Flags: W
LayerCount: 2
Fore
SplineSet
54 146 m 1,0,-1
 724 440 l 1,1,-1
 54 734 l 1,2,-1
 54 902 l 1,3,-1
 938 513 l 1,4,-1
 938 367 l 1,5,-1
 54 -21 l 1,6,-1
 54 146 l 1,0,-1
EndSplineSet
EndChar

StartChar: bracketleft
Encoding: 91 91 14
Width: 568
GlyphClass: 2
Flags: W
LayerCount: 2
Fore
SplineSet
514 -254 m 1,0,-1
 114 -254 l 1,1,-1
 114 1157 l 1,2,-1
 514 1157 l 1,3,-1
 514 1101 l 1,4,-1
 406 1101 l 2,5,6
 370 1101 370 1101 347.5 1096 c 128,-1,7
 325 1091 325 1091 312.5 1077.5 c 128,-1,8
 300 1064 300 1064 295.5 1041 c 128,-1,9
 291 1018 291 1018 291 981 c 2,10,-1
 291 -108 l 2,11,12
 291 -135 291 -135 295 -152.5 c 128,-1,13
 299 -170 299 -170 308.5 -180 c 128,-1,14
 318 -190 318 -190 334.5 -194 c 128,-1,15
 351 -198 351 -198 377 -198 c 2,16,-1
 514 -198 l 1,17,-1
 514 -254 l 1,0,-1
EndSplineSet
EndChar

StartChar: bracketright
Encoding: 93 93 15
Width: 568
GlyphClass: 2
Flags: W
LayerCount: 2
Fore
SplineSet
55 -198 m 1,0,-1
 191 -198 l 2,1,2
 218 -198 218 -198 234.5 -194.5 c 128,-1,3
 251 -191 251 -191 260 -181 c 128,-1,4
 269 -171 269 -171 272.5 -153.5 c 128,-1,5
 276 -136 276 -136 276 -108 c 2,6,-1
 276 981 l 2,7,8
 276 1018 276 1018 272 1041 c 128,-1,9
 268 1064 268 1064 255.5 1077.5 c 128,-1,10
 243 1091 243 1091 220.5 1096 c 128,-1,11
 198 1101 198 1101 163 1101 c 2,12,-1
 55 1101 l 1,13,-1
 55 1157 l 1,14,-1
 454 1157 l 1,15,-1
 454 -254 l 1,16,-1
 55 -254 l 1,17,-1
 55 -198 l 1,0,-1
EndSplineSet
EndChar

StartChar: grave
Encoding: 96 96 16
Width: 568
Flags: W
LayerCount: 2
Fore
SplineSet
345 864 m 1,0,-1
 81 1030 l 2,1,2
 59 1047 59 1047 45.5 1065 c 128,-1,3
 32 1083 32 1083 32 1103 c 0,4,5
 32 1128 32 1128 48 1142.5 c 128,-1,6
 64 1157 64 1157 91 1157 c 0,7,8
 109 1157 109 1157 124 1148.5 c 128,-1,9
 139 1140 139 1140 163 1117 c 2,10,-1
 414 864 l 1,11,-1
 345 864 l 1,0,-1
EndSplineSet
EndChar

StartChar: braceleft
Encoding: 123 123 17
Width: 672
GlyphClass: 2
Flags: W
LayerCount: 2
Fore
SplineSet
220 247 m 2,0,1
 220 292 220 292 211.5 324 c 128,-1,2
 203 356 203 356 182.5 378.5 c 128,-1,3
 162 401 162 401 126.5 416.5 c 128,-1,4
 91 432 91 432 37 446 c 1,5,6
 91 459 91 459 126.5 474.5 c 128,-1,7
 162 490 162 490 182.5 512.5 c 128,-1,8
 203 535 203 535 211.5 566.5 c 128,-1,9
 220 598 220 598 220 643 c 2,10,-1
 220 949 l 2,11,12
 220 1089 220 1089 306 1141 c 0,13,14
 326 1154 326 1154 350 1163.5 c 128,-1,15
 374 1173 374 1173 406 1179 c 128,-1,16
 438 1185 438 1185 480.5 1187.5 c 128,-1,17
 523 1190 523 1190 580 1191 c 1,18,-1
 580 1170 l 1,19,20
 528 1159 528 1159 494 1143 c 128,-1,21
 460 1127 460 1127 438 1102 c 128,-1,22
 416 1077 416 1077 407.5 1042 c 128,-1,23
 399 1007 399 1007 399 958 c 2,24,-1
 399 667 l 2,25,26
 399 613 399 613 390 576.5 c 128,-1,27
 381 540 381 540 358 515 c 128,-1,28
 335 490 335 490 296.5 474.5 c 128,-1,29
 258 459 258 459 198 446 c 1,30,31
 258 433 258 433 296.5 417 c 128,-1,32
 335 401 335 401 358 376 c 128,-1,33
 381 351 381 351 390 314 c 128,-1,34
 399 277 399 277 399 223 c 2,35,-1
 399 -69 l 2,36,37
 399 -118 399 -118 408 -152.5 c 128,-1,38
 417 -187 417 -187 439 -211.5 c 128,-1,39
 461 -236 461 -236 495.5 -252.5 c 128,-1,40
 530 -269 530 -269 580 -278 c 1,41,-1
 580 -298 l 1,42,43
 517 -298 517 -298 470.5 -294.5 c 128,-1,44
 424 -291 424 -291 390 -283.5 c 128,-1,45
 356 -276 356 -276 331 -264.5 c 128,-1,46
 306 -253 306 -253 286 -236 c 0,47,48
 252 -208 252 -208 236 -165 c 128,-1,49
 220 -122 220 -122 220 -59 c 2,50,-1
 220 247 l 2,0,1
EndSplineSet
EndChar

StartChar: bar
Encoding: 124 124 18
Width: 375
Flags: W
LayerCount: 2
Fore
SplineSet
113 1179 m 1,0,-1
 263 1179 l 1,1,-1
 263 -32 l 1,2,-1
 113 -32 l 1,3,-1
 113 1179 l 1,0,-1
EndSplineSet
EndChar

StartChar: asciitilde
Encoding: 126 126 19
Width: 887
Flags: W
LayerCount: 2
Fore
SplineSet
838 443 m 1,0,1
 808 403 808 403 783.5 375.5 c 128,-1,2
 759 348 759 348 734 331 c 128,-1,3
 709 314 709 314 683.5 306 c 128,-1,4
 658 298 658 298 628 298 c 0,5,6
 607 298 607 298 587 301 c 128,-1,7
 567 304 567 304 546 311 c 128,-1,8
 525 318 525 318 501.5 328.5 c 128,-1,9
 478 339 478 339 449 355 c 0,10,11
 389 386 389 386 346 400.5 c 128,-1,12
 303 415 303 415 258 415 c 0,13,14
 220 415 220 415 195 399 c 128,-1,15
 170 383 170 383 140 343 c 1,16,-1
 49 421 l 1,17,18
 93 498 93 498 142.5 531 c 128,-1,19
 192 564 192 564 261 564 c 0,20,21
 282 564 282 564 302 561.5 c 128,-1,22
 322 559 322 559 348 551 c 128,-1,23
 374 543 374 543 408 528.5 c 128,-1,24
 442 514 442 514 490 493 c 0,25,26
 519 480 519 480 540.5 472 c 128,-1,27
 562 464 562 464 577.5 458.5 c 128,-1,28
 593 453 593 453 605 451 c 128,-1,29
 617 449 617 449 628 449 c 0,30,31
 658 449 658 449 685 466.5 c 128,-1,32
 712 484 712 484 744 525 c 1,33,-1
 838 443 l 1,0,1
EndSplineSet
EndChar

StartChar: agrave
Encoding: 224 224 20
Width: 1075
Flags: W
LayerCount: 2
Fore
SplineSet
741 331 m 1,0,1
 720 266 720 266 690.5 213 c 128,-1,2
 661 160 661 160 626 114 c 0,3,4
 519 -19 519 -19 400 -19 c 0,5,6
 208 -19 208 -19 159 214 c 0,7,8
 133 334 133 334 157 451 c 128,-1,9
 181 568 181 568 252 683 c 0,10,11
 325 801 325 801 433 860 c 128,-1,12
 541 919 541 919 684 919 c 0,13,14
 712 919 712 919 746 918.5 c 128,-1,15
 780 918 780 918 815.5 916 c 128,-1,16
 851 914 851 914 886 912 c 128,-1,17
 921 910 921 910 952 908 c 1,18,-1
 946 646 l 1,19,-1
 946 647 l 1,20,-1
 950 254 l 2,21,22
 952 209 952 209 954.5 179.5 c 128,-1,23
 957 150 957 150 958 139 c 0,24,25
 961 114 961 114 985 114 c 0,26,27
 1053 114 1053 114 1214 346 c 1,28,-1
 1218 179 l 1,29,30
 1073 -19 1073 -19 925 -19 c 0,31,32
 785 -19 785 -19 753 126 c 0,33,34
 749 146 749 146 747 182 c 128,-1,35
 745 218 745 218 745 264 c 2,36,-1
 741 331 l 1,0,1
737 758 m 1,37,38
 688 775 688 775 647 783.5 c 128,-1,39
 606 792 606 792 561 792 c 0,40,41
 497 792 497 792 453.5 749.5 c 128,-1,42
 410 707 410 707 387 625 c 0,43,44
 362 522 362 522 357 425 c 128,-1,45
 352 328 352 328 368 248 c 0,46,47
 388 146 388 146 437 146 c 0,48,49
 493 146 493 146 589 280 c 0,50,51
 637 352 637 352 674 430 c 128,-1,52
 711 508 711 508 739 599 c 1,53,-1
 737 758 l 1,37,38
634 519 m 1,54,-1
 370 685 l 2,55,56
 348 702 348 702 334.5 720 c 128,-1,57
 321 738 321 738 321 758 c 0,58,59
 321 783 321 783 337 797.5 c 128,-1,60
 353 812 353 812 380 812 c 0,61,62
 398 812 398 812 413 803.5 c 128,-1,63
 428 795 428 795 452 772 c 2,64,-1
 703 519 l 1,65,-1
 634 519 l 1,54,-1
EndSplineSet
EndChar

StartChar: ocircumflex.001
Encoding: 65539 -1 26
Width: 1112
Flags: W
LayerCount: 2
Fore
SplineSet
416 -19 m 0,0,1
 301 -19 301 -19 205 70 c 0,2,3
 110 160 110 160 85 288 c 0,4,5
 32 528 32 528 170 726 c 0,6,7
 307 928 307 928 522 928 c 0,8,9
 643 928 643 928 742 842 c 1,10,11
 837 753 837 753 864 626 c 0,12,13
 890 499 890 499 869 388.5 c 128,-1,14
 848 278 848 278 781 179 c 0,15,16
 711 79 711 79 619.5 30 c 128,-1,17
 528 -19 528 -19 416 -19 c 0,0,1
483 98 m 0,18,19
 536 98 536 98 573.5 133 c 128,-1,20
 611 168 611 168 637 236 c 0,21,22
 665 310 665 310 668.5 393.5 c 128,-1,23
 672 477 672 477 652 574 c 0,24,25
 602 813 602 813 466 813 c 0,26,27
 365 813 365 813 313 670 c 0,28,29
 284 595 284 595 281 510.5 c 128,-1,30
 278 426 278 426 298 332 c 0,31,32
 324 213 324 213 370 155.5 c 128,-1,33
 416 98 416 98 483 98 c 0,18,19
EndSplineSet
EndChar

StartChar: dagger
Encoding: 8224 8224 30
Width: 932
Flags: W
LayerCount: 2
Fore
SplineSet
347 -231 m 1,0,-1
 567 622 l 1,1,-1
 248 592 l 1,2,-1
 297 700 l 1,3,-1
 576 668 l 1,4,-1
 607 1066 l 1,5,-1
 755 1093 l 1,6,-1
 621 668 l 1,7,-1
 941 700 l 1,8,-1
 895 592 l 1,9,-1
 612 622 l 1,10,-1
 496 -213 l 1,11,-1
 347 -231 l 1,0,-1
EndSplineSet
EndChar

StartChar: degree
Encoding: 176 176 31
Width: 409
Flags: W
LayerCount: 2
Fore
SplineSet
395 844 m 0,0,1
 344 844 344 844 307.5 880 c 128,-1,2
 271 916 271 916 271 968 c 0,3,4
 271 1021 271 1021 307.5 1057 c 128,-1,5
 344 1093 344 1093 395 1093 c 0,6,7
 447 1093 447 1093 483 1057 c 128,-1,8
 519 1021 519 1021 519 968 c 0,9,10
 519 916 519 916 483 880 c 128,-1,11
 447 844 447 844 395 844 c 0,0,1
395 888 m 256,12,13
 427 888 427 888 450.5 912 c 128,-1,14
 474 936 474 936 474 968 c 256,15,16
 474 1000 474 1000 450.5 1024 c 128,-1,17
 427 1048 427 1048 395 1048 c 256,18,19
 363 1048 363 1048 339 1024 c 128,-1,20
 315 1000 315 1000 315 968 c 256,21,22
 315 936 315 936 339 912 c 128,-1,23
 363 888 363 888 395 888 c 256,12,13
EndSplineSet
EndChar

StartChar: bullet
Encoding: 8226 8226 32
Width: 931
Flags: W
LayerCount: 2
Fore
SplineSet
817 662 m 256,0,1
 817 517 817 517 713.5 414 c 128,-1,2
 610 311 610 311 465 311 c 256,3,4
 320 311 320 311 217 414 c 128,-1,5
 114 517 114 517 114 662 c 256,6,7
 114 807 114 807 217 910 c 128,-1,8
 320 1013 320 1013 465 1013 c 256,9,10
 610 1013 610 1013 713.5 910 c 128,-1,11
 817 807 817 807 817 662 c 256,0,1
EndSplineSet
EndChar

StartChar: registered
Encoding: 174 174 33
Width: 897
Flags: W
LayerCount: 2
Fore
SplineSet
580 445 m 0,0,1
 448 445 448 445 354.5 538.5 c 128,-1,2
 261 632 261 632 261 764 c 256,3,4
 261 896 261 896 354.5 990 c 128,-1,5
 448 1084 448 1084 580 1084 c 0,6,7
 714 1084 714 1084 807 990 c 128,-1,8
 900 896 900 896 900 764 c 256,9,10
 900 632 900 632 806.5 538.5 c 128,-1,11
 713 445 713 445 580 445 c 0,0,1
580 484 m 0,12,13
 695 484 695 484 777.5 567 c 128,-1,14
 860 650 860 650 860 764 c 256,15,16
 860 878 860 878 777.5 961 c 128,-1,17
 695 1044 695 1044 580 1044 c 0,18,19
 466 1044 466 1044 383.5 961 c 128,-1,20
 301 878 301 878 301 764 c 256,21,22
 301 650 301 650 383.5 567 c 128,-1,23
 466 484 466 484 580 484 c 0,12,13
529 737 m 1,24,-1
 501 596 l 1,25,-1
 394 596 l 1,26,-1
 403 639 l 1,27,-1
 456 639 l 1,28,-1
 511 915 l 1,29,-1
 458 915 l 1,30,-1
 466 959 l 1,31,-1
 598 959 l 2,32,33
 751 959 751 959 751 875 c 0,34,35
 751 800 751 800 650 750 c 1,36,-1
 685 639 l 1,37,-1
 747 639 l 1,38,-1
 738 596 l 1,39,-1
 641 596 l 1,40,-1
 591 737 l 1,41,-1
 529 737 l 1,24,-1
538 782 m 1,42,-1
 574 782 l 2,43,44
 697 782 697 782 697 866 c 0,45,46
 697 915 697 915 607 915 c 2,47,-1
 564 915 l 1,48,-1
 538 782 l 1,42,-1
EndSplineSet
EndChar

StartChar: copyright
Encoding: 169 169 34
Width: 1244
Flags: W
LayerCount: 2
Fore
SplineSet
725 -27 m 0,0,1
 495 -27 495 -27 330.5 137 c 128,-1,2
 166 301 166 301 166 533 c 256,3,4
 166 765 166 765 330.5 929 c 128,-1,5
 495 1093 495 1093 725 1093 c 0,6,7
 958 1093 958 1093 1122 929 c 128,-1,8
 1286 765 1286 765 1286 533 c 256,9,10
 1286 301 1286 301 1122 137 c 128,-1,11
 958 -27 958 -27 725 -27 c 0,0,1
725 18 m 0,12,13
 939 18 939 18 1090 169 c 128,-1,14
 1241 320 1241 320 1241 533 c 256,15,16
 1241 746 1241 746 1090 897 c 128,-1,17
 939 1048 939 1048 725 1048 c 0,18,19
 513 1048 513 1048 362 897 c 128,-1,20
 211 746 211 746 211 533 c 256,21,22
 211 320 211 320 362 169 c 128,-1,23
 513 18 513 18 725 18 c 0,12,13
890 246 m 1,24,25
 785 213 785 213 704 213 c 0,26,27
 580 213 580 213 508 279.5 c 128,-1,28
 436 346 436 346 436 462 c 0,29,30
 436 625 436 625 541 734.5 c 128,-1,31
 646 844 646 844 805 844 c 0,32,33
 896 844 896 844 1003 814 c 1,34,-1
 967 675 l 1,35,-1
 915 684 l 1,36,-1
 923 766 l 1,37,38
 854 798 854 798 792 798 c 0,39,40
 688 798 688 798 616 700 c 128,-1,41
 544 602 544 602 544 462 c 0,42,43
 544 271 544 271 722 271 c 0,44,45
 823 271 823 271 902 307 c 1,46,-1
 890 246 l 1,24,25
EndSplineSet
EndChar

StartChar: trademark
Encoding: 8482 8482 35
Width: 1333
Flags: W
LayerCount: 2
Fore
SplineSet
440 1021 m 1,0,-1
 307 1021 l 1,1,-1
 288 923 l 1,2,-1
 225 923 l 1,3,-1
 254 1066 l 1,4,-1
 751 1066 l 1,5,-1
 723 923 l 1,6,-1
 661 923 l 1,7,-1
 679 1021 l 1,8,-1
 546 1021 l 1,9,-1
 456 569 l 1,10,-1
 554 569 l 1,11,-1
 545 524 l 1,12,-1
 243 524 l 1,13,-1
 253 569 l 1,14,-1
 350 569 l 1,15,-1
 440 1021 l 1,0,-1
1011 569 m 1,16,-1
 942 956 l 1,17,-1
 857 524 l 1,18,-1
 688 524 l 1,19,-1
 697 569 l 1,20,-1
 794 569 l 1,21,-1
 884 1021 l 1,22,-1
 787 1021 l 1,23,-1
 796 1066 l 1,24,-1
 1036 1066 l 1,25,-1
 1092 747 l 1,26,-1
 1265 1066 l 1,27,-1
 1481 1066 l 1,28,-1
 1473 1021 l 1,29,-1
 1375 1021 l 1,30,-1
 1285 569 l 1,31,-1
 1383 569 l 1,32,-1
 1373 524 l 1,33,-1
 1178 524 l 1,34,-1
 1270 985 l 1,35,-1
 1041 569 l 1,36,-1
 1011 569 l 1,16,-1
EndSplineSet
EndChar

StartChar: logicalnot
Encoding: 172 172 39
Width: 932
Flags: W
LayerCount: 2
Fore
SplineSet
177 510 m 1,0,-1
 193 590 l 1,1,-1
 975 590 l 1,2,-1
 906 248 l 1,3,-1
 814 248 l 1,4,-1
 866 510 l 1,5,-1
 177 510 l 1,0,-1
EndSplineSet
EndChar

StartChar: florin
Encoding: 402 402 40
Width: 679
Flags: W
LayerCount: 2
Fore
SplineSet
158 -231 m 1,0,-1
 210 -18 l 1,1,-1
 286 364 l 1,2,-1
 108 364 l 1,3,-1
 117 409 l 1,4,-1
 294 409 l 1,5,-1
 298 427 l 2,6,7
 330 586 330 586 463 692.5 c 128,-1,8
 596 799 596 799 761 799 c 0,9,10
 818 799 818 799 860 784 c 1,11,-1
 764 678 l 1,12,13
 712 729 712 729 643 729 c 0,14,15
 500 729 500 729 457 512 c 2,16,-1
 436 409 l 1,17,-1
 623 409 l 1,18,-1
 614 364 l 1,19,-1
 427 364 l 1,20,-1
 313 -213 l 1,21,-1
 158 -231 l 1,0,-1
EndSplineSet
EndChar

StartChar: ellipsis
Encoding: 8230 8230 41
Width: 1827
Flags: W
LayerCount: 2
Fore
SplineSet
758 113 m 0,0,1
 758 144 758 144 809.5 245.5 c 128,-1,2
 861 347 861 347 876 355 c 0,3,4
 907 369 907 369 964.5 307.5 c 128,-1,5
 1022 246 1022 246 1026 211 c 1,6,7
 1026 166 1026 166 977.5 79.5 c 128,-1,8
 929 -7 929 -7 908 -7 c 0,9,10
 899 -7 899 -7 851 26.5 c 128,-1,11
 803 60 803 60 778 79 c 0,12,13
 758 96 758 96 758 113 c 0,0,1
1308 113 m 0,14,15
 1308 144 1308 144 1359 245.5 c 128,-1,16
 1410 347 1410 347 1426 355 c 0,17,18
 1457 369 1457 369 1514.5 307.5 c 128,-1,19
 1572 246 1572 246 1575 211 c 0,20,21
 1575 166 1575 166 1527 79.5 c 128,-1,22
 1479 -7 1479 -7 1458 -7 c 0,23,24
 1449 -7 1449 -7 1401 26.5 c 128,-1,25
 1353 60 1353 60 1328 79 c 0,26,27
 1308 96 1308 96 1308 113 c 0,14,15
211 113 m 0,28,29
 211 144 211 144 262 245.5 c 128,-1,30
 313 347 313 347 329 355 c 0,31,32
 360 369 360 369 417.5 307.5 c 128,-1,33
 475 246 475 246 478 211 c 0,34,35
 478 166 478 166 430 79.5 c 128,-1,36
 382 -7 382 -7 361 -7 c 0,37,38
 352 -7 352 -7 304 26.5 c 128,-1,39
 256 60 256 60 231 79 c 0,40,41
 211 96 211 96 211 113 c 0,28,29
EndSplineSet
EndChar

StartChar: endash
Encoding: 8211 8211 42
Width: 434
Flags: W
LayerCount: 2
Fore
SplineSet
434 154 m 1,0,-1
 0 154 l 1,1,-1
 0 234 l 1,2,-1
 434 234 l 1,3,-1
 434 154 l 1,0,-1
EndSplineSet
EndChar

StartChar: emdash
Encoding: 8212 8212 43
Width: 1862
Flags: W
LayerCount: 2
Fore
SplineSet
1866 572 m 1,0,-1
 -4 572 l 1,1,-1
 -4 732 l 1,2,-1
 1866 732 l 1,3,-1
 1866 572 l 1,0,-1
EndSplineSet
EndChar

StartChar: quotedblleft
Encoding: 8220 8220 44
Width: 613
Flags: W
LayerCount: 2
Fore
SplineSet
340 993 m 0,0,1
 341 1058 341 1058 385 1121.5 c 128,-1,2
 429 1185 429 1185 483 1211 c 1,3,-1
 514 1153 l 1,4,5
 498 1144 498 1144 476 1120 c 128,-1,6
 454 1096 454 1096 444 1058 c 1,7,8
 510 1030 510 1030 507 975 c 0,9,10
 507 959 507 959 500.5 944.5 c 128,-1,11
 494 930 494 930 483.5 919 c 128,-1,12
 473 908 473 908 458 901.5 c 128,-1,13
 443 895 443 895 427 895 c 0,14,15
 406 895 406 895 390 903.5 c 128,-1,16
 374 912 374 912 363 925.5 c 128,-1,17
 352 939 352 939 346 957 c 128,-1,18
 340 975 340 975 340 993 c 0,0,1
121 993 m 0,19,20
 122 1058 122 1058 166 1121.5 c 128,-1,21
 210 1185 210 1185 265 1211 c 1,22,-1
 296 1153 l 1,23,24
 280 1144 280 1144 258 1120 c 128,-1,25
 236 1096 236 1096 226 1058 c 1,26,27
 292 1030 292 1030 289 975 c 0,28,29
 289 959 289 959 282.5 944.5 c 128,-1,30
 276 930 276 930 265 919 c 128,-1,31
 254 908 254 908 239 901.5 c 128,-1,32
 224 895 224 895 208 895 c 0,33,34
 188 895 188 895 171.5 903.5 c 128,-1,35
 155 912 155 912 144 925.5 c 128,-1,36
 133 939 133 939 127 957 c 128,-1,37
 121 975 121 975 121 993 c 0,19,20
EndSplineSet
EndChar

StartChar: quotedblright
Encoding: 8221 8221 45
Width: 597
Flags: W
LayerCount: 2
Fore
SplineSet
295 1113 m 0,0,1
 294 1048 294 1048 250 984.5 c 128,-1,2
 206 921 206 921 152 895 c 1,3,-1
 121 953 l 1,4,5
 137 962 137 962 159 986 c 128,-1,6
 181 1010 181 1010 191 1048 c 1,7,8
 125 1076 125 1076 128 1131 c 0,9,10
 128 1147 128 1147 134.5 1161.5 c 128,-1,11
 141 1176 141 1176 151.5 1187 c 128,-1,12
 162 1198 162 1198 176.5 1204.5 c 128,-1,13
 191 1211 191 1211 208 1211 c 0,14,15
 229 1211 229 1211 245 1202.5 c 128,-1,16
 261 1194 261 1194 272 1180.5 c 128,-1,17
 283 1167 283 1167 289 1149 c 128,-1,18
 295 1131 295 1131 295 1113 c 0,0,1
514 1113 m 0,19,20
 513 1048 513 1048 469 984.5 c 128,-1,21
 425 921 425 921 370 895 c 1,22,-1
 339 953 l 1,23,24
 355 962 355 962 377 986 c 128,-1,25
 399 1010 399 1010 409 1048 c 1,26,27
 343 1076 343 1076 346 1131 c 0,28,29
 346 1147 346 1147 352.5 1161.5 c 128,-1,30
 359 1176 359 1176 370 1187 c 128,-1,31
 381 1198 381 1198 395.5 1204.5 c 128,-1,32
 410 1211 410 1211 427 1211 c 0,33,34
 447 1211 447 1211 463 1202.5 c 128,-1,35
 479 1194 479 1194 490.5 1180.5 c 128,-1,36
 502 1167 502 1167 508 1149 c 128,-1,37
 514 1131 514 1131 514 1113 c 0,19,20
EndSplineSet
EndChar

StartChar: divide
Encoding: 247 247 46
Width: 1093
Flags: W
LayerCount: 2
Fore
SplineSet
624 674 m 1,0,-1
 466 674 l 1,1,-1
 466 855 l 1,2,-1
 624 855 l 1,3,-1
 624 674 l 1,0,-1
933 383 m 1,4,-1
 157 383 l 1,5,-1
 157 489 l 1,6,-1
 933 489 l 1,7,-1
 933 383 l 1,4,-1
624 17 m 1,8,-1
 466 17 l 1,9,-1
 466 198 l 1,10,-1
 624 198 l 1,11,-1
 624 17 l 1,8,-1
EndSplineSet
EndChar

StartChar: lozenge
Encoding: 9674 9674 47
Width: 1118
Flags: W
LayerCount: 2
Fore
SplineSet
1003 699 m 1,0,-1
 560 197 l 1,1,-1
 117 699 l 1,2,-1
 560 1202 l 1,3,-1
 1003 699 l 1,0,-1
848 699 m 1,4,-1
 560 1036 l 1,5,-1
 271 699 l 1,6,-1
 560 364 l 1,7,-1
 848 699 l 1,4,-1
EndSplineSet
EndChar

StartChar: fraction
Encoding: 8260 8260 48
Width: 742
Flags: W
LayerCount: 2
Fore
SplineSet
740 1101 m 1,0,-1
 101 -82 l 1,1,-1
 -9 -82 l 1,2,-1
 629 1101 l 1,3,-1
 740 1101 l 1,0,-1
EndSplineSet
EndChar

StartChar: guilsinglleft
Encoding: 8249 8249 49
Width: 1117
Flags: W
LayerCount: 2
Fore
SplineSet
955 58 m 1,0,-1
 150 444 l 1,1,-1
 150 534 l 1,2,-1
 955 918 l 1,3,-1
 955 784 l 1,4,-1
 331 489 l 1,5,-1
 955 192 l 1,6,-1
 955 58 l 1,0,-1
EndSplineSet
EndChar

StartChar: daggerdbl
Encoding: 8225 8225 52
Width: 932
Flags: W
LayerCount: 2
Fore
SplineSet
349 -231 m 1,0,-1
 481 185 l 1,1,-1
 161 154 l 1,2,-1
 211 261 l 1,3,-1
 490 229 l 1,4,-1
 567 616 l 1,5,-1
 247 586 l 1,6,-1
 297 693 l 1,7,-1
 575 661 l 1,8,-1
 608 1066 l 1,9,-1
 758 1093 l 1,10,-1
 620 661 l 1,11,-1
 940 693 l 1,12,-1
 889 586 l 1,13,-1
 611 616 l 1,14,-1
 535 229 l 1,15,-1
 855 261 l 1,16,-1
 804 154 l 1,17,-1
 525 185 l 1,18,-1
 499 -213 l 1,19,-1
 349 -231 l 1,0,-1
EndSplineSet
EndChar

StartChar: middot.001
Encoding: 8729 8729 53
Width: 620
Flags: W
LayerCount: 2
Fore
SplineSet
429 516 m 1,0,-1
 190 516 l 1,1,-1
 190 789 l 1,2,-1
 429 789 l 1,3,-1
 429 516 l 1,0,-1
EndSplineSet
EndChar

StartChar: quotesinglbase
Encoding: 8218 8218 54
Width: 418
Flags: W
LayerCount: 2
Fore
SplineSet
103 128 m 1,0,-1
 247 231 l 1,1,-1
 353 90 l 1,2,3
 345 -56 345 -56 262.5 -134.5 c 128,-1,4
 180 -213 180 -213 36 -213 c 1,5,-1
 76 -168 l 1,6,7
 189 -158 189 -158 211 -18 c 1,8,-1
 103 128 l 1,0,-1
EndSplineSet
EndChar

StartChar: quotedblbase
Encoding: 8222 8222 55
Width: 684
Flags: W
LayerCount: 2
Fore
SplineSet
91 92 m 1,0,-1
 204 178 l 1,1,-1
 292 64 l 1,2,3
 270 -213 270 -213 31 -213 c 1,4,-1
 60 -168 l 1,5,6
 166 -148 166 -148 179 -16 c 1,7,-1
 91 92 l 1,0,-1
401 92 m 1,8,-1
 516 178 l 1,9,-1
 602 64 l 1,10,11
 581 -213 581 -213 341 -213 c 1,12,-1
 372 -168 l 1,13,14
 476 -148 476 -148 490 -16 c 1,15,-1
 401 92 l 1,8,-1
EndSplineSet
EndChar

StartChar: perthousand
Encoding: 8240 8240 56
Width: 1571
Flags: W
LayerCount: 2
Fore
SplineSet
385 533 m 0,0,1
 304 533 304 533 254.5 584.5 c 128,-1,2
 205 636 205 636 205 722 c 0,3,4
 205 865 205 865 286.5 965.5 c 128,-1,5
 368 1066 368 1066 483 1066 c 0,6,7
 567 1066 567 1066 617.5 1014.5 c 128,-1,8
 668 963 668 963 668 877 c 0,9,10
 668 733 668 733 585.5 633 c 128,-1,11
 503 533 503 533 385 533 c 0,0,1
311 715 m 0,12,13
 311 578 311 578 398 578 c 0,14,15
 463 578 463 578 517 671.5 c 128,-1,16
 571 765 571 765 571 881 c 0,17,18
 571 1022 571 1022 483 1022 c 0,19,20
 416 1022 416 1022 363.5 928 c 128,-1,21
 311 834 311 834 311 715 c 0,12,13
850 0 m 0,22,23
 769 0 769 0 719.5 51.5 c 128,-1,24
 670 103 670 103 670 189 c 0,25,26
 670 331 670 331 751 432 c 128,-1,27
 832 533 832 533 947 533 c 0,28,29
 1031 533 1031 533 1081.5 481.5 c 128,-1,30
 1132 430 1132 430 1132 344 c 0,31,32
 1132 200 1132 200 1049.5 100 c 128,-1,33
 967 0 967 0 850 0 c 0,22,23
776 182 m 0,34,35
 776 44 776 44 862 44 c 0,36,37
 929 44 929 44 982 138 c 128,-1,38
 1035 232 1035 232 1035 348 c 0,39,40
 1035 490 1035 490 948 490 c 0,41,42
 880 490 880 490 828 395.5 c 128,-1,43
 776 301 776 301 776 182 c 0,34,35
131 -27 m 1,44,-1
 1111 1093 l 1,45,-1
 1206 1093 l 1,46,-1
 225 -27 l 1,47,-1
 131 -27 l 1,44,-1
1376 0 m 0,48,49
 1294 0 1294 0 1244.5 51.5 c 128,-1,50
 1195 103 1195 103 1195 189 c 0,51,52
 1195 331 1195 331 1276.5 432 c 128,-1,53
 1358 533 1358 533 1473 533 c 0,54,55
 1557 533 1557 533 1607.5 481.5 c 128,-1,56
 1658 430 1658 430 1658 344 c 0,57,58
 1658 200 1658 200 1575.5 100 c 128,-1,59
 1493 0 1493 0 1376 0 c 0,48,49
1301 183 m 0,60,61
 1301 44 1301 44 1389 44 c 0,62,63
 1453 44 1453 44 1507 138 c 128,-1,64
 1561 232 1561 232 1561 347 c 0,65,66
 1561 490 1561 490 1473 490 c 0,67,68
 1406 490 1406 490 1353.5 395.5 c 128,-1,69
 1301 301 1301 301 1301 183 c 0,60,61
EndSplineSet
EndChar

StartChar: multiply
Encoding: 215 215 60
Width: 977
Flags: W
LayerCount: 2
Fore
SplineSet
749 137 m 1,0,-1
 507 379 l 1,1,-1
 268 140 l 1,2,-1
 181 227 l 1,3,-1
 420 466 l 1,4,-1
 180 706 l 1,5,-1
 271 797 l 1,6,-1
 511 557 l 1,7,-1
 752 798 l 1,8,-1
 839 711 l 1,9,-1
 598 470 l 1,10,-1
 840 228 l 1,11,-1
 749 137 l 1,0,-1
EndSplineSet
EndChar

StartChar: macron
Encoding: 175 175 61
Width: 1118
Flags: W
LayerCount: 2
Fore
SplineSet
1134 1259 m 1,0,-1
 -16 1259 l 1,1,-1
 -16 1389 l 1,2,-1
 1134 1389 l 1,3,-1
 1134 1259 l 1,0,-1
EndSplineSet
EndChar

StartChar: periodcentered
Encoding: 183 183 62
Width: 724
Flags: W
LayerCount: 2
Fore
SplineSet
482 832 m 1,0,-1
 243 832 l 1,1,-1
 243 1117 l 1,2,-1
 482 1117 l 1,3,-1
 482 832 l 1,0,-1
EndSplineSet
EndChar

StartChar: H22073
Encoding: 9633 9633 63
Width: 1237
Flags: W
LayerCount: 2
Fore
SplineSet
146 944 m 1,0,-1
 1090 944 l 1,1,-1
 1090 0 l 1,2,-1
 146 0 l 1,3,-1
 146 944 l 1,0,-1
222 868 m 1,4,-1
 222 76 l 1,5,-1
 1014 76 l 1,6,-1
 1014 868 l 1,7,-1
 222 868 l 1,4,-1
EndSplineSet
EndChar

StartChar: H18543
Encoding: 9642 9642 64
Width: 1089
Flags: W
LayerCount: 2
Fore
SplineSet
886 894 m 1,0,-1
 886 200 l 1,1,-1
 192 200 l 1,2,-1
 192 894 l 1,3,-1
 886 894 l 1,0,-1
EndSplineSet
EndChar

StartChar: H18551
Encoding: 9643 9643 65
Width: 1089
Flags: W
LayerCount: 2
Fore
SplineSet
888 930 m 1,0,-1
 888 235 l 1,1,-1
 193 235 l 1,2,-1
 193 930 l 1,3,-1
 888 930 l 1,0,-1
774 816 m 1,4,-1
 307 816 l 1,5,-1
 307 349 l 1,6,-1
 774 349 l 1,7,-1
 774 816 l 1,4,-1
EndSplineSet
EndChar

StartChar: H18533
Encoding: 9679 9679 66
Width: 1339
Flags: W
LayerCount: 2
Fore
SplineSet
204 775 m 0,0,1
 204 976 204 976 345 1117 c 128,-1,2
 486 1258 486 1258 685 1258 c 0,3,4
 885 1258 885 1258 1026 1117 c 128,-1,5
 1167 976 1167 976 1167 775 c 0,6,7
 1167 577 1167 577 1026 436 c 128,-1,8
 885 295 885 295 685 295 c 0,9,10
 486 295 486 295 345 436 c 128,-1,11
 204 577 204 577 204 775 c 0,0,1
EndSplineSet
EndChar

StartChar: openbullet
Encoding: 9702 9702 67
Width: 1089
Flags: W
LayerCount: 2
Fore
SplineSet
544 1392 m 0,0,1
 700 1392 700 1392 810.5 1281.5 c 128,-1,2
 921 1171 921 1171 921 1015 c 256,3,4
 921 859 921 859 810.5 749 c 128,-1,5
 700 639 700 639 544 639 c 256,6,7
 388 639 388 639 278 749 c 128,-1,8
 168 859 168 859 168 1015 c 256,9,10
 168 1171 168 1171 277.5 1281.5 c 128,-1,11
 387 1392 387 1392 544 1392 c 0,0,1
544 1278 m 0,12,13
 435 1278 435 1278 358.5 1200.5 c 128,-1,14
 282 1123 282 1123 282 1015 c 0,15,16
 282 906 282 906 359 829.5 c 128,-1,17
 436 753 436 753 544 753 c 256,18,19
 652 753 652 753 729.5 829.5 c 128,-1,20
 807 906 807 906 807 1015 c 0,21,22
 807 1123 807 1123 730.5 1200.5 c 128,-1,23
 654 1278 654 1278 544 1278 c 0,12,13
EndSplineSet
EndChar

StartChar: uniFFFC
Encoding: 65532 65532 68
Width: 2048
Flags: W
LayerCount: 2
Fore
SplineSet
2048 1150 m 1,0,-1
 1948 1150 l 1,1,-1
 1948 1373 l 1,2,-1
 1725 1373 l 1,3,-1
 1725 1473 l 1,4,-1
 2048 1473 l 1,5,-1
 2048 1150 l 1,0,-1
1473 1373 m 1,6,-1
 1150 1373 l 1,7,-1
 1150 1473 l 1,8,-1
 1473 1473 l 1,9,-1
 1473 1373 l 1,6,-1
2048 575 m 1,10,-1
 1948 575 l 1,11,-1
 1948 898 l 1,12,-1
 2048 898 l 1,13,-1
 2048 575 l 1,10,-1
1782 611 m 2,14,15
 1782 370 1782 370 1571 370 c 0,16,17
 1485 370 1485 370 1433 415 c 1,18,-1
 1506 494 l 1,19,20
 1531 468 1531 468 1571 468 c 0,21,22
 1666 468 1666 468 1666 606 c 2,23,-1
 1666 1090 l 1,24,-1
 1782 1090 l 1,25,-1
 1782 611 l 2,14,15
898 1373 m 1,26,-1
 575 1373 l 1,27,-1
 575 1473 l 1,28,-1
 898 1473 l 1,29,-1
 898 1373 l 1,26,-1
2048 0 m 1,30,-1
 1725 0 l 1,31,-1
 1725 100 l 1,32,-1
 1948 100 l 1,33,-1
 1948 323 l 1,34,-1
 2048 323 l 1,35,-1
 2048 0 l 1,30,-1
1423 591 m 0,36,37
 1423 382 1423 382 1149 382 c 2,38,-1
 909 382 l 1,39,-1
 909 1090 l 1,40,-1
 1144 1090 l 2,41,42
 1393 1090 1393 1090 1393 904 c 0,43,44
 1393 813 1393 813 1304 759 c 1,45,46
 1423 713 1423 713 1423 591 c 0,36,37
323 1373 m 1,47,-1
 100 1373 l 1,48,-1
 100 1150 l 1,49,-1
 0 1150 l 1,50,-1
 0 1473 l 1,51,-1
 323 1473 l 1,52,-1
 323 1373 l 1,47,-1
1473 0 m 1,53,-1
 1150 0 l 1,54,-1
 1150 100 l 1,55,-1
 1473 100 l 1,56,-1
 1473 0 l 1,53,-1
854 735 m 0,57,58
 854 562 854 562 772 466 c 128,-1,59
 690 370 690 370 537 370 c 256,60,61
 384 370 384 370 303.5 466 c 128,-1,62
 223 562 223 562 223 735 c 0,63,64
 223 910 223 910 303.5 1006 c 128,-1,65
 384 1102 384 1102 537 1102 c 256,66,67
 690 1102 690 1102 772 1006 c 128,-1,68
 854 910 854 910 854 735 c 0,57,58
100 575 m 1,69,-1
 0 575 l 1,70,-1
 0 898 l 1,71,-1
 100 898 l 1,72,-1
 100 575 l 1,69,-1
898 0 m 1,73,-1
 575 0 l 1,74,-1
 575 100 l 1,75,-1
 898 100 l 1,76,-1
 898 0 l 1,73,-1
323 0 m 1,77,-1
 0 0 l 1,78,-1
 0 323 l 1,79,-1
 100 323 l 1,80,-1
 100 100 l 1,81,-1
 323 100 l 1,82,-1
 323 0 l 1,77,-1
1277 893 m 0,83,84
 1277 992 1277 992 1114 992 c 2,85,-1
 1025 992 l 1,86,-1
 1025 798 l 1,87,-1
 1126 798 l 2,88,89
 1277 798 1277 798 1277 893 c 0,83,84
1307 591 m 0,90,91
 1307 700 1307 700 1136 700 c 2,92,-1
 1025 700 l 1,93,-1
 1025 480 l 1,94,-1
 1149 480 l 2,95,96
 1307 480 1307 480 1307 591 c 0,90,91
738 735 m 0,97,98
 738 1004 738 1004 537 1004 c 0,99,100
 339 1004 339 1004 339 735 c 0,101,102
 339 468 339 468 537 468 c 0,103,104
 738 468 738 468 738 735 c 0,97,98
EndSplineSet
EndChar

StartChar: zerowidthnonjoiner
Encoding: 8204 8204 88
Width: 0
GlyphClass: 2
Flags: W
LayerCount: 2
Fore
SplineSet
36 1289 m 1,0,-1
 36 -275 l 1,1,-1
 -36 -275 l 1,2,-1
 -36 1289 l 1,3,-1
 36 1289 l 1,0,-1
EndSplineSet
EndChar

StartChar: zerowidthjoiner
Encoding: 8205 8205 89
Width: 0
GlyphClass: 2
Flags: W
LayerCount: 2
Fore
SplineSet
36 -275 m 1,0,-1
 -36 -275 l 1,1,-1
 -36 1114 l 1,2,-1
 -170 978 l 1,3,-1
 -219 1027 l 1,4,-1
 -48 1196 l 1,5,-1
 -219 1364 l 1,6,-1
 -170 1413 l 1,7,-1
 0 1242 l 1,8,-1
 170 1413 l 1,9,-1
 219 1364 l 1,10,-1
 48 1196 l 1,11,-1
 219 1027 l 1,12,-1
 170 978 l 1,13,-1
 36 1114 l 1,14,-1
 36 -275 l 1,0,-1
EndSplineSet
EndChar

StartChar: lefttorightmark
Encoding: 8206 8206 90
Width: 0
GlyphClass: 2
Flags: W
LayerCount: 2
Fore
SplineSet
430 1198 m 1,0,-1
 213 984 l 1,1,-1
 164 1033 l 1,2,-1
 301 1163 l 1,3,-1
 35 1163 l 1,4,-1
 35 -275 l 1,5,-1
 -36 -275 l 1,6,-1
 -36 1234 l 1,7,-1
 301 1234 l 1,8,-1
 164 1364 l 1,9,-1
 213 1413 l 1,10,-1
 430 1198 l 1,0,-1
EndSplineSet
EndChar

StartChar: righttoleftmark
Encoding: 8207 8207 91
Width: 0
GlyphClass: 2
Flags: W
LayerCount: 2
Fore
SplineSet
35 -275 m 1,0,-1
 -36 -275 l 1,1,-1
 -36 1163 l 1,2,-1
 -302 1163 l 1,3,-1
 -165 1033 l 1,4,-1
 -214 984 l 1,5,-1
 -431 1198 l 1,6,-1
 -214 1413 l 1,7,-1
 -165 1364 l 1,8,-1
 -302 1234 l 1,9,-1
 35 1234 l 1,10,-1
 35 -275 l 1,0,-1
EndSplineSet
EndChar

StartChar: afii57388.001
Encoding: 1644 1644 92
Width: 353
GlyphClass: 2
Flags: W
LayerCount: 2
Fore
SplineSet
210 654 m 0,0,1
 200 627 200 627 185 603 c 0,2,3
 180 597 180 597 173.5 593.5 c 128,-1,4
 167 590 167 590 162 590 c 128,-1,5
 157 590 157 590 154.5 593 c 128,-1,6
 152 596 152 596 155 603 c 0,7,8
 187 660 187 660 202.5 713.5 c 128,-1,9
 218 767 218 767 218 800 c 1,10,11
 194 806 194 806 179 816 c 128,-1,12
 164 826 164 826 155 837.5 c 128,-1,13
 146 849 146 849 143 859 c 128,-1,14
 140 869 140 869 140 874 c 0,15,16
 140 890 140 890 145.5 907 c 128,-1,17
 151 924 151 924 160.5 937.5 c 128,-1,18
 170 951 170 951 183.5 959.5 c 128,-1,19
 197 968 197 968 213 968 c 0,20,21
 272 968 272 968 272 874 c 0,22,23
 272 859 272 859 268 835 c 128,-1,24
 264 811 264 811 256 781.5 c 128,-1,25
 248 752 248 752 236.5 719.5 c 128,-1,26
 225 687 225 687 210 654 c 0,0,1
EndSplineSet
EndChar

StartChar: afii57409
Encoding: 1569 1569 93
Width: 751
GlyphClass: 2
Flags: W
AnchorPoint: "Anchor-3" 375 -315 basechar 0
AnchorPoint: "Anchor-2" 405 750 basechar 0
LayerCount: 2
Fore
SplineSet
694 312 m 1,0,-1
 657 164 l 1,1,2
 573 149 573 149 422 94 c 0,3,4
 258 35 258 35 174 -15 c 1,5,-1
 174 78 l 1,6,7
 219 125 219 125 308 180 c 1,8,9
 184 235 184 235 184 314 c 0,10,11
 184 399 184 399 286.5 498 c 128,-1,12
 389 597 389 597 475 597 c 0,13,14
 525 597 525 597 569 575 c 0,15,16
 623 548 623 548 623 502 c 0,17,18
 623 439 623 439 575 439 c 0,19,20
 552 439 552 439 507.5 452 c 128,-1,21
 463 465 463 465 438 465 c 0,22,23
 406 465 406 465 365 435 c 128,-1,24
 324 405 324 405 324 375 c 0,25,26
 324 348 324 348 370 310 c 0,27,28
 425 264 425 264 493 264 c 0,29,30
 541 264 541 264 694 312 c 1,0,-1
EndSplineSet
EndChar

StartChar: afii57440
Encoding: 1600 1600 94
Width: 935
GlyphClass: 2
Flags: W
LayerCount: 2
Fore
SplineSet
972 0 m 1,0,-1
 -26 0 l 1,1,-1
 -26 257 l 1,2,-1
 972 257 l 1,3,-1
 972 0 l 1,0,-1
EndSplineSet
EndChar

StartChar: afii57453
Encoding: 1613 1613 95
Width: 0
GlyphClass: 4
Flags: W
AnchorPoint: "Anchor-3" 0 0 mark 0
AnchorPoint: "Anchor-1" 0 0 mark 0
LayerCount: 2
Fore
SplineSet
171 11 m 1,0,-1
 -197 -160 l 1,1,-1
 -174 -61 l 1,2,-1
 194 109 l 1,3,-1
 171 11 l 1,0,-1
181 172 m 1,4,-1
 -187 1 l 1,5,-1
 -164 100 l 1,6,-1
 204 270 l 1,7,-1
 181 172 l 1,4,-1
EndSplineSet
EndChar

StartChar: afii57381
Encoding: 1642 1642 96
Width: 1031
GlyphClass: 2
Flags: W
LayerCount: 2
Fore
SplineSet
329 1041 m 0,0,1
 329 997 329 997 299.5 968 c 128,-1,2
 270 939 270 939 226 939 c 0,3,4
 183 939 183 939 153 968.5 c 128,-1,5
 123 998 123 998 123 1041 c 0,6,7
 123 1083 123 1083 153.5 1113 c 128,-1,8
 184 1143 184 1143 226 1143 c 0,9,10
 269 1143 269 1143 299 1113.5 c 128,-1,11
 329 1084 329 1084 329 1041 c 0,0,1
821 1259 m 1,12,-1
 343 -101 l 1,13,-1
 245 -100 l 1,14,-1
 726 1261 l 1,15,-1
 821 1259 l 1,12,-1
918 88 m 0,16,17
 918 45 918 45 888.5 15 c 128,-1,18
 859 -15 859 -15 816 -15 c 0,19,20
 771 -15 771 -15 742 14 c 128,-1,21
 713 43 713 43 713 88 c 0,22,23
 713 131 713 131 743 160.5 c 128,-1,24
 773 190 773 190 816 190 c 0,25,26
 858 190 858 190 888 160 c 128,-1,27
 918 130 918 130 918 88 c 0,16,17
EndSplineSet
EndChar

StartChar: afii57461
Encoding: 1643 1643 97
Width: 536
GlyphClass: 2
Flags: W
LayerCount: 2
Fore
SplineSet
518 521 m 1,0,-1
 115 -382 l 1,1,-1
 19 -352 l 1,2,-1
 425 551 l 1,3,-1
 518 521 l 1,0,-1
EndSplineSet
EndChar

StartChar: afii63167
Encoding: 1645 1645 98
Width: 1118
GlyphClass: 2
Flags: W
LayerCount: 2
Fore
SplineSet
694 729 m 1,0,-1
 1057 733 l 1,1,-1
 1057 610 l 1,2,-1
 702 612 l 1,3,-1
 971 352 l 1,4,-1
 883 264 l 1,5,-1
 616 539 l 1,6,-1
 623 168 l 1,7,-1
 498 168 l 1,8,-1
 502 539 l 1,9,-1
 236 264 l 1,10,-1
 147 352 l 1,11,-1
 422 614 l 1,12,-1
 63 610 l 1,13,-1
 63 733 l 1,14,-1
 420 729 l 1,15,-1
 170 975 l 1,16,-1
 258 1065 l 1,17,-1
 502 817 l 1,18,-1
 498 1176 l 1,19,-1
 623 1176 l 1,20,-1
 616 813 l 1,21,-1
 860 1065 l 1,22,-1
 948 975 l 1,23,-1
 694 729 l 1,0,-1
EndSplineSet
EndChar

StartChar: afii57459
Encoding: 65543 -1 99
Width: 666
GlyphClass: 2
Flags: W
LayerCount: 2
Fore
SplineSet
635 418 m 0,0,1
 635 164 635 164 504 76 c 0,2,3
 392 1 392 1 155 1 c 2,4,-1
 -70 1 l 1,5,-1
 -70 258 l 1,6,-1
 181 258 l 2,7,8
 419 258 419 258 500 299 c 0,9,10
 536 317 536 317 536 361 c 0,11,12
 536 388 536 388 496 384 c 0,13,14
 367 372 367 372 317 372 c 0,15,16
 118 372 118 372 118 519 c 0,17,18
 118 640 118 640 179 759 c 0,19,20
 253 903 253 903 367 903 c 0,21,22
 523 903 523 903 592 699 c 0,23,24
 635 572 635 572 635 418 c 0,0,1
484 568 m 1,25,26
 456 636 456 636 398 673 c 0,27,28
 355 700 355 700 320 700 c 0,29,30
 289 700 289 700 263 678.5 c 128,-1,31
 237 657 237 657 237 626 c 0,32,33
 237 556 237 556 373 556 c 0,34,35
 423 556 423 556 484 568 c 1,25,26
EndSplineSet
EndChar

StartChar: afii57543
Encoding: 65544 -1 100
Width: 715
Flags: W
LayerCount: 2
Fore
SplineSet
715 0 m 1,0,-1
 647 0 l 2,1,2
 570 0 570 0 498.5 40.5 c 128,-1,3
 427 81 427 81 388 147 c 1,4,5
 349 81 349 81 279 40.5 c 128,-1,6
 209 0 209 0 132 0 c 2,7,-1
 -70 0 l 1,8,-1
 -70 257 l 1,9,-1
 92 257 l 2,10,11
 238 257 238 257 294 322 c 0,12,13
 323 355 323 355 339 443 c 0,14,15
 351 508 351 508 388 508 c 0,16,17
 424 508 424 508 435 443 c 0,18,19
 450 354 450 354 473 322 c 0,20,21
 518 257 518 257 639 257 c 2,22,-1
 715 257 l 1,23,-1
 715 0 l 1,0,-1
EndSplineSet
EndChar

StartChar: afii57534
Encoding: 1749 1749 101
Width: 788
GlyphClass: 2
Flags: W
LayerCount: 2
Fore
SplineSet
760 314 m 0,0,1
 760 170 760 170 677.5 83.5 c 128,-1,2
 595 -3 595 -3 451 -3 c 0,3,4
 295 -3 295 -3 225 85 c 0,5,6
 177 146 177 146 177 232 c 0,7,8
 177 345 177 345 266 507 c 0,9,10
 349 658 349 658 422 709 c 1,11,12
 572 651 572 651 647 583 c 0,13,14
 760 480 760 480 760 314 c 0,0,1
647 316 m 0,15,16
 549 432 549 432 373 489 c 1,17,18
 306 415 306 415 306 322 c 0,19,20
 306 277 306 277 364 250 c 0,21,22
 416 226 416 226 485 226 c 0,23,24
 588 226 588 226 641 264 c 0,25,26
 672 286 672 286 647 316 c 0,15,16
EndSplineSet
EndChar

StartChar: afii64240
Encoding: 65546 -1 103
Width: 374
Flags: W
LayerCount: 2
Fore
SplineSet
324 128 m 1,0,-1
 189 -7 l 1,1,-1
 53 128 l 1,2,-1
 189 264 l 1,3,-1
 324 128 l 1,0,-1
EndSplineSet
EndChar

StartChar: afii64241
Encoding: 65547 -1 104
Width: 600
Flags: W
LayerCount: 2
Fore
SplineSet
559 131 m 1,0,-1
 437 8 l 1,1,-1
 314 131 l 1,2,-1
 437 253 l 1,3,-1
 559 131 l 1,0,-1
286 131 m 1,4,-1
 164 8 l 1,5,-1
 41 131 l 1,6,-1
 164 253 l 1,7,-1
 286 131 l 1,4,-1
EndSplineSet
EndChar

StartChar: afii63954
Encoding: 65548 -1 105
Width: 611
Flags: W
LayerCount: 2
Fore
SplineSet
50 128 m 1,0,-1
 173 250 l 1,1,-1
 295 128 l 1,2,-1
 173 5 l 1,3,-1
 50 128 l 1,0,-1
323 128 m 1,4,-1
 446 250 l 1,5,-1
 568 128 l 1,6,-1
 446 5 l 1,7,-1
 323 128 l 1,4,-1
184 330 m 1,8,-1
 307 453 l 1,9,-1
 429 330 l 1,10,-1
 307 208 l 1,11,-1
 184 330 l 1,8,-1
EndSplineSet
EndChar

StartChar: afii57382
Encoding: 65549 -1 106
Width: 590
Flags: W
LayerCount: 2
Fore
SplineSet
543 -121 m 1,0,-1
 421 -243 l 1,1,-1
 299 -121 l 1,2,-1
 421 2 l 1,3,-1
 543 -121 l 1,0,-1
270 -121 m 1,4,-1
 148 -243 l 1,5,-1
 25 -121 l 1,6,-1
 148 2 l 1,7,-1
 270 -121 l 1,4,-1
410 -324 m 1,8,-1
 287 -446 l 1,9,-1
 165 -324 l 1,10,-1
 287 -201 l 1,11,-1
 410 -324 l 1,8,-1
EndSplineSet
EndChar

StartChar: afii64242
Encoding: 65550 -1 107
Width: 395
Flags: W
LayerCount: 2
Fore
SplineSet
367 391 m 0,0,1
 367 302 367 302 346.5 230 c 128,-1,2
 326 158 326 158 288 107 c 128,-1,3
 250 56 250 56 195 28 c 128,-1,4
 140 0 140 0 70 0 c 2,5,-1
 -70 0 l 1,6,-1
 -70 257 l 1,7,-1
 85 257 l 2,8,9
 229 257 229 257 229 311 c 0,10,11
 229 359 229 359 117 481 c 0,12,13
 110 487 110 487 110 496 c 256,14,15
 110 505 110 505 117 513 c 2,16,-1
 234 676 l 2,17,18
 243 688 243 688 251 688 c 0,19,20
 258 688 258 688 264 681 c 0,21,22
 285 658 285 658 304 623.5 c 128,-1,23
 323 589 323 589 337 549.5 c 128,-1,24
 351 510 351 510 359 468.5 c 128,-1,25
 367 427 367 427 367 391 c 0,0,1
EndSplineSet
EndChar

StartChar: afii57373
Encoding: 65551 -1 112
Width: 454
Flags: W
LayerCount: 2
Fore
SplineSet
388 1334 m 1,0,1
 389 1330 389 1330 389.5 1325.5 c 128,-1,2
 390 1321 390 1321 390 1314 c 0,3,4
 390 1289 390 1289 385 1265 c 128,-1,5
 380 1241 380 1241 376 1236 c 0,6,7
 236 1200 236 1200 25 1107 c 1,8,-1
 24 1181 l 1,9,10
 41 1190 41 1190 64.5 1202 c 128,-1,11
 88 1214 88 1214 118 1230 c 1,12,13
 106 1235 106 1235 92 1247 c 128,-1,14
 78 1259 78 1259 66.5 1274.5 c 128,-1,15
 55 1290 55 1290 47.5 1306.5 c 128,-1,16
 40 1323 40 1323 40 1336 c 0,17,18
 40 1393 40 1393 109 1459 c 0,19,20
 177 1524 177 1524 236 1524 c 0,21,22
 251 1524 251 1524 270 1517 c 128,-1,23
 289 1510 289 1510 305.5 1498.5 c 128,-1,24
 322 1487 322 1487 333.5 1474 c 128,-1,25
 345 1461 345 1461 345 1449 c 0,26,27
 345 1408 345 1408 314 1408 c 0,28,29
 309 1408 309 1408 296.5 1412 c 128,-1,30
 284 1416 284 1416 269 1421.5 c 128,-1,31
 254 1427 254 1427 239 1431 c 128,-1,32
 224 1435 224 1435 214 1435 c 0,33,34
 201 1435 201 1435 186 1431 c 128,-1,35
 171 1427 171 1427 158.5 1420 c 128,-1,36
 146 1413 146 1413 138 1404 c 128,-1,37
 130 1395 130 1395 130 1385 c 0,38,39
 130 1367 130 1367 140 1351 c 128,-1,40
 150 1335 150 1335 165.5 1322.5 c 128,-1,41
 181 1310 181 1310 200 1302.5 c 128,-1,42
 219 1295 219 1295 236 1295 c 0,43,44
 261 1295 261 1295 298.5 1306.5 c 128,-1,45
 336 1318 336 1318 388 1334 c 1,0,1
EndSplineSet
EndChar

StartChar: afii57374
Encoding: 65552 -1 113
Width: 785
GlyphClass: 2
Flags: W
LayerCount: 2
Fore
SplineSet
785 0 m 1,0,-1
 744 0 l 2,1,2
 645 0 645 0 533 43 c 0,3,4
 445 77 445 77 391 117 c 1,5,6
 191 0 191 0 44 0 c 2,7,-1
 -70 0 l 1,8,-1
 -70 257 l 1,9,-1
 84 257 l 2,10,11
 178 257 178 257 217 272 c 1,12,13
 152 362 152 362 152 427 c 0,14,15
 152 526 152 526 230 643 c 0,16,17
 320 779 320 779 433 779 c 0,18,19
 530 779 530 779 587 684 c 0,20,21
 636 603 636 603 636 494 c 0,22,23
 636 350 636 350 562 272 c 1,24,25
 582 257 582 257 713 257 c 2,26,-1
 785 257 l 1,27,-1
 785 0 l 1,0,-1
530 440 m 0,28,29
 530 480 530 480 488 522.5 c 128,-1,30
 446 565 446 565 406 565 c 0,31,32
 360 565 360 565 312 530 c 0,33,34
 261 492 261 492 261 448 c 0,35,36
 261 416 261 416 311.5 369.5 c 128,-1,37
 362 323 362 323 395 323 c 0,38,39
 423 323 423 323 472 356 c 0,40,41
 530 395 530 395 530 440 c 0,28,29
EndSplineSet
EndChar

StartChar: afii57375
Encoding: 1619 1619 114
Width: 668
GlyphClass: 2
Flags: W
LayerCount: 2
Fore
SplineSet
635 1200 m 0,0,1
 635 1153 635 1153 532 1098 c 0,2,3
 423 1040 423 1040 318 1040 c 0,4,5
 286 1040 286 1040 232.5 1054.5 c 128,-1,6
 179 1069 179 1069 159 1069 c 0,7,8
 141 1069 141 1069 120.5 1039.5 c 128,-1,9
 100 1010 100 1010 86 1010 c 0,10,11
 56 1010 56 1010 56 1056 c 0,12,13
 56 1086 56 1086 97 1155 c 0,14,15
 141 1230 141 1230 174 1230 c 1,16,17
 194 1236 194 1236 284.5 1206 c 128,-1,18
 375 1176 375 1176 419 1176 c 0,19,20
 466 1176 466 1176 536 1200 c 128,-1,21
 606 1224 606 1224 612 1224 c 0,22,23
 635 1224 635 1224 635 1200 c 0,0,1
EndSplineSet
EndChar

StartChar: afii57391
Encoding: 59450 59450 115
Width: 1024
GlyphClass: 2
Flags: W
LayerCount: 2
Fore
SplineSet
1024 0 m 1,0,-1
 -70 0 l 1,1,-1
 -70 188 l 1,2,-1
 1024 188 l 1,3,-1
 1024 0 l 1,0,-1
EndSplineSet
EndChar

StartChar: afii57471
Encoding: 65553 -1 116
Width: 1693
Flags: W
LayerCount: 2
Fore
SplineSet
1693 0 m 1,0,-1
 1645 0 l 2,1,2
 1554 0 1554 0 1479 63 c 0,3,4
 1418 114 1418 114 1397 177 c 1,5,6
 1254 54 1254 54 1056 10 c 0,7,8
 927 -19 927 -19 721 -19 c 0,9,10
 177 -19 177 -19 177 350 c 0,11,12
 177 450 177 450 225 544 c 0,13,14
 268 629 268 629 299 629 c 0,15,16
 337 629 337 629 337 587 c 0,17,18
 337 575 337 575 324.5 527.5 c 128,-1,19
 312 480 312 480 312 452 c 0,20,21
 312 315 312 315 466 266 c 0,22,23
 567 234 567 234 774 234 c 0,24,25
 1160 234 1160 234 1357 380 c 0,26,27
 1388 403 1388 403 1443 463 c 0,28,29
 1486 510 1486 510 1505 510 c 0,30,31
 1540 510 1540 510 1540 461 c 0,32,33
 1540 439 1540 439 1491 334 c 1,34,35
 1522 257 1522 257 1660 257 c 2,36,-1
 1693 257 l 1,37,-1
 1693 0 l 1,0,-1
EndSplineSet
EndChar

StartChar: afii52258
Encoding: 65554 -1 117
Width: 1682
GlyphClass: 2
Flags: W
LayerCount: 2
Fore
SplineSet
1682 0 m 1,0,-1
 1634 0 l 2,1,2
 1419 0 1419 0 1263 117 c 1,3,4
 1050 -23 1050 -23 699 -23 c 0,5,6
 177 -23 177 -23 177 350 c 0,7,8
 177 449 177 449 229 544 c 0,9,10
 276 629 276 629 307 629 c 0,11,12
 345 629 345 629 345 587 c 0,13,14
 345 577 345 577 329.5 530 c 128,-1,15
 314 483 314 483 314 454 c 0,16,17
 314 299 314 299 486 252 c 0,18,19
 559 232 559 232 736 232 c 0,20,21
 1011 232 1011 232 1089 272 c 1,22,23
 1024 362 1024 362 1024 427 c 0,24,25
 1024 526 1024 526 1102 643 c 0,26,27
 1192 779 1192 779 1305 779 c 0,28,29
 1402 779 1402 779 1459 684 c 0,30,31
 1508 603 1508 603 1508 494 c 0,32,33
 1508 350 1508 350 1434 272 c 1,34,35
 1454 257 1454 257 1585 257 c 2,36,-1
 1682 257 l 1,37,-1
 1682 0 l 1,0,-1
1402 440 m 0,38,39
 1402 480 1402 480 1360 522.5 c 128,-1,40
 1318 565 1318 565 1278 565 c 0,41,42
 1232 565 1232 565 1184 530 c 0,43,44
 1133 492 1133 492 1133 448 c 0,45,46
 1133 416 1133 416 1183.5 369.5 c 128,-1,47
 1234 323 1234 323 1267 323 c 0,48,49
 1295 323 1295 323 1344 356 c 0,50,51
 1402 395 1402 395 1402 440 c 0,38,39
EndSplineSet
EndChar

StartChar: afii62889
Encoding: 65555 -1 123
Width: 1467
Flags: W
LayerCount: 2
Fore
SplineSet
1467 0 m 1,0,-1
 1253 0 l 1,1,2
 1255 -29 1255 -29 1255 -56 c 0,3,4
 1255 -507 1255 -507 614 -507 c 0,5,6
 383 -507 383 -507 270 -380 c 0,7,8
 179 -278 179 -278 179 -123 c 0,9,10
 179 -44 179 -44 227 107 c 0,11,12
 283 284 283 284 340 284 c 0,13,14
 380 284 380 284 380 229 c 0,15,16
 380 223 380 223 349.5 131 c 128,-1,17
 319 39 319 39 319 -14 c 0,18,19
 319 -156 319 -156 432 -213 c 0,20,21
 513 -254 513 -254 675 -255 c 0,22,23
 823 -256 823 -256 964 -217 c 0,24,25
 1154 -164 1154 -164 1154 -56 c 0,26,27
 1154 -29 1154 -29 1142 1 c 1,28,29
 1115 1 1115 1 1062 -0.5 c 128,-1,30
 1009 -2 1009 -2 982 -2 c 0,31,32
 853 -2 853 -2 794 26 c 0,33,34
 714 64 714 64 714 164 c 0,35,36
 714 293 714 293 775 425 c 0,37,38
 850 588 850 588 963 588 c 0,39,40
 1088 588 1088 588 1170 452 c 0,41,42
 1229 354 1229 354 1238 257 c 1,43,-1
 1467 257 l 1,44,-1
 1467 0 l 1,0,-1
1087 242 m 1,45,46
 1060 309 1060 309 1002 346 c 0,47,48
 958 374 958 374 923 374 c 0,49,50
 892 374 892 374 866 352.5 c 128,-1,51
 840 331 840 331 840 300 c 0,52,53
 840 230 840 230 976 230 c 0,54,55
 1027 230 1027 230 1087 242 c 1,45,46
EndSplineSet
EndChar

StartChar: afii62887
Encoding: 65556 -1 124
Width: 1581
Flags: W
LayerCount: 2
Fore
SplineSet
1545 402 m 0,0,1
 1545 186 1545 186 1402 90 c 0,2,3
 1241 -18 1241 -18 765 -18 c 0,4,5
 609 -18 609 -18 497.5 4 c 128,-1,6
 386 26 386 26 314.5 71.5 c 128,-1,7
 243 117 243 117 210 186.5 c 128,-1,8
 177 256 177 256 177 351 c 0,9,10
 177 451 177 451 229 545 c 0,11,12
 275 630 275 630 307 630 c 0,13,14
 345 630 345 630 345 588 c 0,15,16
 345 585 345 585 340 568.5 c 128,-1,17
 335 552 335 552 329.5 530.5 c 128,-1,18
 324 509 324 509 319 488 c 128,-1,19
 314 467 314 467 314 455 c 0,20,21
 314 297 314 297 489 254 c 0,22,23
 565 235 565 235 818 235 c 0,24,25
 1403 235 1403 235 1403 333 c 0,26,27
 1403 351 1403 351 1352 417 c 0,28,29
 1331 445 1331 445 1314 465 c 128,-1,30
 1297 485 1297 485 1284 498 c 1,31,-1
 1415 663 l 2,32,33
 1423 674 1423 674 1426 676 c 128,-1,34
 1429 678 1429 678 1430 678 c 0,35,36
 1436 678 1436 678 1445 666 c 0,37,38
 1545 545 1545 545 1545 402 c 0,0,1
EndSplineSet
EndChar

StartChar: afii62888
Encoding: 1697 1697 125
Width: 1563
GlyphClass: 2
Flags: W
LayerCount: 2
Fore
SplineSet
1521 418 m 0,0,1
 1521 174 1521 174 1385 83 c 0,2,3
 1312 34 1312 34 1084 5 c 0,4,5
 908 -18 908 -18 765 -18 c 0,6,7
 507 -18 507 -18 373 41 c 0,8,9
 177 128 177 128 177 351 c 0,10,11
 177 450 177 450 229 545 c 0,12,13
 276 630 276 630 307 630 c 0,14,15
 345 630 345 630 345 588 c 0,16,17
 345 578 345 578 329.5 531 c 128,-1,18
 314 484 314 484 314 455 c 0,19,20
 314 297 314 297 489 254 c 0,21,22
 567 235 567 235 818 235 c 0,23,24
 1198 235 1198 235 1386 308 c 0,25,26
 1422 322 1422 322 1422 361 c 0,27,28
 1422 388 1422 388 1382 384 c 0,29,30
 1253 372 1253 372 1203 372 c 0,31,32
 1004 372 1004 372 1004 519 c 0,33,34
 1004 640 1004 640 1065 759 c 0,35,36
 1139 903 1139 903 1253 903 c 0,37,38
 1409 903 1409 903 1478 699 c 0,39,40
 1521 572 1521 572 1521 418 c 0,0,1
1370 568 m 1,41,42
 1342 637 1342 637 1285 673 c 0,43,44
 1242 700 1242 700 1206 700 c 0,45,46
 1175 700 1175 700 1149 678.5 c 128,-1,47
 1123 657 1123 657 1123 626 c 0,48,49
 1123 556 1123 556 1259 556 c 0,50,51
 1310 556 1310 556 1370 568 c 1,41,42
EndSplineSet
Substitution2: "'medi' Medial Forms in Arabic lookup 3 subtable" afii57374
Substitution2: "'fina' Terminal Forms in Arabic lookup 2 subtable" afii52258
Substitution2: "'init' Initial Forms in Arabic lookup 1 subtable" afii57459
EndChar

StartChar: afii57567
Encoding: 1705 1705 132
Width: 1744
GlyphClass: 2
Flags: W
AnchorPoint: "Anchor-3" 630 -540 basechar 0
AnchorPoint: "Anchor-2" 735 1155 basechar 0
LayerCount: 2
Fore
SplineSet
1795 1242 m 1,0,-1
 1753 1015 l 1,1,2
 1593 963 1593 963 1223 832 c 1,3,4
 1347 708 1347 708 1402 624 c 0,5,6
 1479 506 1479 506 1479 388 c 0,7,8
 1479 169 1479 169 1336 62 c 0,9,10
 1285 24 1285 24 1085 1 c 0,11,12
 921 -18 921 -18 765 -18 c 0,13,14
 485 -18 485 -18 365 34 c 0,15,16
 177 114 177 114 177 351 c 0,17,18
 177 450 177 450 229 545 c 0,19,20
 276 630 276 630 307 630 c 0,21,22
 345 630 345 630 345 588 c 0,23,24
 345 578 345 578 329.5 531 c 128,-1,25
 314 484 314 484 314 455 c 0,26,27
 314 295 314 295 469 254 c 0,28,29
 541 235 541 235 818 235 c 0,30,31
 1154 235 1154 235 1273 262 c 0,32,33
 1363 282 1363 282 1363 333 c 0,34,35
 1363 398 1363 398 1240 533 c 0,36,37
 1127 657 1127 657 1031 717 c 1,38,-1
 1080 975 l 1,39,40
 1307 1066 1307 1066 1795 1242 c 1,0,-1
EndSplineSet
Substitution2: "'medi' Medial Forms in Arabic lookup 3 subtable" afii52306
Substitution2: "'fina' Terminal Forms in Arabic lookup 2 subtable" afii62964
Substitution2: "'init' Initial Forms in Arabic lookup 1 subtable" afii52305
EndChar

StartChar: afii62964
Encoding: 64399 64399 133
Width: 2028
GlyphClass: 2
Flags: W
AnchorPoint: "Anchor-3" 735 -510 basechar 0
AnchorPoint: "Anchor-2" 750 1140 basechar 0
LayerCount: 2
Fore
SplineSet
2028 0 m 1,0,-1
 1898 0 l 2,1,2
 1801 0 1801 0 1693 91 c 0,3,4
 1630 144 1630 144 1474 319 c 1,5,6
 1467 159 1467 159 1336 61 c 0,7,8
 1285 23 1285 23 1085 0 c 0,9,10
 921 -19 921 -19 765 -19 c 0,11,12
 485 -19 485 -19 365 33 c 0,13,14
 177 113 177 113 177 350 c 0,15,16
 177 449 177 449 229 544 c 0,17,18
 276 629 276 629 307 629 c 0,19,20
 345 629 345 629 345 587 c 0,21,22
 345 577 345 577 329.5 530 c 128,-1,23
 314 483 314 483 314 454 c 0,24,25
 314 294 314 294 469 253 c 0,26,27
 541 234 541 234 818 234 c 0,28,29
 1154 234 1154 234 1273 261 c 0,30,31
 1363 281 1363 281 1363 332 c 0,32,33
 1363 397 1363 397 1240 532 c 0,34,35
 1127 656 1127 656 1031 716 c 1,36,-1
 1080 974 l 1,37,38
 1499 1141 1499 1141 1840 1252 c 1,39,-1
 1788 1024 l 1,40,41
 1611 968 1611 968 1223 831 c 1,42,43
 1375 686 1375 686 1555 496 c 0,44,45
 1691 352 1691 352 1743 313 c 0,46,47
 1817 257 1817 257 1897 257 c 2,48,-1
 2028 257 l 1,49,-1
 2028 0 l 1,0,-1
EndSplineSet
EndChar

StartChar: afii52305
Encoding: 64400 64400 134
Width: 777
GlyphClass: 2
Flags: W
AnchorPoint: "Anchor-3" 270 -495 basechar 0
AnchorPoint: "Anchor-2" 270 1245 basechar 0
LayerCount: 2
Fore
SplineSet
826 1241 m 1,0,-1
 784 1014 l 1,1,2
 624 962 624 962 254 831 c 1,3,4
 378 707 378 707 433 623 c 0,5,6
 510 505 510 505 510 387 c 0,7,8
 510 0 510 0 88 0 c 2,9,-1
 -70 0 l 1,10,-1
 -70 257 l 1,11,-1
 51 257 l 2,12,13
 263 257 263 257 336 276 c 0,14,15
 394 291 394 291 394 332 c 0,16,17
 394 397 394 397 271 532 c 0,18,19
 158 656 158 656 62 716 c 1,20,-1
 111 974 l 1,21,22
 338 1065 338 1065 826 1241 c 1,0,-1
EndSplineSet
EndChar

StartChar: afii52306
Encoding: 64401 64401 135
Width: 1083
GlyphClass: 2
Flags: W
AnchorPoint: "Anchor-3" 435 -495 basechar 0
AnchorPoint: "Anchor-2" 375 1290 basechar 0
LayerCount: 2
Fore
SplineSet
1083 0 m 1,0,-1
 929 0 l 2,1,2
 832 0 832 0 724 91 c 0,3,4
 661 144 661 144 505 319 c 1,5,6
 490 0 490 0 131 0 c 2,7,-1
 -70 0 l 1,8,-1
 -70 257 l 1,9,-1
 97 257 l 2,10,11
 394 257 394 257 394 332 c 0,12,13
 394 405 394 405 271 537 c 0,14,15
 164 652 164 652 62 716 c 1,16,-1
 111 974 l 1,17,18
 530 1141 530 1141 871 1252 c 1,19,-1
 819 1024 l 1,20,21
 642 968 642 968 254 831 c 1,22,23
 406 686 406 686 586 496 c 0,24,25
 722 352 722 352 774 313 c 0,26,27
 848 257 848 257 928 257 c 2,28,-1
 1083 257 l 1,29,-1
 1083 0 l 1,0,-1
EndSplineSet
EndChar

StartChar: afii57509
Encoding: 1711 1711 136
Width: 1736
GlyphClass: 2
Flags: W
AnchorPoint: "Anchor-3" 690 -525 basechar 0
AnchorPoint: "Anchor-2" 660 1170 basechar 0
LayerCount: 2
Fore
SplineSet
1767 1305 m 1,0,-1
 1746 1197 l 1,1,2
 1459 1129 1459 1129 1138 1033 c 1,3,-1
 1172 1145 l 1,4,5
 1442 1229 1442 1229 1767 1305 c 1,0,-1
1807 1107 m 1,6,-1
 1747 891 l 1,7,8
 1467 847 1467 847 1231 778 c 1,9,10
 1327 706 1327 706 1398 604 c 0,11,12
 1479 487 1479 487 1479 388 c 0,13,14
 1479 169 1479 169 1336 62 c 0,15,16
 1285 24 1285 24 1085 1 c 0,17,18
 921 -18 921 -18 765 -18 c 0,19,20
 485 -18 485 -18 365 34 c 0,21,22
 177 114 177 114 177 351 c 0,23,24
 177 450 177 450 229 545 c 0,25,26
 276 630 276 630 307 630 c 0,27,28
 345 630 345 630 345 588 c 0,29,30
 345 578 345 578 329.5 531 c 128,-1,31
 314 484 314 484 314 455 c 0,32,33
 314 295 314 295 469 254 c 0,34,35
 541 235 541 235 818 235 c 0,36,37
 1154 235 1154 235 1273 262 c 0,38,39
 1363 282 1363 282 1363 333 c 0,40,41
 1363 397 1363 397 1240 517 c 0,42,43
 1136 619 1136 619 1032 684 c 1,44,-1
 1075 912 l 1,45,46
 1280 989 1280 989 1807 1107 c 1,6,-1
EndSplineSet
Substitution2: "'medi' Medial Forms in Arabic lookup 3 subtable" afii62966
Substitution2: "'fina' Terminal Forms in Arabic lookup 2 subtable" afii62967
Substitution2: "'init' Initial Forms in Arabic lookup 1 subtable" afii62965
EndChar

StartChar: afii62967
Encoding: 64403 64403 137
Width: 2028
GlyphClass: 2
Flags: W
AnchorPoint: "Anchor-3" 780 -525 basechar 0
AnchorPoint: "Anchor-2" 690 1215 basechar 0
LayerCount: 2
Fore
SplineSet
1808 1314 m 1,0,-1
 1786 1207 l 1,1,2
 1492 1146 1492 1146 1140 1036 c 1,3,-1
 1174 1148 l 1,4,5
 1418 1223 1418 1223 1808 1314 c 1,0,-1
2028 0 m 1,6,-1
 1898 0 l 2,7,8
 1801 0 1801 0 1693 91 c 0,9,10
 1630 144 1630 144 1474 319 c 1,11,12
 1466 152 1466 152 1345 61 c 0,13,14
 1297 25 1297 25 1090 1 c 0,15,16
 917 -19 917 -19 765 -19 c 0,17,18
 485 -19 485 -19 365 33 c 0,19,20
 177 113 177 113 177 350 c 0,21,22
 177 449 177 449 229 544 c 0,23,24
 276 629 276 629 307 629 c 0,25,26
 345 629 345 629 345 587 c 0,27,28
 345 577 345 577 329.5 530 c 128,-1,29
 314 483 314 483 314 454 c 0,30,31
 314 294 314 294 469 253 c 0,32,33
 541 234 541 234 818 234 c 0,34,35
 1154 234 1154 234 1273 261 c 0,36,37
 1363 281 1363 281 1363 332 c 0,38,39
 1363 396 1363 396 1240 517 c 0,40,41
 1135 620 1135 620 1031 686 c 1,42,-1
 1080 921 l 1,43,44
 1562 1066 1562 1066 1849 1114 c 1,45,-1
 1783 897 l 1,46,47
 1465 847 1465 847 1223 781 c 1,48,49
 1378 651 1378 651 1551 484 c 0,50,51
 1693 347 1693 347 1740 313 c 0,52,53
 1817 257 1817 257 1897 257 c 2,54,-1
 2028 257 l 1,55,-1
 2028 0 l 1,6,-1
EndSplineSet
EndChar

StartChar: afii62965
Encoding: 64404 64404 138
Width: 777
GlyphClass: 2
Flags: W
AnchorPoint: "Anchor-3" 270 -450 basechar 0
AnchorPoint: "Anchor-2" 330 1410 basechar 0
LayerCount: 2
Fore
SplineSet
798 1304 m 1,0,-1
 777 1196 l 1,1,2
 440 1114 440 1114 169 1032 c 1,3,-1
 203 1144 l 1,4,5
 473 1228 473 1228 798 1304 c 1,0,-1
838 1106 m 1,6,-1
 778 890 l 1,7,8
 498 846 498 846 262 777 c 1,9,10
 358 705 358 705 429 603 c 0,11,12
 510 486 510 486 510 387 c 0,13,14
 510 178 510 178 402 86 c 0,15,16
 302 0 302 0 88 0 c 2,17,-1
 -70 0 l 1,18,-1
 -70 257 l 1,19,-1
 51 257 l 2,20,21
 263 257 263 257 336 276 c 0,22,23
 394 291 394 291 394 332 c 0,24,25
 394 396 394 396 272 516 c 0,26,27
 169 617 169 617 63 683 c 1,28,-1
 106 911 l 1,29,30
 311 988 311 988 838 1106 c 1,6,-1
EndSplineSet
EndChar

StartChar: afii62966
Encoding: 64405 64405 139
Width: 1057
GlyphClass: 2
Flags: W
AnchorPoint: "Anchor-3" 330 -555 basechar 0
AnchorPoint: "Anchor-2" 390 1365 basechar 0
LayerCount: 2
Fore
SplineSet
839 1314 m 1,0,-1
 817 1207 l 1,1,2
 423 1110 423 1110 171 1036 c 1,3,-1
 205 1148 l 1,4,5
 449 1223 449 1223 839 1314 c 1,0,-1
1057 0 m 1,6,-1
 929 0 l 2,7,8
 832 0 832 0 724 91 c 0,9,10
 661 144 661 144 505 319 c 1,11,12
 497 152 497 152 376 61 c 0,13,14
 338 33 338 33 220 15 c 0,15,16
 119 0 119 0 32 0 c 2,17,-1
 -70 0 l 1,18,-1
 -70 257 l 1,19,-1
 32 257 l 2,20,21
 394 257 394 257 394 332 c 0,22,23
 394 396 394 396 271 517 c 0,24,25
 166 620 166 620 62 686 c 1,26,-1
 111 921 l 1,27,28
 593 1066 593 1066 880 1114 c 1,29,-1
 814 897 l 1,30,31
 496 847 496 847 254 781 c 1,32,33
 409 651 409 651 582 484 c 0,34,35
 724 347 724 347 771 313 c 0,36,37
 848 257 848 257 928 257 c 2,38,-1
 1057 257 l 1,39,-1
 1057 0 l 1,6,-1
EndSplineSet
EndChar

StartChar: afii57555
Encoding: 1740 1740 140
Width: 1381
GlyphClass: 2
Flags: W
AnchorPoint: "Anchor-3" 660 -930 basechar 0
AnchorPoint: "Anchor-2" 660 840 basechar 0
LayerCount: 2
Fore
SplineSet
1374 488 m 0,0,1
 1376 474 1376 474 1377.5 464 c 128,-1,2
 1379 454 1379 454 1379 447 c 0,3,4
 1379 431 1379 431 1372 431 c 0,5,6
 1366 431 1366 431 1344 442 c 0,7,8
 1292 470 1292 470 1178 470 c 0,9,10
 1053 470 1053 470 961 384 c 0,11,12
 890 316 890 316 890 275 c 0,13,14
 890 227 890 227 966 205 c 0,15,16
 1001 194 1001 194 1122 177 c 0,17,18
 1182 169 1182 169 1220.5 155 c 128,-1,19
 1259 141 1259 141 1282 117 c 128,-1,20
 1305 93 1305 93 1314 58 c 128,-1,21
 1323 23 1323 23 1323 -26 c 0,22,23
 1323 -259 1323 -259 1153 -380.5 c 128,-1,24
 983 -502 983 -502 656 -502 c 0,25,26
 179 -502 179 -502 179 -109 c 0,27,28
 179 -31 179 -31 227 121 c 0,29,30
 282 298 282 298 340 298 c 0,31,32
 380 298 380 298 380 242 c 0,33,34
 380 240 380 240 372 215.5 c 128,-1,35
 364 191 364 191 349 145 c 0,36,37
 333 99 333 99 326 62.5 c 128,-1,38
 319 26 319 26 319 -1 c 0,39,40
 319 -254 319 -254 699 -254 c 0,41,42
 863 -254 863 -254 1009 -221 c 0,43,44
 1207 -176 1207 -176 1207 -95 c 0,45,46
 1207 -51 1207 -51 1091 -37 c 0,47,48
 923 -18 923 -18 875 1 c 0,49,50
 758 46 758 46 758 166 c 0,51,52
 758 300 758 300 876 481 c 0,53,54
 1008 684 1008 684 1157 684 c 0,55,56
 1254 684 1254 684 1320 600 c 0,57,58
 1364 544 1364 544 1374 488 c 0,0,1
EndSplineSet
Substitution2: "'medi' Medial Forms in Arabic lookup 3 subtable" afii62832
Substitution2: "'fina' Terminal Forms in Arabic lookup 2 subtable" afii52364
Substitution2: "'init' Initial Forms in Arabic lookup 1 subtable" uniFBFE
EndChar

StartChar: afii52364
Encoding: 64509 64509 141
Width: 1431
GlyphClass: 2
Flags: W
AnchorPoint: "Anchor-3" 645 -1050 basechar 0
AnchorPoint: "Anchor-2" 735 585 basechar 0
LayerCount: 2
Fore
SplineSet
1431 0 m 1,0,-1
 1371 0 l 2,1,2
 1317 0 1317 0 1209.5 15 c 128,-1,3
 1102 30 1102 30 1048 30 c 0,4,5
 1003 30 1003 30 962 18 c 0,6,7
 903 0 903 0 903 -35 c 0,8,9
 903 -56 903 -56 956 -63 c 0,10,11
 1002 -68 1002 -68 1093 -79 c 0,12,13
 1207 -93 1207 -93 1252 -115 c 0,14,15
 1310 -143 1310 -143 1310 -205 c 0,16,17
 1310 -414 1310 -414 1086 -507 c 0,18,19
 928 -572 928 -572 684 -572 c 0,20,21
 177 -572 177 -572 177 -201 c 0,22,23
 177 -100 177 -100 243 44 c 0,24,25
 306 182 306 182 342 182 c 0,26,27
 389 182 389 182 389 140 c 0,28,29
 389 133 389 133 361 57 c 128,-1,30
 333 -19 333 -19 333 -82 c 0,31,32
 333 -246 333 -246 497 -301 c 0,33,34
 598 -335 598 -335 824 -335 c 0,35,36
 901 -335 901 -335 1027 -313 c 0,37,38
 1179 -287 1179 -287 1179 -252 c 0,39,40
 1179 -235 1179 -235 1075 -227 c 0,41,42
 935 -217 935 -217 881 -201 c 0,43,44
 776 -171 776 -171 776 -99 c 0,45,46
 776 11 776 11 881 117 c 0,47,48
 1019 257 1019 257 1261 257 c 2,49,-1
 1431 257 l 1,50,-1
 1431 0 l 1,0,-1
EndSplineSet
EndChar

StartChar: afii62945
Encoding: 65557 -1 147
Width: 1675
GlyphClass: 3
Flags: W
LayerCount: 2
Fore
SplineSet
1634 335 m 0,0,1
 1634 134 1634 134 1526 45 c 0,2,3
 1453 -15 1453 -15 1348 -15 c 0,4,5
 1167 -15 1167 -15 1097 137 c 1,6,7
 1050 -16 1050 -16 894 -16 c 0,8,9
 760 -16 760 -16 690 64 c 0,10,11
 657 102 657 102 620 199 c 1,12,13
 591 146 591 146 537 84 c 1,14,15
 519 77 519 77 460 77 c 0,16,17
 357 77 357 77 282 99 c 0,18,19
 182 128 182 128 182 185 c 0,20,21
 182 280 182 280 216 326 c 0,22,23
 285 419 285 419 387 485 c 0,24,25
 435 516 435 516 544 559 c 1,26,-1
 532 662 l 1,27,-1
 650 758 l 2,28,29
 683 785 683 785 688 785 c 0,30,31
 694 785 694 785 699 745 c 0,32,33
 737 421 737 421 758 360 c 0,34,35
 799 238 799 238 920 238 c 0,36,37
 1015 238 1015 238 1015 363 c 0,38,39
 1015 376 1015 376 1013 396 c 0,40,41
 1000 526 1000 526 966 780 c 1,42,-1
 1154 890 l 1,43,44
 1196 468 1196 468 1218 381 c 0,45,46
 1254 239 1254 239 1353 239 c 0,47,48
 1441 239 1441 239 1441 368 c 0,49,50
 1441 447 1441 447 1360 842 c 1,51,-1
 1523 972 l 2,52,53
 1535 985 1535 985 1542 985 c 0,54,55
 1552 985 1552 985 1557 959 c 0,56,57
 1634 515 1634 515 1634 335 c 0,0,1
595 289 m 1,58,-1
 562 449 l 1,59,60
 367 379 367 379 336 307 c 1,61,62
 345 283 345 283 461 283 c 0,63,64
 523 283 523 283 595 289 c 1,58,-1
EndSplineSet
EndChar

StartChar: afii64184
Encoding: 65010 65010 148
Width: 1685
GlyphClass: 3
Flags: W
AnchorPoint: "Anchor-1" 1425 -390 baselig 0
AnchorPoint: "Anchor-0" 1440 1095 baselig 0
AnchorPoint: "Anchor-1" 960 -450 baselig 1
AnchorPoint: "Anchor-0" 1065 930 baselig 1
AnchorPoint: "Anchor-1" 465 -480 baselig 2
AnchorPoint: "Anchor-0" 375 780 baselig 2
LayerCount: 2
Fore
SplineSet
1041 1432 m 1,0,1
 1064 1381 1064 1381 1064 1317 c 0,2,3
 1064 1188 1064 1188 1002 1188 c 1,4,5
 1003 1203 1003 1203 1003 1218 c 0,6,7
 1003 1301 1003 1301 969 1367 c 1,8,-1
 1041 1432 l 1,0,1
1225 1057 m 0,9,10
 1225 1003 1225 1003 1202 964 c 0,11,12
 1175 916 1175 916 1125 916 c 0,13,14
 1073 916 1073 916 1042 942 c 1,15,16
 991 868 991 868 936 868 c 0,17,18
 851 868 851 868 851 979 c 0,19,20
 851 1013 851 1013 862 1047 c 0,21,22
 877 1094 877 1094 903 1094 c 0,23,24
 913 1094 913 1094 916 1033 c 0,25,26
 918 983 918 983 960 983 c 0,27,28
 998 983 998 983 1007.5 1053.5 c 128,-1,29
 1017 1124 1017 1124 1033 1124 c 0,30,31
 1052 1124 1052 1124 1066.5 1071 c 128,-1,32
 1081 1018 1081 1018 1119 1018 c 0,33,34
 1160 1018 1160 1018 1160 1064 c 0,35,36
 1160 1083 1160 1083 1150 1133 c 1,37,-1
 1206 1169 l 1,38,39
 1225 1133 1225 1133 1225 1057 c 0,9,10
1634 335 m 0,40,41
 1634 134 1634 134 1526 45 c 0,42,43
 1453 -15 1453 -15 1348 -15 c 0,44,45
 1167 -15 1167 -15 1097 137 c 1,46,47
 1050 -16 1050 -16 894 -16 c 0,48,49
 760 -16 760 -16 690 64 c 0,50,51
 657 102 657 102 620 199 c 1,52,53
 591 146 591 146 537 84 c 1,54,55
 519 77 519 77 460 77 c 0,56,57
 357 77 357 77 282 99 c 0,58,59
 182 128 182 128 182 185 c 0,60,61
 182 280 182 280 216 326 c 0,62,63
 285 419 285 419 387 485 c 0,64,65
 435 516 435 516 544 559 c 1,66,-1
 532 662 l 1,67,-1
 650 758 l 2,68,69
 683 785 683 785 688 785 c 0,70,71
 694 785 694 785 699 745 c 0,72,73
 737 421 737 421 758 360 c 0,74,75
 799 238 799 238 920 238 c 0,76,77
 1015 238 1015 238 1015 363 c 0,78,79
 1015 376 1015 376 1013 396 c 0,80,81
 1000 526 1000 526 972 745 c 1,82,-1
 1160 855 l 1,83,84
 1196 468 1196 468 1218 381 c 0,85,86
 1254 239 1254 239 1353 239 c 0,87,88
 1441 239 1441 239 1441 368 c 0,89,90
 1441 447 1441 447 1360 842 c 1,91,-1
 1523 972 l 2,92,93
 1535 985 1535 985 1542 985 c 0,94,95
 1552 985 1552 985 1557 959 c 0,96,97
 1634 515 1634 515 1634 335 c 0,40,41
595 289 m 1,98,-1
 562 449 l 1,99,100
 367 379 367 379 336 307 c 1,101,102
 345 283 345 283 461 283 c 0,103,104
 523 283 523 283 595 289 c 1,98,-1
EndSplineSet
Ligature2: "'rlig' Required Ligatures in Arabic lookup 5 subtable" afii62817 afii62818 uniFC63 afii62828
Ligature2: "'rlig' Required Ligatures in Arabic lookup 5 subtable" afii62817 afii62818 afii57457 uni0670 afii62828
EndChar

StartChar: afii57415.001
Encoding: 1575 1575 162
Width: 445
GlyphClass: 2
Flags: W
AnchorPoint: "Anchor-3" 315 -405 basechar 0
AnchorPoint: "Anchor-2" 315 1365 basechar 0
LayerCount: 2
Fore
SplineSet
396 227 m 2,0,1
 396 156 396 156 320 -5 c 0,2,3
 300 -47 300 -47 292 -47 c 0,4,5
 279 -47 279 -47 271 46 c 2,6,-1
 176 1102 l 1,7,-1
 360 1255 l 2,8,9
 378 1270 378 1270 386 1270 c 0,10,11
 396 1270 396 1270 396 1249 c 2,12,-1
 396 227 l 2,0,1
EndSplineSet
Substitution2: "'fina' Terminal Forms in Arabic lookup 2 subtable" afii62760
EndChar

StartChar: afii62760.001
Encoding: 65558 -1 163
Width: 581
GlyphClass: 2
Flags: W
LayerCount: 2
Fore
SplineSet
581 0 m 1,0,-1
 490 0 l 2,1,2
 431 0 431 0 383 23 c 128,-1,3
 335 46 335 46 300.5 89 c 128,-1,4
 266 132 266 132 247 194.5 c 128,-1,5
 228 257 228 257 228 335 c 0,6,7
 228 458 228 458 213 706 c 0,8,9
 196 986 196 986 180 1072 c 0,10,11
 179 1077 179 1077 178.5 1081.5 c 128,-1,12
 178 1086 178 1086 178 1090 c 0,13,14
 178 1104 178 1104 184 1110 c 2,15,-1
 349 1244 l 2,16,17
 379 1268 379 1268 384 1268 c 2,18,-1
 385 1267 l 2,19,20
 391 1265 391 1265 391 1239 c 2,21,-1
 389 398 l 2,22,23
 389 256 389 256 548 257 c 2,24,-1
 581 257 l 1,25,-1
 581 0 l 1,0,-1
EndSplineSet
EndChar

StartChar: afii57421
Encoding: 1581 1581 182
Width: 1257
GlyphClass: 2
Flags: W
AnchorPoint: "Anchor-3" 720 -990 basechar 0
AnchorPoint: "Anchor-2" 720 975 basechar 0
LayerCount: 2
Fore
SplineSet
1246 -382 m 0,0,1
 1136 -544 1136 -544 800 -544 c 0,2,3
 654 -544 654 -544 538.5 -514.5 c 128,-1,4
 423 -485 423 -485 342.5 -428.5 c 128,-1,5
 262 -372 262 -372 219.5 -289.5 c 128,-1,6
 177 -207 177 -207 177 -100 c 0,7,8
 177 96 177 96 353 254 c 0,9,10
 495 381 495 381 714 457 c 1,11,12
 493 502 493 502 439 502 c 0,13,14
 376 502 376 502 318 445 c 0,15,16
 259 389 259 389 254 389 c 0,17,18
 209 389 209 389 209 426 c 0,19,20
 209 447 209 447 222.5 481.5 c 128,-1,21
 236 516 236 516 254 550 c 128,-1,22
 272 584 272 584 289.5 611.5 c 128,-1,23
 307 639 307 639 314 648 c 0,24,25
 381 729 381 729 480 729 c 0,26,27
 489 729 489 729 521 724.5 c 128,-1,28
 553 720 553 720 597.5 713.5 c 128,-1,29
 642 707 642 707 694 699 c 128,-1,30
 746 691 746 691 794 683.5 c 128,-1,31
 842 676 842 676 881.5 670.5 c 128,-1,32
 921 665 921 665 940 663 c 0,33,34
 978 659 978 659 1014 657 c 128,-1,35
 1050 655 1050 655 1085 655 c 0,36,37
 1160 655 1160 655 1231 664 c 0,38,39
 1236 665 1236 665 1239.5 665 c 128,-1,40
 1243 665 1243 665 1246 665 c 0,41,42
 1256 665 1256 665 1256 662 c 0,43,44
 1255 655 1255 655 1245 632 c 2,45,-1
 1161 436 l 1,46,47
 1035 431 1035 431 891 412 c 0,48,49
 752 392 752 392 606 291 c 0,50,51
 409 154 409 154 409 -48 c 0,52,53
 409 -392 409 -392 900 -392 c 0,54,55
 1111 -392 1111 -392 1231 -356 c 0,56,57
 1240 -353 1240 -353 1245 -353 c 0,58,59
 1255 -353 1255 -353 1255 -363 c 0,60,61
 1255 -370 1255 -370 1246 -382 c 0,0,1
EndSplineSet
Substitution2: "'medi' Medial Forms in Arabic lookup 3 subtable" afii62775
Substitution2: "'fina' Terminal Forms in Arabic lookup 2 subtable" afii62776
Substitution2: "'init' Initial Forms in Arabic lookup 1 subtable" afii62774
EndChar

StartChar: afii62776
Encoding: 65186 65186 183
Width: 1374
GlyphClass: 2
Flags: W
AnchorPoint: "Anchor-3" 525 -1035 basechar 0
AnchorPoint: "Anchor-2" 690 1035 basechar 0
LayerCount: 2
Fore
SplineSet
1374 0 m 1,0,-1
 1258 0 l 2,1,2
 1087 0 1087 0 991 79 c 0,3,4
 887 165 887 165 887 333 c 0,5,6
 887 370 887 370 892 411 c 1,7,8
 733 377 733 377 604 288 c 0,9,10
 409 154 409 154 409 -49 c 0,11,12
 409 -393 409 -393 900 -393 c 0,13,14
 1111 -393 1111 -393 1231 -357 c 0,15,16
 1240 -354 1240 -354 1245 -354 c 0,17,18
 1252 -354 1252 -354 1254 -359 c 0,19,20
 1258 -366 1258 -366 1246 -383 c 0,21,22
 1136 -545 1136 -545 800 -545 c 0,23,24
 542 -545 542 -545 380 -454 c 0,25,26
 177 -339 177 -339 177 -101 c 0,27,28
 177 96 177 96 353 253 c 0,29,30
 494 379 494 379 714 456 c 1,31,32
 493 501 493 501 439 501 c 0,33,34
 377 501 377 501 318 444.5 c 128,-1,35
 259 388 259 388 254 388 c 0,36,37
 209 388 209 388 209 425 c 0,38,39
 209 457 209 457 238 516 c 0,40,41
 286 613 286 613 314 647 c 0,42,43
 382 728 382 728 480 728 c 0,44,45
 513 728 513 728 655 704 c 0,46,47
 845 672 845 672 940 662 c 0,48,49
 1098 646 1098 646 1231 663 c 0,50,51
 1260 667 1260 667 1260 660 c 0,52,53
 1260 655 1260 655 1249 631 c 2,54,-1
 1161 435 l 1,55,56
 1085 435 1085 435 995 425 c 1,57,58
 995 309 995 309 1097 274 c 0,59,60
 1146 257 1146 257 1268 257 c 2,61,-1
 1374 257 l 1,62,-1
 1374 0 l 1,0,-1
EndSplineSet
EndChar

StartChar: afii62774
Encoding: 65187 65187 184
Width: 1148
GlyphClass: 2
Flags: W
AnchorPoint: "Anchor-3" 360 -570 basechar 0
AnchorPoint: "Anchor-2" 510 990 basechar 0
LayerCount: 2
Fore
SplineSet
1113 467 m 2,0,-1
 984 282 l 1,1,2
 855 282 855 282 705 209 c 0,3,4
 614 162 614 162 430 73 c 1,5,6
 267 0 267 0 58 0 c 2,7,-1
 -70 0 l 1,8,-1
 -70 257 l 1,9,-1
 85 257 l 2,10,11
 298 257 298 257 430 288 c 0,12,13
 539 314 539 314 673 382 c 1,14,15
 620 402 620 402 514 443 c 0,16,17
 387 491 387 491 334 491 c 0,18,19
 275 491 275 491 217.5 440.5 c 128,-1,20
 160 390 160 390 149 390 c 0,21,22
 109 390 109 390 109 435 c 0,23,24
 109 465 109 465 138 517 c 0,25,26
 248 712 248 712 384 712 c 0,27,28
 449 712 449 712 693.5 601.5 c 128,-1,29
 938 491 938 491 1067 491 c 0,30,31
 1119 491 1119 491 1119 481 c 0,32,33
 1118 474 1118 474 1113 467 c 2,0,-1
EndSplineSet
EndChar

StartChar: afii62775
Encoding: 65188 65188 185
Width: 1234
GlyphClass: 2
Flags: W
AnchorPoint: "Anchor-3" 480 -510 basechar 0
AnchorPoint: "Anchor-2" 660 1125 basechar 0
LayerCount: 2
Fore
SplineSet
1234 0 m 1,0,-1
 1061 0 l 2,1,2
 733 0 733 0 733 308 c 1,3,4
 400 0 400 0 55 0 c 2,5,-1
 -70 0 l 1,6,-1
 -70 257 l 1,7,-1
 82 257 l 2,8,9
 263 257 263 257 395 304 c 0,10,11
 486 337 486 337 677 448 c 1,12,13
 444 529 444 529 332 529 c 0,14,15
 273 529 273 529 215.5 469.5 c 128,-1,16
 158 410 158 410 147 410 c 0,17,18
 109 410 109 410 109 445 c 0,19,20
 109 483 109 483 126 517 c 0,21,22
 242 751 242 751 394 751 c 0,23,24
 462 751 462 751 678 680.5 c 128,-1,25
 894 610 894 610 1034 610 c 0,26,27
 1113 610 1113 610 1113 603 c 0,28,29
 1112 601 1112 601 1106 587 c 2,30,-1
 1021 404 l 1,31,32
 910 404 910 404 837 374 c 1,33,34
 837 297 837 297 926 271 c 0,35,36
 975 257 975 257 1080 257 c 2,37,-1
 1234 257 l 1,38,-1
 1234 0 l 1,0,-1
EndSplineSet
EndChar

StartChar: afii57423
Encoding: 1583 1583 190
Width: 895
GlyphClass: 2
Flags: W
AnchorPoint: "Anchor-3" 465 -495 basechar 0
AnchorPoint: "Anchor-2" 480 1155 basechar 0
LayerCount: 2
Fore
SplineSet
891 364 m 0,0,1
 891 1 891 1 437 1 c 0,2,3
 177 1 177 1 177 244 c 0,4,5
 177 267 177 267 180 292 c 0,6,7
 196 425 196 425 252 425 c 0,8,9
 284 425 284 425 288 379 c 0,10,11
 293 316 293 316 314 292 c 0,12,13
 354 246 354 246 476 246 c 0,14,15
 553 246 553 246 642 261 c 0,16,17
 773 283 773 283 773 327 c 0,18,19
 773 406 773 406 633 523 c 0,20,21
 507 629 507 629 425 651 c 1,22,-1
 485 875 l 2,23,24
 491 898 491 898 498 898 c 0,25,26
 504 898 504 898 520 888 c 0,27,28
 665 796 665 796 768 666 c 0,29,30
 891 509 891 509 891 364 c 0,0,1
EndSplineSet
Substitution2: "'fina' Terminal Forms in Arabic lookup 2 subtable" afii62780
PairPos2: "'kern' Horizontal Kerning in Arabic lookup 0 subtable" afii57410 dx=0 dy=0 dh=0 dv=0 dx=0 dy=0 dh=-100 dv=0
PairPos2: "'kern' Horizontal Kerning in Arabic lookup 0 subtable" afii57434 dx=0 dy=0 dh=0 dv=0 dx=0 dy=0 dh=-70 dv=0
PairPos2: "'kern' Horizontal Kerning in Arabic lookup 0 subtable" afii57433 dx=0 dy=0 dh=0 dv=0 dx=0 dy=0 dh=-70 dv=0
PairPos2: "'kern' Horizontal Kerning in Arabic lookup 0 subtable" afii62965 dx=0 dy=0 dh=0 dv=0 dx=0 dy=0 dh=-100 dv=0
PairPos2: "'kern' Horizontal Kerning in Arabic lookup 0 subtable" afii57509 dx=0 dy=0 dh=0 dv=0 dx=0 dy=0 dh=-100 dv=0
PairPos2: "'kern' Horizontal Kerning in Arabic lookup 0 subtable" afii52305 dx=0 dy=0 dh=0 dv=0 dx=0 dy=0 dh=-100 dv=0
PairPos2: "'kern' Horizontal Kerning in Arabic lookup 0 subtable" afii57567 dx=0 dy=0 dh=0 dv=0 dx=0 dy=0 dh=-100 dv=0
EndChar

StartChar: afii62780
Encoding: 65194 65194 191
Width: 1141
GlyphClass: 2
Flags: W
AnchorPoint: "Anchor-3" 360 -510 basechar 0
AnchorPoint: "Anchor-2" 435 1050 basechar 0
LayerCount: 2
Fore
SplineSet
1141 0 m 1,0,-1
 1060 0 l 2,1,2
 917 0 917 0 818 184 c 1,3,4
 735 80 735 80 683 50 c 0,5,6
 597 0 597 0 431 0 c 0,7,8
 180 0 180 0 180 232 c 0,9,10
 180 267 180 267 188 309 c 0,11,12
 212 436 212 436 269 436 c 0,13,14
 301 436 301 436 302 386 c 0,15,16
 304 319 304 319 321 294 c 0,17,18
 355 245 355 245 469 245 c 0,19,20
 747 245 747 245 747 351 c 0,21,22
 747 418 747 418 607 715 c 1,23,-1
 720 864 l 2,24,25
 733 882 733 882 736 882 c 0,26,27
 743 882 743 882 753 855 c 2,28,-1
 927 391 l 2,29,30
 980 254 980 254 1070 257 c 2,31,-1
 1141 257 l 1,32,-1
 1141 0 l 1,0,-1
EndSplineSet
PairPos2: "'kern' Horizontal Kerning in Arabic lookup 0 subtable" afii57410 dx=0 dy=0 dh=0 dv=0 dx=0 dy=0 dh=-100 dv=0
PairPos2: "'kern' Horizontal Kerning in Arabic lookup 0 subtable" afii57434 dx=0 dy=0 dh=0 dv=0 dx=0 dy=0 dh=-70 dv=0
PairPos2: "'kern' Horizontal Kerning in Arabic lookup 0 subtable" afii57433 dx=0 dy=0 dh=0 dv=0 dx=0 dy=0 dh=-70 dv=0
PairPos2: "'kern' Horizontal Kerning in Arabic lookup 0 subtable" afii62965 dx=0 dy=0 dh=0 dv=0 dx=0 dy=0 dh=-100 dv=0
PairPos2: "'kern' Horizontal Kerning in Arabic lookup 0 subtable" afii57509 dx=0 dy=0 dh=0 dv=0 dx=0 dy=0 dh=-100 dv=0
PairPos2: "'kern' Horizontal Kerning in Arabic lookup 0 subtable" afii52305 dx=0 dy=0 dh=0 dv=0 dx=0 dy=0 dh=-100 dv=0
PairPos2: "'kern' Horizontal Kerning in Arabic lookup 0 subtable" afii57567 dx=0 dy=0 dh=0 dv=0 dx=0 dy=0 dh=-100 dv=0
EndChar

StartChar: afii57425
Encoding: 1585 1585 194
Width: 769
GlyphClass: 2
Flags: W
AnchorPoint: "Anchor-3" 300 -960 basechar 0
AnchorPoint: "Anchor-2" 465 795 basechar 0
LayerCount: 2
Fore
SplineSet
767 70 m 0,0,1
 767 -91 767 -91 702 -232 c 0,2,3
 655 -332 655 -332 577 -413 c 0,4,5
 519 -474 519 -474 505 -474 c 0,6,7
 236 -474 236 -474 106 -423 c 0,8,9
 91 -419 91 -419 91 -412 c 0,10,11
 91 -408 91 -408 104 -403 c 0,12,13
 290 -336 290 -336 452 -211 c 0,14,15
 639 -67 639 -67 639 48 c 0,16,17
 639 96 639 96 571 182 c 0,18,19
 513 255 513 255 460 295 c 1,20,-1
 557 500 l 2,21,22
 562 511 562 511 569 511 c 0,23,24
 572 511 572 511 581 504 c 0,25,26
 767 318 767 318 767 70 c 0,0,1
EndSplineSet
Substitution2: "'fina' Terminal Forms in Arabic lookup 2 subtable" afii62782
PairPos2: "'kern' Horizontal Kerning in Arabic lookup 1 subtable" afii57470 dx=0 dy=0 dh=0 dv=0 dx=0 dy=0 dh=-100 dv=0
PairPos2: "'kern' Horizontal Kerning in Arabic lookup 1 subtable" afii62840 dx=0 dy=0 dh=0 dv=0 dx=0 dy=0 dh=-200 dv=0
PairPos2: "'kern' Horizontal Kerning in Arabic lookup 1 subtable" afii62838 dx=0 dy=0 dh=0 dv=0 dx=0 dy=0 dh=-200 dv=0
PairPos2: "'kern' Horizontal Kerning in Arabic lookup 1 subtable" afii62836 dx=0 dy=0 dh=0 dv=0 dx=0 dy=0 dh=-200 dv=0
PairPos2: "'kern' Horizontal Kerning in Arabic lookup 1 subtable" afii62834 dx=0 dy=0 dh=0 dv=0 dx=0 dy=0 dh=-200 dv=0
PairPos2: "'kern' Horizontal Kerning in Arabic lookup 0 subtable" afii57415 dx=0 dy=0 dh=0 dv=0 dx=0 dy=0 dh=-100 dv=0
PairPos2: "'kern' Horizontal Kerning in Arabic lookup 0 subtable" afii62831 dx=0 dy=0 dh=0 dv=0 dx=0 dy=0 dh=60 dv=0
PairPos2: "'kern' Horizontal Kerning in Arabic lookup 0 subtable" afii57444 dx=0 dy=0 dh=0 dv=0 dx=0 dy=0 dh=-50 dv=0
PairPos2: "'kern' Horizontal Kerning in Arabic lookup 0 subtable" afii57410 dx=0 dy=0 dh=0 dv=0 dx=0 dy=0 dh=-280 dv=0
PairPos2: "'kern' Horizontal Kerning in Arabic lookup 0 subtable" afii62761 dx=0 dy=0 dh=0 dv=0 dx=0 dy=0 dh=-100 dv=0
PairPos2: "'kern' Horizontal Kerning in Arabic lookup 0 subtable" afii57415.001 dx=0 dy=0 dh=0 dv=0 dx=0 dy=0 dh=-100 dv=0
PairPos2: "'kern' Horizontal Kerning in Arabic lookup 0 subtable" afii62965 dx=0 dy=0 dh=0 dv=0 dx=0 dy=0 dh=-280 dv=0
PairPos2: "'kern' Horizontal Kerning in Arabic lookup 0 subtable" afii57509 dx=0 dy=0 dh=0 dv=0 dx=0 dy=0 dh=-280 dv=0
PairPos2: "'kern' Horizontal Kerning in Arabic lookup 0 subtable" afii52305 dx=0 dy=0 dh=0 dv=0 dx=0 dy=0 dh=-280 dv=0
PairPos2: "'kern' Horizontal Kerning in Arabic lookup 0 subtable" afii57567 dx=0 dy=0 dh=0 dv=0 dx=0 dy=0 dh=-280 dv=0
PairPos2: "'kern' Horizontal Kerning in Arabic lookup 0 subtable" afii62956 dx=0 dy=0 dh=0 dv=0 dx=0 dy=0 dh=60 dv=0
EndChar

StartChar: afii62782
Encoding: 65198 65198 195
Width: 928
GlyphClass: 2
Flags: W
AnchorPoint: "Anchor-3" 345 -1005 basechar 0
AnchorPoint: "Anchor-2" 435 750 basechar 0
LayerCount: 2
Fore
SplineSet
928 0 m 1,0,-1
 910 0 l 2,1,2
 814 0 814 0 760 26 c 1,3,4
 760 -278 760 -278 576 -456 c 0,5,6
 520 -510 520 -510 505 -510 c 0,7,8
 238 -510 238 -510 106 -459 c 0,9,10
 92 -453 92 -453 92 -449 c 256,11,12
 92 -445 92 -445 104 -440 c 0,13,14
 284 -373 284 -373 455 -245 c 0,15,16
 645 -103 645 -103 645 1 c 0,17,18
 645 21 645 21 630.5 50 c 128,-1,19
 616 79 616 79 591 113 c 128,-1,20
 566 147 566 147 533 182 c 128,-1,21
 500 217 500 217 463 249 c 1,22,-1
 568 461 l 2,23,24
 572 470 572 470 578 470 c 0,25,26
 582 470 582 470 590 461 c 0,27,28
 740 257 740 257 867 257 c 2,29,-1
 928 257 l 1,30,-1
 928 0 l 1,0,-1
EndSplineSet
PairPos2: "'kern' Horizontal Kerning in Arabic lookup 1 subtable" afii57470 dx=0 dy=0 dh=0 dv=0 dx=0 dy=0 dh=-100 dv=0
PairPos2: "'kern' Horizontal Kerning in Arabic lookup 1 subtable" afii62840 dx=0 dy=0 dh=0 dv=0 dx=0 dy=0 dh=-200 dv=0
PairPos2: "'kern' Horizontal Kerning in Arabic lookup 1 subtable" afii62838 dx=0 dy=0 dh=0 dv=0 dx=0 dy=0 dh=-200 dv=0
PairPos2: "'kern' Horizontal Kerning in Arabic lookup 1 subtable" afii62836 dx=0 dy=0 dh=0 dv=0 dx=0 dy=0 dh=-200 dv=0
PairPos2: "'kern' Horizontal Kerning in Arabic lookup 1 subtable" afii62834 dx=0 dy=0 dh=0 dv=0 dx=0 dy=0 dh=-200 dv=0
PairPos2: "'kern' Horizontal Kerning in Arabic lookup 0 subtable" afii62831 dx=0 dy=0 dh=0 dv=0 dx=0 dy=0 dh=60 dv=0
PairPos2: "'kern' Horizontal Kerning in Arabic lookup 0 subtable" afii57444 dx=0 dy=0 dh=0 dv=0 dx=0 dy=0 dh=-50 dv=0
PairPos2: "'kern' Horizontal Kerning in Arabic lookup 0 subtable" afii57410 dx=0 dy=0 dh=0 dv=0 dx=0 dy=0 dh=-280 dv=0
PairPos2: "'kern' Horizontal Kerning in Arabic lookup 0 subtable" afii62761 dx=0 dy=0 dh=0 dv=0 dx=0 dy=0 dh=-100 dv=0
PairPos2: "'kern' Horizontal Kerning in Arabic lookup 0 subtable" afii62965 dx=0 dy=0 dh=0 dv=0 dx=0 dy=0 dh=-280 dv=0
PairPos2: "'kern' Horizontal Kerning in Arabic lookup 0 subtable" afii57509 dx=0 dy=0 dh=0 dv=0 dx=0 dy=0 dh=-280 dv=0
PairPos2: "'kern' Horizontal Kerning in Arabic lookup 0 subtable" afii52305 dx=0 dy=0 dh=0 dv=0 dx=0 dy=0 dh=-280 dv=0
PairPos2: "'kern' Horizontal Kerning in Arabic lookup 0 subtable" afii57567 dx=0 dy=0 dh=0 dv=0 dx=0 dy=0 dh=-280 dv=0
PairPos2: "'kern' Horizontal Kerning in Arabic lookup 0 subtable" afii62956 dx=0 dy=0 dh=0 dv=0 dx=0 dy=0 dh=60 dv=0
EndChar

StartChar: afii57427
Encoding: 1587 1587 198
Width: 1876
GlyphClass: 2
Flags: W
AnchorPoint: "Anchor-3" 1125 -810 basechar 0
AnchorPoint: "Anchor-2" 1260 915 basechar 0
LayerCount: 2
Fore
SplineSet
1845 383 m 0,0,1
 1845 244 1845 244 1788 136 c 0,2,3
 1717 1 1717 1 1586 1 c 0,4,5
 1471 1 1471 1 1396 129 c 1,6,7
 1324 2 1324 2 1222 2 c 0,8,9
 1186 2 1186 2 1146 16 c 1,10,11
 1153 -35 1153 -35 1153 -82 c 0,12,13
 1153 -325 1153 -325 970 -441 c 0,14,15
 818 -538 818 -538 560 -538 c 0,16,17
 329 -538 329 -538 216 -411 c 0,18,19
 125 -309 125 -309 125 -153 c 0,20,21
 125 -74 125 -74 173 77 c 0,22,23
 229 254 229 254 286 254 c 0,24,25
 326 254 326 254 326 198 c 0,26,27
 326 193 326 193 295.5 101 c 128,-1,28
 265 9 265 9 265 -45 c 0,29,30
 265 -187 265 -187 378 -244 c 0,31,32
 460 -285 460 -285 621 -285 c 0,33,34
 779 -285 779 -285 908 -236 c 0,35,36
 1056 -180 1056 -180 1056 -90 c 0,37,38
 1056 -34 1056 -34 969 86 c 0,39,40
 895 188 895 188 836 240 c 1,41,-1
 935 442 l 2,42,43
 946 464 946 464 961 442 c 0,44,45
 1088 258 1088 258 1208 258 c 0,46,47
 1281 258 1281 258 1312 318 c 0,48,49
 1319 331 1319 331 1343 429 c 0,50,51
 1358 489 1358 489 1393 489 c 0,52,53
 1426 489 1426 489 1439 428 c 0,54,55
 1458 340 1458 340 1474 314 c 0,56,57
 1512 253 1512 253 1605 253 c 0,58,59
 1717 253 1717 253 1717 337 c 0,60,61
 1717 379 1717 379 1631 486 c 1,62,-1
 1722 627 l 2,63,64
 1739 654 1739 654 1742 655 c 0,65,66
 1748 652 1748 652 1762 634 c 0,67,68
 1787 602 1787 602 1812 538 c 0,69,70
 1845 453 1845 453 1845 383 c 0,0,1
EndSplineSet
Substitution2: "'medi' Medial Forms in Arabic lookup 3 subtable" afii62785
Substitution2: "'fina' Terminal Forms in Arabic lookup 2 subtable" afii62786
Substitution2: "'init' Initial Forms in Arabic lookup 1 subtable" afii62784
EndChar

StartChar: afii62786
Encoding: 65202 65202 199
Width: 2047
GlyphClass: 2
Flags: W
AnchorPoint: "Anchor-3" 1170 -855 basechar 0
AnchorPoint: "Anchor-2" 1350 855 basechar 0
LayerCount: 2
Fore
SplineSet
2047 0 m 1,0,-1
 1953 0 l 2,1,2
 1881 0 1881 0 1833 37 c 0,3,4
 1795 66 1795 66 1754 137 c 1,5,6
 1676 0 1676 0 1575 0 c 0,7,8
 1446 0 1446 0 1401 128 c 1,9,10
 1346 1 1346 1 1233 1 c 0,11,12
 1197 1 1197 1 1156 15 c 1,13,14
 1163 -36 1163 -36 1163 -83 c 0,15,16
 1163 -326 1163 -326 980 -442 c 0,17,18
 828 -539 828 -539 570 -539 c 0,19,20
 339 -539 339 -539 226 -412 c 0,21,22
 135 -310 135 -310 135 -154 c 0,23,24
 135 -75 135 -75 183 76 c 0,25,26
 239 253 239 253 296 253 c 0,27,28
 336 253 336 253 336 197 c 0,29,30
 336 192 336 192 305.5 100 c 128,-1,31
 275 8 275 8 275 -46 c 0,32,33
 275 -188 275 -188 388 -245 c 0,34,35
 470 -286 470 -286 631 -286 c 0,36,37
 789 -286 789 -286 918 -237 c 0,38,39
 1066 -181 1066 -181 1066 -91 c 0,40,41
 1066 -35 1066 -35 979 85 c 0,42,43
 905 187 905 187 846 239 c 1,44,-1
 945 441 l 2,45,46
 956 463 956 463 971 441 c 0,47,48
 1099 256 1099 256 1218 256 c 0,49,50
 1286 256 1286 256 1314 316 c 0,51,52
 1315 318 1315 318 1344 428 c 0,53,54
 1360 488 1360 488 1399 488 c 0,55,56
 1433 488 1433 488 1445 428 c 0,57,58
 1464 332 1464 332 1472 316 c 0,59,60
 1501 256 1501 256 1575 256 c 0,61,62
 1645 256 1645 256 1675 316 c 0,63,64
 1679 324 1679 324 1706 428 c 0,65,66
 1722 488 1722 488 1760 488 c 0,67,68
 1793 488 1793 488 1805 428 c 0,69,70
 1823 341 1823 341 1838 317 c 0,71,72
 1875 257 1875 257 1971 257 c 2,73,-1
 2047 257 l 1,74,-1
 2047 0 l 1,0,-1
EndSplineSet
EndChar

StartChar: afii62784
Encoding: 65203 65203 200
Width: 1224
GlyphClass: 2
Flags: W
AnchorPoint: "Anchor-3" 510 -630 basechar 0
AnchorPoint: "Anchor-2" 720 975 basechar 0
LayerCount: 2
Fore
SplineSet
1221 382 m 0,0,1
 1221 243 1221 243 1165 135 c 0,2,3
 1095 0 1095 0 963 0 c 0,4,5
 839 0 839 0 758 137 c 1,6,7
 681 0 681 0 562 0 c 0,8,9
 434 0 434 0 356 137 c 1,10,11
 276 0 276 0 113 0 c 2,12,-1
 -70 0 l 1,13,-1
 -70 257 l 1,14,-1
 138 257 l 2,15,16
 227 257 227 257 265 317 c 0,17,18
 280 340 280 340 301 428 c 0,19,20
 316 488 316 488 350 488 c 0,21,22
 387 488 387 488 401 428 c 0,23,24
 423 334 423 334 433 316 c 0,25,26
 466 256 466 256 553 256 c 0,27,28
 639 256 639 256 675 316 c 0,29,30
 686 334 686 334 711 428 c 0,31,32
 727 488 727 488 765 488 c 0,33,34
 798 488 798 488 811 427 c 0,35,36
 830 333 830 333 842 313 c 0,37,38
 877 252 877 252 967 252 c 0,39,40
 1092 252 1092 252 1092 336 c 0,41,42
 1092 378 1092 378 1007 485 c 1,43,-1
 1098 626 l 2,44,45
 1115 653 1115 653 1118 654 c 0,46,47
 1124 651 1124 651 1138 633 c 0,48,49
 1163 600 1163 600 1188 537 c 0,50,51
 1221 454 1221 454 1221 382 c 0,0,1
EndSplineSet
EndChar

StartChar: afii62785
Encoding: 65204 65204 201
Width: 1458
GlyphClass: 2
Flags: W
AnchorPoint: "Anchor-3" 675 -630 basechar 0
AnchorPoint: "Anchor-2" 780 930 basechar 0
LayerCount: 2
Fore
SplineSet
1458 0 m 1,0,-1
 1371 0 l 2,1,2
 1244 0 1244 0 1164 137 c 1,3,4
 1086 0 1086 0 957 0 c 0,5,6
 839 0 839 0 758 137 c 1,7,8
 681 0 681 0 562 0 c 0,9,10
 434 0 434 0 356 137 c 1,11,12
 276 0 276 0 113 0 c 2,13,-1
 -70 0 l 1,14,-1
 -70 257 l 1,15,-1
 138 257 l 2,16,17
 227 257 227 257 265 317 c 0,18,19
 280 340 280 340 301 428 c 0,20,21
 316 488 316 488 350 488 c 0,22,23
 387 488 387 488 401 428 c 0,24,25
 423 334 423 334 433 316 c 0,26,27
 466 256 466 256 553 256 c 0,28,29
 639 256 639 256 675 316 c 0,30,31
 686 334 686 334 711 428 c 0,32,33
 727 488 727 488 765 488 c 0,34,35
 798 488 798 488 811 428 c 0,36,37
 830 336 830 336 842 316 c 0,38,39
 877 256 877 256 967 256 c 0,40,41
 1044 256 1044 256 1078 316 c 0,42,43
 1085 329 1085 329 1114 428 c 0,44,45
 1131 488 1131 488 1170 488 c 0,46,47
 1203 488 1203 488 1215 428 c 0,48,49
 1232 342 1232 342 1248 317 c 0,50,51
 1286 257 1286 257 1381 257 c 2,52,-1
 1458 257 l 1,53,-1
 1458 0 l 1,0,-1
EndSplineSet
EndChar

StartChar: afii57429
Encoding: 1589 1589 206
Width: 1902
GlyphClass: 2
Flags: W
AnchorPoint: "Anchor-3" 1020 -855 basechar 0
AnchorPoint: "Anchor-2" 1110 840 basechar 0
LayerCount: 2
Fore
SplineSet
1875 458 m 0,0,1
 1875 310 1875 310 1752 172 c 0,2,3
 1599 1 1599 1 1350 1 c 0,4,5
 1225 1 1225 1 1121 37 c 1,6,7
 1134 -25 1134 -25 1134 -84 c 0,8,9
 1134 -316 1134 -316 963 -435 c 0,10,11
 814 -538 814 -538 571 -538 c 0,12,13
 340 -538 340 -538 227 -411 c 0,14,15
 136 -309 136 -309 136 -153 c 0,16,17
 136 -74 136 -74 184 77 c 0,18,19
 240 254 240 254 297 254 c 0,20,21
 337 254 337 254 337 198 c 0,22,23
 337 193 337 193 306.5 101 c 128,-1,24
 276 9 276 9 276 -45 c 0,25,26
 276 -187 276 -187 389 -244 c 0,27,28
 471 -285 471 -285 632 -285 c 0,29,30
 790 -285 790 -285 905 -233 c 0,31,32
 1040 -172 1040 -172 1040 -66 c 0,33,34
 1040 -11 1040 -11 958 101 c 0,35,36
 889 195 889 195 829 247 c 1,37,-1
 922 440 l 2,38,39
 937 470 937 470 954 442 c 0,40,41
 1014 344 1014 344 1102 278 c 1,42,43
 1410 679 1410 679 1629 679 c 0,44,45
 1731 679 1731 679 1801 620 c 0,46,47
 1875 558 1875 558 1875 458 c 0,0,1
1713 347 m 0,48,49
 1713 409 1713 409 1647 444 c 0,50,51
 1594 473 1594 473 1526 473 c 0,52,53
 1397 473 1397 473 1206 255 c 1,54,55
 1289 249 1289 249 1361 249 c 0,56,57
 1535 249 1535 249 1635 286 c 0,58,59
 1713 315 1713 315 1713 347 c 0,48,49
EndSplineSet
Substitution2: "'medi' Medial Forms in Arabic lookup 3 subtable" afii62791
Substitution2: "'fina' Terminal Forms in Arabic lookup 2 subtable" afii62792
Substitution2: "'init' Initial Forms in Arabic lookup 1 subtable" afii62790
EndChar

StartChar: afii62792
Encoding: 65210 65210 207
Width: 1982
GlyphClass: 2
Flags: W
AnchorPoint: "Anchor-3" 1155 -810 basechar 0
AnchorPoint: "Anchor-2" 1140 885 basechar 0
LayerCount: 2
Fore
SplineSet
1982 0 m 1,0,-1
 1884 0 l 2,1,2
 1740 0 1740 0 1692 116 c 1,3,4
 1554 0 1554 0 1356 0 c 0,5,6
 1211 0 1211 0 1115 36 c 1,7,8
 1128 -26 1128 -26 1128 -85 c 0,9,10
 1128 -317 1128 -317 957 -436 c 0,11,12
 808 -539 808 -539 565 -539 c 0,13,14
 334 -539 334 -539 221 -412 c 0,15,16
 130 -310 130 -310 130 -154 c 0,17,18
 130 -75 130 -75 178 76 c 0,19,20
 234 253 234 253 291 253 c 0,21,22
 331 253 331 253 331 197 c 0,23,24
 331 192 331 192 300.5 100 c 128,-1,25
 270 8 270 8 270 -46 c 0,26,27
 270 -188 270 -188 383 -245 c 0,28,29
 465 -286 465 -286 626 -286 c 0,30,31
 784 -286 784 -286 899 -234 c 0,32,33
 1034 -173 1034 -173 1034 -67 c 0,34,35
 1034 -12 1034 -12 952 100 c 0,36,37
 883 194 883 194 823 246 c 1,38,-1
 916 439 l 2,39,40
 931 469 931 469 948 441 c 0,41,42
 1008 343 1008 343 1096 277 c 1,43,44
 1404 678 1404 678 1623 678 c 0,45,46
 1725 678 1725 678 1795 619 c 0,47,48
 1869 557 1869 557 1869 457 c 0,49,50
 1869 354 1869 354 1813 257 c 1,51,-1
 1982 257 l 1,52,-1
 1982 0 l 1,0,-1
1707 346 m 0,53,54
 1707 408 1707 408 1641 443 c 0,55,56
 1588 472 1588 472 1520 472 c 0,57,58
 1391 472 1391 472 1200 254 c 1,59,60
 1283 248 1283 248 1355 248 c 0,61,62
 1529 248 1529 248 1629 285 c 0,63,64
 1707 314 1707 314 1707 346 c 0,53,54
EndSplineSet
EndChar

StartChar: afii62790
Encoding: 65211 65211 208
Width: 1268
GlyphClass: 2
Flags: W
AnchorPoint: "Anchor-3" 420 -630 basechar 0
AnchorPoint: "Anchor-2" 510 990 basechar 0
LayerCount: 2
Fore
SplineSet
1261 457 m 0,0,1
 1261 269 1261 269 1120 148 c 0,2,3
 950 3 950 3 616 3 c 0,4,5
 496 3 496 3 427 25 c 0,6,7
 333 55 333 55 277 136 c 1,8,9
 194 0 194 0 48 0 c 2,10,-1
 -70 0 l 1,11,-1
 -70 257 l 1,12,-1
 12 257 l 2,13,14
 133 257 133 257 181 318 c 0,15,16
 206 349 206 349 223 430 c 0,17,18
 236 491 236 491 267 491 c 0,19,20
 303 491 303 491 318 430 c 0,21,22
 341 338 341 338 353 318 c 0,23,24
 389 257 389 257 472 257 c 1,25,26
 588 408 588 408 707 516 c 0,27,28
 887 678 887 678 1016 678 c 0,29,30
 1118 678 1118 678 1187 619 c 0,31,32
 1261 557 1261 557 1261 457 c 0,0,1
1100 346 m 0,33,34
 1100 408 1100 408 1034 443 c 0,35,36
 981 472 981 472 913 472 c 0,37,38
 784 472 784 472 593 254 c 1,39,40
 675 248 675 248 748 248 c 0,41,42
 921 248 921 248 1021 285 c 0,43,44
 1100 314 1100 314 1100 346 c 0,33,34
EndSplineSet
EndChar

StartChar: afii62791
Encoding: 65212 65212 209
Width: 1377
GlyphClass: 2
Flags: W
AnchorPoint: "Anchor-3" 480 -585 basechar 0
AnchorPoint: "Anchor-2" 570 945 basechar 0
LayerCount: 2
Fore
SplineSet
1377 0 m 1,0,-1
 1276 0 l 2,1,2
 1137 0 1137 0 1086 119 c 1,3,4
 996 45 996 45 863 20 c 0,5,6
 775 3 775 3 616 3 c 0,7,8
 496 3 496 3 427 25 c 0,9,10
 333 55 333 55 277 136 c 1,11,12
 194 0 194 0 48 0 c 2,13,-1
 -70 0 l 1,14,-1
 -70 257 l 1,15,-1
 12 257 l 2,16,17
 133 257 133 257 181 318 c 0,18,19
 206 349 206 349 223 430 c 0,20,21
 236 491 236 491 267 491 c 0,22,23
 303 491 303 491 318 430 c 0,24,25
 341 338 341 338 353 318 c 0,26,27
 389 257 389 257 472 257 c 1,28,29
 588 408 588 408 707 516 c 0,30,31
 887 678 887 678 1016 678 c 0,32,33
 1118 678 1118 678 1187 619 c 0,34,35
 1261 557 1261 557 1261 457 c 0,36,37
 1261 354 1261 354 1206 257 c 1,38,-1
 1377 257 l 1,39,-1
 1377 0 l 1,0,-1
1100 346 m 0,40,41
 1100 408 1100 408 1034 443 c 0,42,43
 981 472 981 472 913 472 c 0,44,45
 784 472 784 472 593 254 c 1,46,47
 675 248 675 248 748 248 c 0,48,49
 921 248 921 248 1021 285 c 0,50,51
 1100 314 1100 314 1100 346 c 0,40,41
EndSplineSet
EndChar

StartChar: afii57431
Encoding: 1591 1591 214
Width: 1375
GlyphClass: 2
Flags: W
AnchorPoint: "Anchor-3" 720 -495 basechar 0
AnchorPoint: "Anchor-2" 1035 1185 basechar 0
LayerCount: 2
Fore
SplineSet
1335 460 m 0,0,1
 1335 203 1335 203 1092 87 c 0,2,3
 912 1 912 1 622 1 c 0,4,5
 427 1 427 1 333 51 c 0,6,7
 224 109 224 109 172 267 c 1,8,9
 312 254 312 254 512 258 c 1,10,-1
 512 334 l 2,11,12
 512 730 512 730 421 1097 c 1,13,-1
 608 1268 l 1,14,15
 645 1161 645 1161 712 989 c 0,16,17
 715 983 715 983 717 974 c 0,18,19
 717 968 717 968 708 968 c 0,20,21
 697 968 697 968 638 983 c 1,22,23
 651 839 651 839 651 729 c 0,24,25
 651 577 651 577 622 373 c 1,26,27
 708 469 708 469 826 556 c 0,28,29
 997 682 997 682 1111 682 c 0,30,31
 1185 682 1185 682 1251 633 c 0,32,33
 1335 571 1335 571 1335 460 c 0,0,1
1179 351 m 0,34,35
 1179 400 1179 400 1120 441 c 0,36,37
 1066 478 1066 478 1015 478 c 0,38,39
 849 478 849 478 648 258 c 1,40,-1
 832 258 l 2,41,42
 934 258 934 258 1028 273 c 0,43,44
 1179 297 1179 297 1179 351 c 0,34,35
EndSplineSet
Substitution2: "'medi' Medial Forms in Arabic lookup 3 subtable" afii62797
Substitution2: "'fina' Terminal Forms in Arabic lookup 2 subtable" afii62798
Substitution2: "'init' Initial Forms in Arabic lookup 1 subtable" afii62796
EndChar

StartChar: afii62798
Encoding: 65218 65218 215
Width: 1442
GlyphClass: 2
Flags: W
AnchorPoint: "Anchor-3" 690 -510 basechar 0
AnchorPoint: "Anchor-2" 1005 1185 basechar 0
LayerCount: 2
Fore
SplineSet
1442 0 m 1,0,-1
 1369 0 l 2,1,2
 1232 0 1232 0 1163 116 c 1,3,4
 1035 34 1035 34 856 11 c 0,5,6
 772 0 772 0 580 0 c 0,7,8
 262 0 262 0 174 266 c 1,9,10
 314 253 314 253 514 257 c 1,11,-1
 514 333 l 2,12,13
 514 729 514 729 423 1096 c 1,14,-1
 610 1267 l 1,15,16
 636 1190 636 1190 713 989 c 0,17,18
 719 977 719 977 719 972 c 0,19,20
 719 966 719 966 710 966 c 256,21,22
 701 966 701 966 640 982 c 1,23,24
 653 838 653 838 653 728 c 0,25,26
 653 576 653 576 624 372 c 1,27,28
 710 468 710 468 828 555 c 0,29,30
 999 681 999 681 1113 681 c 0,31,32
 1187 681 1187 681 1253 632 c 0,33,34
 1337 570 1337 570 1337 459 c 0,35,36
 1337 362 1337 362 1278 257 c 1,37,-1
 1442 257 l 1,38,-1
 1442 0 l 1,0,-1
1181 350 m 0,39,40
 1181 399 1181 399 1122 440 c 0,41,42
 1068 477 1068 477 1017 477 c 0,43,44
 851 477 851 477 650 257 c 1,45,-1
 834 257 l 2,46,47
 936 257 936 257 1030 272 c 0,48,49
 1181 296 1181 296 1181 350 c 0,39,40
EndSplineSet
EndChar

StartChar: afii62796
Encoding: 65219 65219 216
Width: 1017
GlyphClass: 2
Flags: W
AnchorPoint: "Anchor-3" 375 -600 basechar 0
AnchorPoint: "Anchor-2" 750 1140 basechar 0
LayerCount: 2
Fore
SplineSet
1011 459 m 0,0,1
 1011 220 1011 220 799 98 c 0,2,3
 627 0 627 0 368 0 c 2,4,-1
 -70 0 l 1,5,-1
 -70 257 l 1,6,-1
 189 257 l 1,7,-1
 189 333 l 2,8,9
 189 729 189 729 97 1096 c 1,10,-1
 284 1267 l 1,11,12
 311 1189 311 1189 388 993 c 0,13,14
 394 978 394 978 394 974 c 0,15,16
 394 968 394 968 384 968 c 0,17,18
 373 968 373 968 314 982 c 1,19,20
 327 838 327 838 327 728 c 0,21,22
 327 576 327 576 298 372 c 1,23,24
 382 466 382 466 503 555 c 0,25,26
 674 681 674 681 787 681 c 0,27,28
 861 681 861 681 927 632 c 0,29,30
 1011 570 1011 570 1011 459 c 0,0,1
855 350 m 0,31,32
 855 400 855 400 797 440 c 0,33,34
 743 477 743 477 691 477 c 0,35,36
 525 477 525 477 324 257 c 1,37,-1
 508 257 l 2,38,39
 610 257 610 257 704 272 c 0,40,41
 855 296 855 296 855 350 c 0,31,32
EndSplineSet
EndChar

StartChar: afii62797
Encoding: 65220 65220 217
Width: 1117
GlyphClass: 2
Flags: W
AnchorPoint: "Anchor-3" 510 -585 basechar 0
AnchorPoint: "Anchor-2" 735 1125 basechar 0
LayerCount: 2
Fore
SplineSet
1117 0 m 1,0,-1
 1043 0 l 2,1,2
 902 0 902 0 835 113 c 1,3,4
 740 39 740 39 584 15 c 0,5,6
 486 0 486 0 298 0 c 2,7,-1
 -70 0 l 1,8,-1
 -70 257 l 1,9,-1
 189 257 l 1,10,-1
 189 333 l 2,11,12
 189 729 189 729 97 1096 c 1,13,-1
 284 1267 l 1,14,15
 311 1189 311 1189 388 992 c 0,16,17
 394 977 394 977 394 971 c 256,18,19
 394 965 394 965 386 965 c 2,20,-1
 314 982 l 1,21,22
 327 838 327 838 327 728 c 0,23,24
 327 576 327 576 298 372 c 1,25,26
 382 466 382 466 503 555 c 0,27,28
 674 681 674 681 787 681 c 0,29,30
 861 681 861 681 927 632 c 0,31,32
 1011 570 1011 570 1011 459 c 0,33,34
 1011 362 1011 362 952 257 c 1,35,-1
 1117 257 l 1,36,-1
 1117 0 l 1,0,-1
855 350 m 0,37,38
 855 400 855 400 797 440 c 0,39,40
 743 477 743 477 691 477 c 0,41,42
 525 477 525 477 324 257 c 1,43,-1
 508 257 l 2,44,45
 610 257 610 257 704 272 c 0,46,47
 855 296 855 296 855 350 c 0,37,38
EndSplineSet
EndChar

StartChar: afii57433
Encoding: 1593 1593 222
Width: 1187
GlyphClass: 2
Flags: W
AnchorPoint: "Anchor-3" 540 -1020 basechar 0
AnchorPoint: "Anchor-2" 690 1050 basechar 0
LayerCount: 2
Fore
SplineSet
1175 -366 m 0,0,1
 1076 -542 1076 -542 710 -542 c 0,2,3
 493 -542 493 -542 350 -456 c 0,4,5
 177 -352 177 -352 177 -149 c 0,6,7
 177 -1 177 -1 300 118 c 0,8,9
 404 219 404 219 552 264 c 1,10,11
 485 284 485 284 433 333 c 0,12,13
 366 396 366 396 366 476 c 0,14,15
 366 589 366 589 482 717 c 0,16,17
 607 854 607 854 744 854 c 0,18,19
 796 854 796 854 861 816 c 0,20,21
 940 770 940 770 975 699 c 0,22,23
 992 665 992 665 992 650 c 0,24,25
 992 637 992 637 979 637 c 0,26,27
 973 637 973 637 940 647 c 0,28,29
 854 673 854 673 767 673 c 0,30,31
 685 673 685 673 601 643 c 0,32,33
 510 611 510 611 510 569 c 0,34,35
 510 525 510 525 566 473 c 0,36,37
 643 402 643 402 780 402 c 0,38,39
 883 402 883 402 1070 449 c 0,40,41
 1096 456 1096 456 1099 453 c 256,42,43
 1102 450 1102 450 1093 430 c 2,44,-1
 1009 238 l 1,45,46
 403 189 403 189 403 -92 c 0,47,48
 403 -250 403 -250 556 -327 c 0,49,50
 675 -387 675 -387 849 -387 c 0,51,52
 1007 -387 1007 -387 1154 -352 c 0,53,54
 1182 -345 1182 -345 1184 -347 c 0,55,56
 1183 -352 1183 -352 1175 -366 c 0,0,1
EndSplineSet
Substitution2: "'medi' Medial Forms in Arabic lookup 3 subtable" afii62803
Substitution2: "'fina' Terminal Forms in Arabic lookup 2 subtable" afii62804
Substitution2: "'init' Initial Forms in Arabic lookup 1 subtable" afii62802
EndChar

StartChar: afii62804
Encoding: 65226 65226 223
Width: 1225
GlyphClass: 2
Flags: W
AnchorPoint: "Anchor-3" 540 -975 basechar 0
AnchorPoint: "Anchor-2" 705 990 basechar 0
LayerCount: 2
Fore
SplineSet
1225 0 m 1,0,-1
 1195 0 l 2,1,2
 934 0 934 0 706 279 c 1,3,4
 403 115 403 115 403 -93 c 0,5,6
 403 -251 403 -251 556 -328 c 0,7,8
 675 -388 675 -388 849 -388 c 0,9,10
 1007 -388 1007 -388 1154 -353 c 0,11,12
 1182 -346 1182 -346 1184 -348 c 0,13,14
 1183 -353 1183 -353 1175 -367 c 0,15,16
 1076 -543 1076 -543 710 -543 c 0,17,18
 493 -543 493 -543 350 -457 c 0,19,20
 177 -353 177 -353 177 -150 c 0,21,22
 177 132 177 132 629 355 c 1,23,24
 600 392 600 392 552 437 c 0,25,26
 490 496 490 496 462.5 496 c 128,-1,27
 435 496 435 496 435 528 c 0,28,29
 435 570 435 570 484 624 c 0,30,31
 565 713 565 713 730 713 c 0,32,33
 832 713 832 713 912 672 c 0,34,35
 1006 624 1006 624 1006 546 c 0,36,37
 1006 452 1006 452 832 350 c 1,38,39
 939 257 939 257 1169 257 c 2,40,-1
 1225 257 l 1,41,-1
 1225 0 l 1,0,-1
EndSplineSet
EndChar

StartChar: afii62802
Encoding: 65227 65227 224
Width: 933
GlyphClass: 2
Flags: W
AnchorPoint: "Anchor-3" 375 -540 basechar 0
AnchorPoint: "Anchor-2" 480 1065 basechar 0
LayerCount: 2
Fore
SplineSet
898 297 m 2,0,-1
 785 89 l 1,1,2
 660 81 660 81 542 67.5 c 128,-1,3
 424 54 424 54 310 34 c 0,4,5
 211 17 211 17 152.5 8.5 c 128,-1,6
 94 0 94 0 75 0 c 2,7,-1
 -70 0 l 1,8,-1
 -70 257 l 1,9,-1
 221 257 l 1,10,11
 207 268 207 268 193.5 288 c 128,-1,12
 180 308 180 308 169.5 331 c 128,-1,13
 159 354 159 354 152.5 377.5 c 128,-1,14
 146 401 146 401 146 419 c 0,15,16
 146 531 146 531 273 664 c 0,17,18
 408 806 408 806 545 806 c 0,19,20
 582 806 582 806 619.5 791.5 c 128,-1,21
 657 777 657 777 692 752 c 128,-1,22
 727 727 727 727 756.5 692.5 c 128,-1,23
 786 658 786 658 807 618 c 0,24,25
 825 583 825 583 825 568 c 0,26,27
 825 556 825 556 812 556 c 256,28,29
 799 556 799 556 772 566 c 0,30,31
 665 603 665 603 544 603 c 0,32,33
 499 603 499 603 455 594.5 c 128,-1,34
 411 586 411 586 377 571 c 128,-1,35
 343 556 343 556 322 535 c 128,-1,36
 301 514 301 514 301 489 c 0,37,38
 301 445 301 445 363 383 c 0,39,40
 442 302 442 302 560 302 c 0,41,42
 663 302 663 302 742 305.5 c 128,-1,43
 821 309 821 309 876 316 c 0,44,45
 881 317 881 317 885 317 c 128,-1,46
 889 317 889 317 892 317 c 0,47,48
 904 317 904 317 904 313 c 0,49,50
 904 307 904 307 898 297 c 2,0,-1
EndSplineSet
EndChar

StartChar: afii62803
Encoding: 65228 65228 225
Width: 766
GlyphClass: 2
Flags: W
AnchorPoint: "Anchor-3" 300 -585 basechar 0
AnchorPoint: "Anchor-2" 360 1020 basechar 0
LayerCount: 2
Fore
SplineSet
766 0 m 1,0,-1
 737 0 l 2,1,2
 594 0 594 0 505 55 c 0,3,4
 455 86 455 86 386 171 c 1,5,6
 233 0 233 0 32 0 c 2,7,-1
 -70 0 l 1,8,-1
 -70 257 l 1,9,-1
 74 257 l 2,10,11
 215 257 215 257 285 311 c 1,12,13
 165 468 165 468 120 468 c 0,14,15
 92 468 92 468 92 500 c 0,16,17
 92 544 92 544 140 597 c 0,18,19
 220 686 220 686 387 686 c 0,20,21
 489 686 489 686 569 645 c 0,22,23
 662 597 662 597 662 519 c 0,24,25
 662 463 662 463 595 396 c 0,26,27
 575 376 575 376 488 306 c 1,28,29
 545 257 545 257 711 257 c 2,30,-1
 766 257 l 1,31,-1
 766 0 l 1,0,-1
EndSplineSet
EndChar

StartChar: afii57443
Encoding: 1603 1603 238
Width: 1460
GlyphClass: 2
Flags: W
AnchorPoint: "Anchor-3" 735 -495 basechar 0
AnchorPoint: "Anchor-2" 735 1140 basechar 0
LayerCount: 2
Fore
SplineSet
1443 988 m 0,0,1
 1445 984 1445 984 1446 980 c 128,-1,2
 1447 976 1447 976 1449 971 c 0,3,4
 1448 967 1448 967 1437 967 c 0,5,6
 1429 967 1429 967 1414 969 c 128,-1,7
 1399 971 1399 971 1378 975 c 1,8,9
 1383 887 1383 887 1386 744 c 128,-1,10
 1389 601 1389 601 1389 400 c 2,11,-1
 1389 388 l 2,12,13
 1389 169 1389 169 1246 62 c 0,14,15
 1193 23 1193 23 995 1 c 0,16,17
 913 -9 913 -9 878 -13.5 c 128,-1,18
 843 -18 843 -18 765 -18 c 0,19,20
 484 -18 484 -18 365 34 c 0,21,22
 177 114 177 114 177 351 c 0,23,24
 177 394 177 394 190.5 443.5 c 128,-1,25
 204 493 204 493 224 534 c 128,-1,26
 244 575 244 575 266.5 602.5 c 128,-1,27
 289 630 289 630 307 630 c 0,28,29
 345 630 345 630 345 588 c 0,30,31
 345 585 345 585 340 568.5 c 128,-1,32
 335 552 335 552 329.5 530.5 c 128,-1,33
 324 509 324 509 319 488 c 128,-1,34
 314 467 314 467 314 455 c 0,35,36
 314 295 314 295 469 254 c 0,37,38
 539 235 539 235 781 235 c 0,39,40
 841 235 841 235 945 239.5 c 128,-1,41
 1049 244 1049 244 1113.5 255 c 128,-1,42
 1178 266 1178 266 1207 285 c 128,-1,43
 1236 304 1236 304 1236 333 c 2,44,-1
 1236 336 l 2,45,46
 1236 340 1236 340 1235 343 c 2,47,-1
 1235 346 l 2,48,49
 1235 352 1235 352 1233 376 c 128,-1,50
 1231 400 1231 400 1228.5 427.5 c 128,-1,51
 1226 455 1226 455 1224 479 c 128,-1,52
 1222 503 1222 503 1221 510 c 0,53,54
 1204 692 1204 692 1183 836.5 c 128,-1,55
 1162 981 1162 981 1139 1093 c 1,56,-1
 1323 1258 l 2,57,58
 1330 1264 1330 1264 1335 1264 c 256,59,60
 1340 1264 1340 1264 1352.5 1234 c 128,-1,61
 1365 1204 1365 1204 1380.5 1161 c 128,-1,62
 1396 1118 1396 1118 1412.5 1070.5 c 128,-1,63
 1429 1023 1429 1023 1443 988 c 0,0,1
938 746 m 1,64,65
 941 737 941 737 941 722 c 0,66,67
 941 696 941 696 936 674.5 c 128,-1,68
 931 653 931 653 927 648 c 0,69,70
 856 630 856 630 768.5 598 c 128,-1,71
 681 566 681 566 575 520 c 1,72,-1
 575 594 l 1,73,74
 592 603 592 603 615 615 c 128,-1,75
 638 627 638 627 669 642 c 1,76,77
 655 648 655 648 641 660.5 c 128,-1,78
 627 673 627 673 616 688 c 128,-1,79
 605 703 605 703 597.5 719 c 128,-1,80
 590 735 590 735 590 749 c 0,81,82
 590 777 590 777 610 810 c 128,-1,83
 630 843 630 843 660 871 c 128,-1,84
 690 899 690 899 724 917.5 c 128,-1,85
 758 936 758 936 786 936 c 0,86,87
 801 936 801 936 820 929 c 128,-1,88
 839 922 839 922 855.5 911 c 128,-1,89
 872 900 872 900 883.5 886.5 c 128,-1,90
 895 873 895 873 895 861 c 0,91,92
 895 821 895 821 864 821 c 0,93,94
 859 821 859 821 846.5 825 c 128,-1,95
 834 829 834 829 819 834 c 128,-1,96
 804 839 804 839 789 843 c 128,-1,97
 774 847 774 847 764 847 c 0,98,99
 750 847 750 847 735.5 843 c 128,-1,100
 721 839 721 839 708.5 832 c 128,-1,101
 696 825 696 825 688 816 c 128,-1,102
 680 807 680 807 680 797 c 0,103,104
 680 779 680 779 690 762.5 c 128,-1,105
 700 746 700 746 716 734 c 128,-1,106
 732 722 732 722 750.5 714.5 c 128,-1,107
 769 707 769 707 786 707 c 0,108,109
 797 707 797 707 819.5 712.5 c 128,-1,110
 842 718 842 718 866 725 c 128,-1,111
 890 732 890 732 910.5 738 c 128,-1,112
 931 744 931 744 938 746 c 1,64,65
EndSplineSet
Substitution2: "'medi' Medial Forms in Arabic lookup 3 subtable" afii52306
Substitution2: "'fina' Terminal Forms in Arabic lookup 2 subtable" afii62816
Substitution2: "'init' Initial Forms in Arabic lookup 1 subtable" afii52305
EndChar

StartChar: afii62816
Encoding: 65242 65242 239
Width: 1609
GlyphClass: 2
Flags: W
AnchorPoint: "Anchor-3" 705 -495 basechar 0
AnchorPoint: "Anchor-2" 750 1155 basechar 0
LayerCount: 2
Fore
SplineSet
1609 0 m 1,0,-1
 1476 0 l 2,1,2
 1443 0 1443 0 1411.5 10 c 128,-1,3
 1380 20 1380 20 1353 37 c 128,-1,4
 1326 54 1326 54 1305.5 77 c 128,-1,5
 1285 100 1285 100 1275 126 c 1,6,7
 1263 104 1263 104 1244.5 83.5 c 128,-1,8
 1226 63 1226 63 1203.5 46.5 c 128,-1,9
 1181 30 1181 30 1155.5 18 c 128,-1,10
 1130 6 1130 6 1105 2 c 0,11,12
 1098 0 1098 0 1090 -1.5 c 128,-1,13
 1082 -3 1082 -3 1073 -5 c 0,14,15
 955 -12 955 -12 859 -15.5 c 128,-1,16
 763 -19 763 -19 685 -19 c 0,17,18
 557 -19 557 -19 461.5 1.5 c 128,-1,19
 366 22 366 22 303 66.5 c 128,-1,20
 240 111 240 111 208.5 181 c 128,-1,21
 177 251 177 251 177 350 c 0,22,23
 177 393 177 393 190.5 442.5 c 128,-1,24
 204 492 204 492 224 533 c 128,-1,25
 244 574 244 574 266.5 601.5 c 128,-1,26
 289 629 289 629 307 629 c 0,27,28
 345 629 345 629 345 587 c 0,29,30
 345 584 345 584 340 567.5 c 128,-1,31
 335 551 335 551 329.5 529.5 c 128,-1,32
 324 508 324 508 319 487 c 128,-1,33
 314 466 314 466 314 454 c 0,34,35
 314 392 314 392 334.5 349.5 c 128,-1,36
 355 307 355 307 398.5 281.5 c 128,-1,37
 442 256 442 256 511 245 c 128,-1,38
 580 234 580 234 678 234 c 0,39,40
 810 234 810 234 914.5 238 c 128,-1,41
 1019 242 1019 242 1103 250 c 1,42,43
 1221 269 1221 269 1221 384 c 0,44,45
 1221 645 1221 645 1210 818 c 128,-1,46
 1199 991 1199 991 1177 1081 c 1,47,-1
 1373 1263 l 2,48,49
 1381 1270 1381 1270 1384 1270 c 0,50,51
 1389 1270 1389 1270 1389 1259 c 2,52,-1
 1389 398 l 2,53,54
 1389 257 1389 257 1530 257 c 2,55,-1
 1609 257 l 1,56,-1
 1609 0 l 1,0,-1
948 745 m 1,57,58
 951 736 951 736 951 721 c 0,59,60
 951 695 951 695 946 673.5 c 128,-1,61
 941 652 941 652 937 647 c 0,62,63
 865 629 865 629 778 597 c 128,-1,64
 691 565 691 565 585 519 c 1,65,-1
 585 593 l 1,66,67
 602 602 602 602 625 614 c 128,-1,68
 648 626 648 626 679 641 c 1,69,70
 665 647 665 647 651 659.5 c 128,-1,71
 637 672 637 672 625.5 687 c 128,-1,72
 614 702 614 702 607 718 c 128,-1,73
 600 734 600 734 600 748 c 0,74,75
 600 776 600 776 620 809 c 128,-1,76
 640 842 640 842 670 870 c 128,-1,77
 700 898 700 898 734 916.5 c 128,-1,78
 768 935 768 935 796 935 c 0,79,80
 811 935 811 935 830 928 c 128,-1,81
 849 921 849 921 865.5 910 c 128,-1,82
 882 899 882 899 893.5 885.5 c 128,-1,83
 905 872 905 872 905 860 c 0,84,85
 905 820 905 820 874 820 c 0,86,87
 869 820 869 820 856.5 824 c 128,-1,88
 844 828 844 828 829 833 c 128,-1,89
 814 838 814 838 799 842 c 128,-1,90
 784 846 784 846 774 846 c 0,91,92
 760 846 760 846 745.5 842 c 128,-1,93
 731 838 731 838 718.5 831 c 128,-1,94
 706 824 706 824 698 815 c 128,-1,95
 690 806 690 806 690 796 c 0,96,97
 690 778 690 778 700 761.5 c 128,-1,98
 710 745 710 745 726 733 c 128,-1,99
 742 721 742 721 760.5 713.5 c 128,-1,100
 779 706 779 706 796 706 c 0,101,102
 807 706 807 706 829.5 711.5 c 128,-1,103
 852 717 852 717 876 723.5 c 128,-1,104
 900 730 900 730 920.5 736.5 c 128,-1,105
 941 743 941 743 948 745 c 1,57,58
EndSplineSet
EndChar

StartChar: afii57444
Encoding: 1604 1604 242
Width: 1211
GlyphClass: 2
Flags: W
AnchorPoint: "Anchor-3" 570 -1005 basechar 0
AnchorPoint: "Anchor-2" 855 1260 basechar 0
LayerCount: 2
Fore
SplineSet
1198 988 m 0,0,1
 1200 984 1200 984 1201 980 c 128,-1,2
 1202 976 1202 976 1204 971 c 0,3,4
 1203 967 1203 967 1192 967 c 0,5,6
 1184 967 1184 967 1169 969 c 128,-1,7
 1154 971 1154 971 1133 975 c 1,8,9
 1138 881 1138 881 1141 726 c 128,-1,10
 1144 571 1144 571 1144 351 c 0,11,12
 1144 279 1144 279 1144 202 c 128,-1,13
 1144 125 1144 125 1143 40 c 0,14,15
 1140 -488 1140 -488 587 -488 c 0,16,17
 175 -488 175 -488 175 -119 c 0,18,19
 175 -33 175 -33 218 84 c 0,20,21
 263 210 263 210 303 210 c 0,22,23
 340 210 340 210 340 162 c 0,24,25
 340 154 340 154 334 130.5 c 128,-1,26
 328 107 328 107 321.5 79 c 128,-1,27
 315 51 315 51 309 24.5 c 128,-1,28
 303 -2 303 -2 303 -15 c 0,29,30
 303 -233 303 -233 615 -233 c 0,31,32
 824 -233 824 -233 933 -166 c 0,33,34
 1009 -120 1009 -120 1009 -79 c 0,35,36
 1009 162 1009 162 976 510 c 0,37,38
 959 692 959 692 938 836.5 c 128,-1,39
 917 981 917 981 894 1093 c 1,40,-1
 1078 1258 l 2,41,42
 1085 1264 1085 1264 1090 1264 c 0,43,44
 1097 1264 1097 1264 1100 1253 c 0,45,46
 1119 1199 1119 1199 1143 1133 c 128,-1,47
 1167 1067 1167 1067 1198 988 c 0,0,1
EndSplineSet
Substitution2: "'medi' Medial Forms in Arabic lookup 3 subtable" afii62818
Substitution2: "'fina' Terminal Forms in Arabic lookup 2 subtable" afii62819
Substitution2: "'init' Initial Forms in Arabic lookup 1 subtable" afii62817
EndChar

StartChar: afii62817
Encoding: 65247 65247 243
Width: 359
GlyphClass: 2
Flags: W
AnchorPoint: "Anchor-3" 105 -525 basechar 0
AnchorPoint: "Anchor-2" 135 1365 basechar 0
LayerCount: 2
Fore
SplineSet
352 987 m 0,0,1
 354 983 354 983 355 979 c 128,-1,2
 356 975 356 975 358 970 c 0,3,4
 357 966 357 966 346 966 c 0,5,6
 338 966 338 966 323 968 c 128,-1,7
 308 970 308 970 287 974 c 1,8,9
 295 824 295 824 299.5 677 c 128,-1,10
 304 530 304 530 304 382 c 0,11,12
 304 333 304 333 302.5 292.5 c 128,-1,13
 301 252 301 252 294 216.5 c 128,-1,14
 287 181 287 181 274 150.5 c 128,-1,15
 261 120 261 120 239 91 c 0,16,17
 169 0 169 0 48 0 c 2,18,-1
 -70 0 l 1,19,-1
 -70 257 l 1,20,-1
 41 257 l 2,21,22
 73 257 73 257 95.5 261.5 c 128,-1,23
 118 266 118 266 132.5 277 c 128,-1,24
 147 288 147 288 153.5 306 c 128,-1,25
 160 324 160 324 160 352 c 0,26,27
 160 419 160 419 148.5 518.5 c 128,-1,28
 137 618 137 618 120 749 c 0,29,30
 87 1010 87 1010 66 1092 c 1,31,-1
 233 1257 l 2,32,33
 239 1263 239 1263 244 1263 c 0,34,35
 250 1263 250 1263 255 1252 c 0,36,37
 268 1210 268 1210 292.5 1144.5 c 128,-1,38
 317 1079 317 1079 352 987 c 0,0,1
EndSplineSet
EndChar

StartChar: afii62818
Encoding: 65248 65248 244
Width: 616
GlyphClass: 2
Flags: W
AnchorPoint: "Anchor-3" 225 -510 basechar 0
AnchorPoint: "Anchor-2" 285 1380 basechar 0
LayerCount: 2
Fore
SplineSet
616 0 m 1,0,-1
 483 0 l 2,1,2
 450 0 450 0 418.5 10 c 128,-1,3
 387 20 387 20 360 37 c 128,-1,4
 333 54 333 54 312.5 77 c 128,-1,5
 292 100 292 100 282 126 c 1,6,7
 268 100 268 100 245.5 77 c 128,-1,8
 223 54 223 54 196.5 37 c 128,-1,9
 170 20 170 20 141 10 c 128,-1,10
 112 0 112 0 85 0 c 2,11,-1
 -70 0 l 1,12,-1
 -70 257 l 1,13,-1
 83 257 l 2,14,15
 228 257 228 257 228 394 c 0,16,17
 228 903 228 903 184 1081 c 1,18,-1
 380 1263 l 2,19,20
 389 1270 389 1270 391 1270 c 0,21,22
 396 1270 396 1270 396 1259 c 2,23,-1
 396 398 l 2,24,25
 396 257 396 257 537 257 c 2,26,-1
 616 257 l 1,27,-1
 616 0 l 1,0,-1
EndSplineSet
EndChar

StartChar: afii57445
Encoding: 1605 1605 245
Width: 1003
GlyphClass: 2
Flags: W
AnchorPoint: "Anchor-3" 450 -855 basechar 0
AnchorPoint: "Anchor-2" 615 870 basechar 0
LayerCount: 2
Fore
SplineSet
966 346 m 256,0,1
 966 266 966 266 921 176 c 0,2,3
 859 52 859 52 748 52 c 0,4,5
 688 52 688 52 569.5 75.5 c 128,-1,6
 451 99 451 99 391 99 c 0,7,8
 322 99 322 99 322 56 c 0,9,10
 322 49 322 49 323 39 c 0,11,12
 355 -267 355 -267 344 -365 c 0,13,14
 341 -388 341 -388 304 -450 c 0,15,16
 288 -476 288 -476 255 -529 c 0,17,18
 242 -551 242 -551 235 -551 c 0,19,20
 226 -551 226 -551 224 -514 c 0,21,22
 216 -366 216 -366 195 -137 c 0,23,24
 177 60 177 60 177 96 c 0,25,26
 177 197 177 197 244 256 c 128,-1,27
 311 315 311 315 413 315 c 1,28,29
 412 328 412 328 407.5 357 c 128,-1,30
 403 386 403 386 403 402 c 0,31,32
 403 469 403 469 472 558 c 0,33,34
 548 657 548 657 632 657 c 0,35,36
 731 657 731 657 851 539 c 0,37,38
 966 426 966 426 966 346 c 256,0,1
812 288 m 0,39,40
 769 342 769 342 706 386 c 0,41,42
 630 440 630 440 574 440 c 0,43,44
 523 440 523 440 523 389 c 2,45,-1
 522 320 l 2,46,47
 523 304 523 304 541 300 c 0,48,49
 612 285 612 285 791 251 c 0,50,51
 824 245 824 245 824 263 c 0,52,53
 824 273 824 273 812 288 c 0,39,40
EndSplineSet
Substitution2: "'medi' Medial Forms in Arabic lookup 3 subtable" afii62821
Substitution2: "'fina' Terminal Forms in Arabic lookup 2 subtable" afii62822
Substitution2: "'init' Initial Forms in Arabic lookup 1 subtable" afii62820
EndChar

StartChar: afii62822
Encoding: 65250 65250 246
Width: 1154
GlyphClass: 2
Flags: W
AnchorPoint: "Anchor-3" 570 -780 basechar 0
AnchorPoint: "Anchor-2" 570 735 basechar 0
LayerCount: 2
Fore
SplineSet
1154 0 m 1,0,-1
 1099 0 l 2,1,2
 1003 0 1003 0 961 39 c 1,3,4
 961 -264 961 -264 787 -264 c 0,5,6
 677 -264 677 -264 604 -167 c 0,7,8
 516 -51 516 -51 516 164 c 1,9,-1
 437 164 l 2,10,11
 381 164 381 164 359 153 c 0,12,13
 326 137 326 137 326 86 c 0,14,15
 326 80 326 80 328 60 c 0,16,17
 358 -242 358 -242 344 -366 c 0,18,19
 341 -389 341 -389 304 -451 c 0,20,21
 288 -477 288 -477 255 -530 c 0,22,23
 242 -552 242 -552 235 -552 c 0,24,25
 226 -552 226 -552 224 -515 c 0,26,27
 215 -350 215 -350 195 -142 c 2,28,-1
 177 61 l 1,29,30
 177 255 177 255 317 338 c 0,31,32
 407 391 407 391 536 391 c 1,33,-1
 581 526 l 1,34,35
 812 347 812 347 840 330 c 0,36,37
 959 257 959 257 1096 257 c 2,38,-1
 1154 257 l 1,39,-1
 1154 0 l 1,0,-1
860 25 m 0,40,41
 860 64 860 64 761 148 c 0,42,43
 693 201 693 201 625 254 c 1,44,-1
 625 218 l 2,45,46
 625 120 625 120 660 50 c 0,47,48
 704 -40 704 -40 793 -40 c 0,49,50
 860 -40 860 -40 860 25 c 0,40,41
EndSplineSet
EndChar

StartChar: afii62820
Encoding: 65251 65251 247
Width: 733
GlyphClass: 2
Flags: W
AnchorPoint: "Anchor-3" 240 -600 basechar 0
AnchorPoint: "Anchor-2" 360 885 basechar 0
LayerCount: 2
Fore
SplineSet
705 210 m 0,0,1
 705 107 705 107 642 42.5 c 128,-1,2
 579 -22 579 -22 477 -22 c 0,3,4
 340 -22 340 -22 248 123 c 1,5,6
 184 0 184 0 60 0 c 2,7,-1
 -70 0 l 1,8,-1
 -70 257 l 1,9,-1
 60 257 l 2,10,11
 146 257 146 257 168 272 c 0,12,13
 186 284 186 284 182 327 c 0,14,15
 174 427 174 427 243 516 c 0,16,17
 318 612 318 612 431 612 c 0,18,19
 571 612 571 612 645 476 c 0,20,21
 705 365 705 365 705 210 c 0,0,1
583 267 m 0,22,23
 583 327 583 327 541 403 c 0,24,25
 493 489 493 489 439 489 c 0,26,27
 371 489 371 489 371 398 c 0,28,29
 371 330 371 330 407 254 c 0,30,31
 451 163 451 163 511 163 c 0,32,33
 583 163 583 163 583 267 c 0,22,23
EndSplineSet
EndChar

StartChar: afii57446
Encoding: 1606 1606 248
Width: 1281
GlyphClass: 2
Flags: W
AnchorPoint: "Anchor-3" 570 -1005 basechar 0
AnchorPoint: "Anchor-2" 690 870 basechar 0
LayerCount: 2
Fore
SplineSet
1242 -37 m 0,0,1
 1242 -325 1242 -325 1065 -442 c 0,2,3
 920 -538 920 -538 614 -538 c 0,4,5
 383 -538 383 -538 270 -411 c 0,6,7
 179 -309 179 -309 179 -153 c 0,8,9
 179 -74 179 -74 227 77 c 0,10,11
 283 254 283 254 340 254 c 0,12,13
 380 254 380 254 380 198 c 0,14,15
 380 193 380 193 349.5 101 c 128,-1,16
 319 9 319 9 319 -45 c 0,17,18
 319 -187 319 -187 432 -244 c 0,19,20
 514 -285 514 -285 675 -285 c 0,21,22
 825 -285 825 -285 946 -253 c 0,23,24
 1132 -204 1132 -204 1132 -95 c 0,25,26
 1132 -38 1132 -38 1055 82 c 0,27,28
 985 191 985 191 932 238 c 1,29,-1
 1037 453 l 2,30,31
 1047 474 1047 474 1062 453 c 0,32,33
 1242 194 1242 194 1242 -37 c 0,0,1
831 588 m 1,34,-1
 695 452 l 1,35,-1
 559 588 l 1,36,-1
 695 723 l 1,37,-1
 831 588 l 1,34,-1
EndSplineSet
Substitution2: "'medi' Medial Forms in Arabic lookup 3 subtable" afii62824
Substitution2: "'fina' Terminal Forms in Arabic lookup 2 subtable" afii62825
Substitution2: "'init' Initial Forms in Arabic lookup 1 subtable" afii62823
EndChar

StartChar: afii62825
Encoding: 65254 65254 249
Width: 1379
GlyphClass: 2
Flags: W
AnchorPoint: "Anchor-3" 615 -1005 basechar 0
AnchorPoint: "Anchor-2" 675 870 basechar 0
LayerCount: 2
Fore
SplineSet
1379 0 m 1,0,-1
 1311 0 l 2,1,2
 1241 0 1241 0 1200 24 c 1,3,4
 1207 -27 1207 -27 1207 -74 c 0,5,6
 1207 -319 1207 -319 1026 -438 c 0,7,8
 873 -539 873 -539 614 -539 c 0,9,10
 383 -539 383 -539 270 -412 c 0,11,12
 179 -310 179 -310 179 -154 c 0,13,14
 179 -75 179 -75 227 76 c 0,15,16
 283 253 283 253 340 253 c 0,17,18
 380 253 380 253 380 197 c 0,19,20
 380 192 380 192 349.5 100 c 128,-1,21
 319 8 319 8 319 -46 c 0,22,23
 319 -188 319 -188 432 -245 c 0,24,25
 514 -286 514 -286 675 -286 c 0,26,27
 833 -286 833 -286 962 -237 c 0,28,29
 1110 -181 1110 -181 1110 -91 c 0,30,31
 1110 -35 1110 -35 1023 85 c 0,32,33
 949 187 949 187 890 239 c 1,34,-1
 989 441 l 2,35,36
 1000 463 1000 463 1015 441 c 0,37,38
 1080 347 1080 347 1118 313 c 0,39,40
 1181 257 1181 257 1262 257 c 2,41,-1
 1379 257 l 1,42,-1
 1379 0 l 1,0,-1
804 593 m 1,43,-1
 669 457 l 1,44,-1
 533 593 l 1,45,-1
 669 728 l 1,46,-1
 804 593 l 1,43,-1
EndSplineSet
EndChar

StartChar: afii62828
Encoding: 65258 65258 253
Width: 982
GlyphClass: 2
Flags: W
AnchorPoint: "Anchor-3" 405 -495 basechar 0
AnchorPoint: "Anchor-2" 405 1005 basechar 0
LayerCount: 2
Fore
SplineSet
982 0 m 1,0,-1
 884 0 l 2,1,2
 723 0 723 0 650 242 c 1,3,-1
 566 106 l 1,4,5
 177 106 177 106 177 240 c 0,6,7
 177 276 177 276 205 361 c 0,8,9
 218 400 218 400 241 450 c 1,10,11
 354 560 354 560 551 639 c 1,12,13
 541 672 541 672 519 735 c 1,14,-1
 659 896 l 1,15,16
 676 857 676 857 750 462 c 0,17,18
 775 326 775 326 819 284 c 0,19,20
 847 257 847 257 913 257 c 2,21,-1
 982 257 l 1,22,-1
 982 0 l 1,0,-1
634 316 m 1,23,24
 615 383 615 383 580 515 c 1,25,26
 368 428 368 428 336 371 c 1,27,28
 371 316 371 316 634 316 c 1,23,24
EndSplineSet
EndChar

StartChar: afii57448
Encoding: 1608 1608 254
Width: 782
GlyphClass: 2
Flags: W
AnchorPoint: "Anchor-3" 390 -930 basechar 0
AnchorPoint: "Anchor-2" 510 840 basechar 0
LayerCount: 2
Fore
SplineSet
780 38 m 2,0,1
 780 -224 780 -224 602 -414 c 0,2,3
 546 -474 546 -474 531 -474 c 0,4,5
 280 -474 280 -474 132 -423 c 0,6,7
 117 -417 117 -417 117 -413 c 0,8,9
 117 -407 117 -407 130 -403 c 0,10,11
 309 -338 309 -338 477 -204 c 0,12,13
 662 -57 662 -57 662 41 c 1,14,15
 653 41 653 41 634.5 40.5 c 128,-1,16
 616 40 616 40 596 40 c 128,-1,17
 576 40 576 40 557 39.5 c 128,-1,18
 538 39 538 39 529 39 c 0,19,20
 450 39 450 39 396.5 49.5 c 128,-1,21
 343 60 343 60 310.5 83 c 128,-1,22
 278 106 278 106 264 141.5 c 128,-1,23
 250 177 250 177 250 227 c 0,24,25
 250 334 250 334 317 469 c 0,26,27
 398 633 398 633 509 633 c 0,28,29
 647 633 647 633 722 473 c 0,30,31
 780 350 780 350 780 194 c 2,32,-1
 780 38 l 2,0,1
625 291 m 1,33,34
 614 319 614 319 595 343 c 128,-1,35
 576 367 576 367 553.5 385 c 128,-1,36
 531 403 531 403 507 413 c 128,-1,37
 483 423 483 423 462 423 c 0,38,39
 447 423 447 423 432 417 c 128,-1,40
 417 411 417 411 405 401 c 128,-1,41
 393 391 393 391 386 377.5 c 128,-1,42
 379 364 379 364 379 349 c 0,43,44
 379 279 379 279 491 279 c 0,45,46
 542 279 542 279 625 291 c 1,33,34
EndSplineSet
Substitution2: "'fina' Terminal Forms in Arabic lookup 2 subtable" afii62829
PairPos2: "'kern' Horizontal Kerning in Arabic lookup 1 subtable" afii62840 dx=0 dy=0 dh=0 dv=0 dx=0 dy=0 dh=-100 dv=0
PairPos2: "'kern' Horizontal Kerning in Arabic lookup 1 subtable" afii62838 dx=0 dy=0 dh=0 dv=0 dx=0 dy=0 dh=-100 dv=0
PairPos2: "'kern' Horizontal Kerning in Arabic lookup 1 subtable" afii62836 dx=0 dy=0 dh=0 dv=0 dx=0 dy=0 dh=-100 dv=0
PairPos2: "'kern' Horizontal Kerning in Arabic lookup 1 subtable" afii62834 dx=0 dy=0 dh=0 dv=0 dx=0 dy=0 dh=-100 dv=0
PairPos2: "'kern' Horizontal Kerning in Arabic lookup 0 subtable" afii62831 dx=0 dy=0 dh=0 dv=0 dx=0 dy=0 dh=40 dv=0
PairPos2: "'kern' Horizontal Kerning in Arabic lookup 0 subtable" afii57410 dx=0 dy=0 dh=0 dv=0 dx=0 dy=0 dh=-100 dv=0
PairPos2: "'kern' Horizontal Kerning in Arabic lookup 0 subtable" afii62965 dx=0 dy=0 dh=0 dv=0 dx=0 dy=0 dh=-100 dv=0
PairPos2: "'kern' Horizontal Kerning in Arabic lookup 0 subtable" afii57509 dx=0 dy=0 dh=0 dv=0 dx=0 dy=0 dh=-100 dv=0
PairPos2: "'kern' Horizontal Kerning in Arabic lookup 0 subtable" afii52305 dx=0 dy=0 dh=0 dv=0 dx=0 dy=0 dh=-100 dv=0
PairPos2: "'kern' Horizontal Kerning in Arabic lookup 0 subtable" afii57567 dx=0 dy=0 dh=0 dv=0 dx=0 dy=0 dh=-100 dv=0
PairPos2: "'kern' Horizontal Kerning in Arabic lookup 0 subtable" afii62956 dx=0 dy=0 dh=0 dv=0 dx=0 dy=0 dh=40 dv=0
EndChar

StartChar: afii62829
Encoding: 65262 65262 255
Width: 920
GlyphClass: 2
Flags: W
AnchorPoint: "Anchor-3" 360 -960 basechar 0
AnchorPoint: "Anchor-2" 495 840 basechar 0
LayerCount: 2
Fore
SplineSet
920 0 m 1,0,-1
 773 0 l 1,1,2
 773 -252 773 -252 601 -448 c 0,3,4
 546 -510 546 -510 531 -510 c 0,5,6
 280 -510 280 -510 132 -459 c 0,7,8
 117 -455 117 -455 117 -449 c 0,9,10
 117 -445 117 -445 130 -440 c 0,11,12
 304 -377 304 -377 477 -240 c 0,13,14
 662 -94 662 -94 662 4 c 1,15,16
 656 4 656 4 636.5 4 c 128,-1,17
 617 4 617 4 595.5 3.5 c 128,-1,18
 574 3 574 3 554.5 3 c 128,-1,19
 535 3 535 3 529 3 c 0,20,21
 391 3 391 3 333 33 c 0,22,23
 250 75 250 75 250 191 c 0,24,25
 250 297 250 297 317 432 c 0,26,27
 398 597 398 597 509 597 c 0,28,29
 558 597 558 597 601.5 572 c 128,-1,30
 645 547 645 547 679.5 502 c 128,-1,31
 714 457 714 457 738 394.5 c 128,-1,32
 762 332 762 332 773 257 c 1,33,-1
 920 257 l 1,34,-1
 920 0 l 1,0,-1
625 254 m 1,35,36
 614 282 614 282 595 306.5 c 128,-1,37
 576 331 576 331 553.5 349 c 128,-1,38
 531 367 531 367 507 377 c 128,-1,39
 483 387 483 387 462 387 c 0,40,41
 447 387 447 387 432 381 c 128,-1,42
 417 375 417 375 405 365 c 128,-1,43
 393 355 393 355 386 341.5 c 128,-1,44
 379 328 379 328 379 313 c 0,45,46
 379 243 379 243 491 243 c 0,47,48
 517 243 517 243 550 246 c 128,-1,49
 583 249 583 249 625 254 c 1,35,36
EndSplineSet
PairPos2: "'kern' Horizontal Kerning in Arabic lookup 1 subtable" afii62840 dx=0 dy=0 dh=0 dv=0 dx=0 dy=0 dh=-100 dv=0
PairPos2: "'kern' Horizontal Kerning in Arabic lookup 1 subtable" afii62838 dx=0 dy=0 dh=0 dv=0 dx=0 dy=0 dh=-100 dv=0
PairPos2: "'kern' Horizontal Kerning in Arabic lookup 1 subtable" afii62836 dx=0 dy=0 dh=0 dv=0 dx=0 dy=0 dh=-100 dv=0
PairPos2: "'kern' Horizontal Kerning in Arabic lookup 1 subtable" afii62834 dx=0 dy=0 dh=0 dv=0 dx=0 dy=0 dh=-100 dv=0
PairPos2: "'kern' Horizontal Kerning in Arabic lookup 0 subtable" afii57410 dx=0 dy=0 dh=0 dv=0 dx=0 dy=0 dh=-100 dv=0
PairPos2: "'kern' Horizontal Kerning in Arabic lookup 0 subtable" afii62965 dx=0 dy=0 dh=0 dv=0 dx=0 dy=0 dh=-100 dv=0
PairPos2: "'kern' Horizontal Kerning in Arabic lookup 0 subtable" afii57509 dx=0 dy=0 dh=0 dv=0 dx=0 dy=0 dh=-100 dv=0
PairPos2: "'kern' Horizontal Kerning in Arabic lookup 0 subtable" afii52305 dx=0 dy=0 dh=0 dv=0 dx=0 dy=0 dh=-100 dv=0
PairPos2: "'kern' Horizontal Kerning in Arabic lookup 0 subtable" afii57567 dx=0 dy=0 dh=0 dv=0 dx=0 dy=0 dh=-100 dv=0
EndChar

StartChar: afii62840
Encoding: 65275 65275 268
Width: 1110
GlyphClass: 3
Flags: W
AnchorPoint: "Anchor-1" 765 -450 baselig 0
AnchorPoint: "Anchor-0" 855 1350 baselig 0
AnchorPoint: "Anchor-1" 390 -465 baselig 1
AnchorPoint: "Anchor-0" 225 1260 baselig 1
LayerCount: 2
Fore
SplineSet
1104 990 m 0,0,1
 1106 984 1106 984 1106 983 c 0,2,3
 1106 978 1106 978 1092 978 c 0,4,5
 1070 978 1070 978 1024 988 c 1,6,7
 1024 727 1024 727 942 544 c 0,8,9
 891 429 891 429 830 377 c 1,10,11
 898 264 898 264 898 188 c 0,12,13
 898 37 898 37 790 -18 c 0,14,15
 717 -55 717 -55 477 -55 c 0,16,17
 436 -55 436 -55 401.5 -53 c 128,-1,18
 367 -51 367 -51 338 -47 c 1,19,-1
 415 196 l 1,20,21
 552 259 552 259 662 373 c 1,22,23
 590 464 590 464 501 559.5 c 128,-1,24
 412 655 412 655 303 758 c 1,25,26
 281 688 281 688 276 685 c 0,27,28
 272 686 272 686 264 696 c 0,29,30
 109 898 109 898 109 927 c 0,31,32
 109 991 109 991 157 1147 c 0,33,34
 163 1166 163 1166 166 1167 c 0,35,36
 168 1167 168 1167 181 1157 c 0,37,38
 275 1086 275 1086 420 919 c 128,-1,39
 565 752 565 752 761 489 c 1,40,41
 839 561 839 561 839 734 c 2,42,-1
 839 920 l 2,43,44
 839 991 839 991 809 1105 c 1,45,-1
 977 1269 l 2,46,47
 981 1273 981 1273 985 1273 c 0,48,49
 990 1273 990 1273 994 1263 c 0,50,51
 1020 1185 1020 1185 1047.5 1117.5 c 128,-1,52
 1075 1050 1075 1050 1104 990 c 0,0,1
785 180 m 1,53,54
 770 239 770 239 727 279 c 1,55,56
 643 212 643 212 573 167 c 1,57,58
 606 158 606 158 661 158 c 0,59,60
 746 158 746 158 785 180 c 1,53,54
EndSplineSet
Ligature2: "'rlig' Required Ligatures in Arabic lookup 6 subtable" afii62817 afii62760
Substitution2: "'fina' Terminal Forms in Arabic lookup 2 subtable" afii62841
PairPos2: "'kern' Horizontal Kerning in Arabic lookup 0 subtable" afii57445 dx=0 dy=0 dh=0 dv=0 dx=0 dy=0 dh=-70 dv=0
PairPos2: "'kern' Horizontal Kerning in Arabic lookup 0 subtable" afii62817 dx=0 dy=0 dh=0 dv=0 dx=0 dy=0 dh=30 dv=0
PairPos2: "'kern' Horizontal Kerning in Arabic lookup 0 subtable" afii57410 dx=0 dy=0 dh=0 dv=0 dx=0 dy=0 dh=100 dv=0
PairPos2: "'kern' Horizontal Kerning in Arabic lookup 0 subtable" afii57443 dx=0 dy=0 dh=0 dv=0 dx=0 dy=0 dh=30 dv=0
PairPos2: "'kern' Horizontal Kerning in Arabic lookup 0 subtable" afii57434 dx=0 dy=0 dh=0 dv=0 dx=0 dy=0 dh=-80 dv=0
PairPos2: "'kern' Horizontal Kerning in Arabic lookup 0 subtable" afii57433 dx=0 dy=0 dh=0 dv=0 dx=0 dy=0 dh=-80 dv=0
PairPos2: "'kern' Horizontal Kerning in Arabic lookup 0 subtable" afii62965 dx=0 dy=0 dh=0 dv=0 dx=0 dy=0 dh=100 dv=0
PairPos2: "'kern' Horizontal Kerning in Arabic lookup 0 subtable" afii57509 dx=0 dy=0 dh=0 dv=0 dx=0 dy=0 dh=100 dv=0
PairPos2: "'kern' Horizontal Kerning in Arabic lookup 0 subtable" afii52305 dx=0 dy=0 dh=0 dv=0 dx=0 dy=0 dh=100 dv=0
PairPos2: "'kern' Horizontal Kerning in Arabic lookup 0 subtable" afii57567 dx=0 dy=0 dh=0 dv=0 dx=0 dy=0 dh=100 dv=0
EndChar

StartChar: afii62841
Encoding: 65276 65276 269
Width: 1273
GlyphClass: 3
Flags: W
AnchorPoint: "Anchor-1" 945 -495 baselig 0
AnchorPoint: "Anchor-0" 990 1335 baselig 0
AnchorPoint: "Anchor-1" 435 -510 baselig 1
AnchorPoint: "Anchor-0" 165 1245 baselig 1
LayerCount: 2
Fore
SplineSet
1273 0 m 1,0,-1
 1238 0 l 2,1,2
 1059 0 1059 0 988 134 c 0,3,4
 963 182 963 182 948.5 259.5 c 128,-1,5
 934 337 934 337 930 446 c 1,6,7
 808 111 808 111 669 -4 c 0,8,9
 646 -23 646 -23 242 -45 c 0,10,11
 230 -46 230 -46 219.5 -46.5 c 128,-1,12
 209 -47 209 -47 201 -47 c 0,13,14
 166 -47 166 -47 166 -41 c 0,15,16
 166 -33 166 -33 229 -3 c 0,17,18
 320 41 320 41 404.5 89.5 c 128,-1,19
 489 138 489 138 553.5 183 c 128,-1,20
 618 228 618 228 656.5 265 c 128,-1,21
 695 302 695 302 695 324 c 0,22,23
 695 366 695 366 591 496 c 0,24,25
 466 652 466 652 303 762 c 1,26,-1
 292 677 l 1,27,28
 264 703 264 703 234 734 c 128,-1,29
 204 765 204 765 171 803 c 0,30,31
 92 892 92 892 92 917 c 0,32,33
 92 1006 92 1006 118 1125 c 0,34,35
 122 1148 122 1148 128 1148 c 0,36,37
 131 1148 131 1148 148 1138 c 0,38,39
 481 899 481 899 646 673 c 0,40,41
 759 518 759 518 775 396 c 1,42,43
 918 569 918 569 918 964 c 0,44,45
 918 1042 918 1042 912 1125 c 1,46,-1
 1063 1244 l 2,47,48
 1082 1258 1082 1258 1086 1258 c 0,49,50
 1092 1258 1092 1258 1092 1232 c 2,51,-1
 1092 413 l 2,52,53
 1092 257 1092 257 1256 257 c 2,54,-1
 1273 257 l 1,55,-1
 1273 0 l 1,0,-1
EndSplineSet
Ligature2: "'rlig' Required Ligatures in Arabic lookup 6 subtable" afii62818 afii62760
PairPos2: "'kern' Horizontal Kerning in Arabic lookup 0 subtable" afii62817 dx=0 dy=0 dh=0 dv=0 dx=0 dy=0 dh=70 dv=0
PairPos2: "'kern' Horizontal Kerning in Arabic lookup 0 subtable" afii57410 dx=0 dy=0 dh=0 dv=0 dx=0 dy=0 dh=70 dv=0
PairPos2: "'kern' Horizontal Kerning in Arabic lookup 0 subtable" afii57443 dx=0 dy=0 dh=0 dv=0 dx=0 dy=0 dh=70 dv=0
PairPos2: "'kern' Horizontal Kerning in Arabic lookup 0 subtable" afii62965 dx=0 dy=0 dh=0 dv=0 dx=0 dy=0 dh=70 dv=0
PairPos2: "'kern' Horizontal Kerning in Arabic lookup 0 subtable" afii57509 dx=0 dy=0 dh=0 dv=0 dx=0 dy=0 dh=70 dv=0
PairPos2: "'kern' Horizontal Kerning in Arabic lookup 0 subtable" afii52305 dx=0 dy=0 dh=0 dv=0 dx=0 dy=0 dh=70 dv=0
PairPos2: "'kern' Horizontal Kerning in Arabic lookup 0 subtable" afii57567 dx=0 dy=0 dh=0 dv=0 dx=0 dy=0 dh=70 dv=0
EndChar

StartChar: afii59759
Encoding: 3663 3663 276
Width: 1233
GlyphClass: 2
Flags: W
LayerCount: 2
Fore
SplineSet
616 983 m 0,0,1
 823 983 823 983 969.5 836.5 c 128,-1,2
 1116 690 1116 690 1116 483 c 0,3,4
 1116 277 1116 277 969.5 130.5 c 128,-1,5
 823 -16 823 -16 616 -16 c 0,6,7
 410 -16 410 -16 263.5 130.5 c 128,-1,8
 117 277 117 277 117 483 c 0,9,10
 117 690 117 690 263.5 836.5 c 128,-1,11
 410 983 410 983 616 983 c 0,0,1
616 147 m 0,12,13
 758 147 758 147 849 242 c 128,-1,14
 940 337 940 337 940 483 c 256,15,16
 940 629 940 629 849 724 c 128,-1,17
 758 819 758 819 616 819 c 0,18,19
 475 819 475 819 384 724 c 128,-1,20
 293 629 293 629 293 483 c 256,21,22
 293 337 293 337 384 242 c 128,-1,23
 475 147 475 147 616 147 c 0,12,13
616 598 m 0,24,25
 664 598 664 598 697.5 565 c 128,-1,26
 731 532 731 532 731 485 c 256,27,28
 731 438 731 438 697.5 404.5 c 128,-1,29
 664 371 664 371 616 371 c 0,30,31
 569 371 569 371 535.5 404.5 c 128,-1,32
 502 438 502 438 502 485 c 256,33,34
 502 532 502 532 535.5 565 c 128,-1,35
 569 598 569 598 616 598 c 0,24,25
EndSplineSet
EndChar

StartChar: afii59760
Encoding: 3664 3664 277
Width: 1233
GlyphClass: 2
Flags: W
LayerCount: 2
Fore
SplineSet
616 924 m 0,0,1
 834 924 834 924 975 794.5 c 128,-1,2
 1116 665 1116 665 1116 453 c 0,3,4
 1116 242 1116 242 975 113 c 128,-1,5
 834 -16 834 -16 616 -16 c 0,6,7
 399 -16 399 -16 258 113 c 128,-1,8
 117 242 117 242 117 453 c 0,9,10
 117 665 117 665 258 794.5 c 128,-1,11
 399 924 399 924 616 924 c 0,0,1
616 150 m 0,12,13
 765 150 765 150 852.5 231 c 128,-1,14
 940 312 940 312 940 453 c 256,15,16
 940 594 940 594 852 677 c 128,-1,17
 764 760 764 760 616 760 c 0,18,19
 469 760 469 760 381 677 c 128,-1,20
 293 594 293 594 293 453 c 0,21,22
 293 310 293 310 381.5 230 c 128,-1,23
 470 150 470 150 616 150 c 0,12,13
EndSplineSet
EndChar

StartChar: glyph279
Encoding: 65559 -1 279
Width: 0
GlyphClass: 2
Flags: W
LayerCount: 2
Fore
SplineSet
36 1831 m 1,0,-1
 36 863 l 1,1,-1
 -36 863 l 1,2,-1
 -36 1831 l 1,3,-1
 36 1831 l 1,0,-1
36 543 m 1,4,-1
 36 -423 l 1,5,-1
 -36 -423 l 1,6,-1
 -36 543 l 1,7,-1
 36 543 l 1,4,-1
EndSplineSet
EndChar

StartChar: glyph280
Encoding: 65560 -1 280
Width: 0
GlyphClass: 2
Flags: W
LayerCount: 2
Fore
SplineSet
-234 -423 m 1,0,-1
 -234 -352 l 1,1,-1
 -36 -352 l 1,2,-1
 -36 1760 l 1,3,-1
 -234 1760 l 1,4,-1
 -234 1831 l 1,5,-1
 234 1831 l 1,6,-1
 234 1760 l 1,7,-1
 36 1760 l 1,8,-1
 36 -352 l 1,9,-1
 234 -352 l 1,10,-1
 234 -423 l 1,11,-1
 -234 -423 l 1,0,-1
EndSplineSet
EndChar

StartChar: glyph281
Encoding: 65561 -1 281
Width: 0
GlyphClass: 2
Flags: W
LayerCount: 2
Fore
SplineSet
224 1646 m 1,0,-1
 36 1504 l 1,1,-1
 36 -423 l 1,2,-1
 -36 -423 l 1,3,-1
 -36 1831 l 1,4,-1
 224 1646 l 1,0,-1
EndSplineSet
EndChar

StartChar: glyph282
Encoding: 65562 -1 282
Width: 0
GlyphClass: 2
Flags: W
LayerCount: 2
Fore
SplineSet
36 1831 m 1,0,-1
 36 -423 l 1,1,-1
 -36 -423 l 1,2,-1
 -36 1504 l 1,3,-1
 -224 1646 l 1,4,-1
 36 1831 l 1,0,-1
EndSplineSet
EndChar

StartChar: glyph283
Encoding: 65563 -1 283
Width: 0
GlyphClass: 2
Flags: W
LayerCount: 2
Fore
SplineSet
36 1831 m 1,0,-1
 36 -352 l 1,1,-1
 234 -352 l 1,2,-1
 234 -423 l 1,3,-1
 -36 -423 l 1,4,-1
 -36 1831 l 1,5,-1
 36 1831 l 1,0,-1
EndSplineSet
EndChar

StartChar: glyph284
Encoding: 65564 -1 284
Width: 0
GlyphClass: 2
Flags: W
LayerCount: 2
Fore
SplineSet
224 1646 m 1,0,-1
 36 1504 l 1,1,-1
 36 -423 l 1,2,-1
 -36 -423 l 1,3,-1
 -36 1504 l 1,4,-1
 -224 1641 l 1,5,-1
 0 1831 l 1,6,-1
 224 1646 l 1,0,-1
EndSplineSet
EndChar

StartChar: uni0670
Encoding: 1648 1648 297
Width: 0
GlyphClass: 4
Flags: W
AnchorPoint: "Anchor-2" 0 0 mark 0
AnchorPoint: "Anchor-0" 0 0 mark 0
LayerCount: 2
Fore
SplineSet
20 60 m 1,0,-1
 -31 -17 l 1,1,2
 -37 -17 -37 -17 -41 4 c 0,3,4
 -56 91 -56 91 -88 321 c 1,5,-1
 -1 381 l 2,6,7
 6 385 6 385 11 385 c 0,8,9
 17 385 17 385 18 378 c 0,10,11
 18 283 18 283 20 60 c 1,0,-1
EndSplineSet
EndChar

StartChar: glyph298
Encoding: 65565 -1 298
Width: 458
GlyphClass: 2
Flags: W
LayerCount: 2
Fore
SplineSet
235 1433 m 2,0,1
 266 1457 266 1457 294 1461.5 c 128,-1,2
 322 1466 322 1466 343 1455 c 128,-1,3
 364 1444 364 1444 377 1419 c 128,-1,4
 390 1394 390 1394 390 1357 c 2,5,-1
 389 1277 l 1,6,-1
 69 1277 l 1,7,-1
 69 1335 l 1,8,-1
 123 1335 l 1,9,-1
 235 1433 l 2,0,1
203 1335 m 1,10,-1
 331 1335 l 1,11,-1
 331 1365 l 2,12,13
 329 1394 329 1394 311 1402 c 128,-1,14
 293 1410 293 1410 263 1388 c 2,15,-1
 203 1335 l 1,10,-1
EndSplineSet
EndChar

StartChar: glyph299
Encoding: 65566 -1 299
Width: 1267
GlyphClass: 2
Flags: W
LayerCount: 2
Fore
SplineSet
1225 -34 m 2,0,1
 1225 -506 1225 -506 584 -506 c 0,2,3
 353 -506 353 -506 240 -379 c 0,4,5
 149 -277 149 -277 149 -122 c 0,6,7
 149 -43 149 -43 197 108 c 0,8,9
 253 285 253 285 310 285 c 0,10,11
 350 285 350 285 350 230 c 0,12,13
 350 224 350 224 319.5 132 c 128,-1,14
 289 40 289 40 289 -13 c 0,15,16
 289 -155 289 -155 402 -212 c 0,17,18
 483 -253 483 -253 645 -254 c 0,19,20
 793 -255 793 -255 934 -216 c 0,21,22
 1124 -163 1124 -163 1124 -55 c 0,23,24
 1124 -28 1124 -28 1112 2 c 1,25,26
 1085 2 1085 2 1032 0.5 c 128,-1,27
 979 -1 979 -1 952 -1 c 0,28,29
 823 -1 823 -1 764 27 c 0,30,31
 684 65 684 65 684 165 c 0,32,33
 684 294 684 294 745 426 c 0,34,35
 820 589 820 589 933 589 c 0,36,37
 1067 589 1067 589 1151 440 c 0,38,39
 1225 309 1225 309 1225 144 c 2,40,-1
 1225 -34 l 2,0,1
1057 243 m 1,41,42
 1030 310 1030 310 972 347 c 0,43,44
 928 375 928 375 893 375 c 0,45,46
 862 375 862 375 836 353.5 c 128,-1,47
 810 332 810 332 810 301 c 0,48,49
 810 231 810 231 946 231 c 0,50,51
 997 231 997 231 1057 243 c 1,41,42
EndSplineSet
EndChar

StartChar: uni06DD
Encoding: 1757 1757 388
Width: 2300
GlyphClass: 2
Flags: W
LayerCount: 2
Fore
SplineSet
2250 715 m 256,0,1
 2250 469 2250 469 2146 249 c 0,2,3
 2046 35 2046 35 1867 -119 c 1,4,5
 1870 -133 1870 -133 1870 -148 c 0,6,7
 1870 -203 1870 -203 1831 -241.5 c 128,-1,8
 1792 -280 1792 -280 1737 -280 c 0,9,10
 1697 -280 1697 -280 1664 -258 c 1,11,12
 1424 -385 1424 -385 1149 -385 c 0,13,14
 876 -385 876 -385 636 -258 c 1,15,16
 603 -280 603 -280 563 -280 c 0,17,18
 508 -280 508 -280 469 -241.5 c 128,-1,19
 430 -203 430 -203 430 -148 c 0,20,21
 430 -133 430 -133 433 -119 c 1,22,23
 254 35 254 35 154 249 c 0,24,25
 50 469 50 469 50 715 c 256,26,27
 50 961 50 961 154 1181 c 0,28,29
 254 1394 254 1394 433 1548 c 1,30,31
 430 1562 430 1562 430 1577 c 0,32,33
 430 1632 430 1632 469 1670.5 c 128,-1,34
 508 1709 508 1709 563 1709 c 0,35,36
 603 1709 603 1709 636 1687 c 1,37,38
 876 1814 876 1814 1151 1814 c 0,39,40
 1424 1814 1424 1814 1664 1687 c 1,41,42
 1697 1709 1697 1709 1737 1709 c 0,43,44
 1792 1709 1792 1709 1831 1670.5 c 128,-1,45
 1870 1632 1870 1632 1870 1577 c 0,46,47
 1870 1562 1870 1562 1867 1548 c 1,48,49
 2046 1394 2046 1394 2146 1181 c 0,50,51
 2250 961 2250 961 2250 715 c 256,0,1
1816 1576 m 0,52,53
 1816 1609 1816 1609 1793 1632 c 128,-1,54
 1770 1655 1770 1655 1738 1655 c 256,55,56
 1706 1655 1706 1655 1682.5 1631.5 c 128,-1,57
 1659 1608 1659 1608 1659 1576 c 256,58,59
 1659 1544 1659 1544 1682 1521 c 128,-1,60
 1705 1498 1705 1498 1738 1498 c 0,61,62
 1770 1498 1770 1498 1793 1521 c 128,-1,63
 1816 1544 1816 1544 1816 1576 c 0,52,53
1602 1595 m 1,64,65
 1390 1704 1390 1704 1151 1704 c 0,66,67
 910 1704 910 1704 698 1595 c 1,68,-1
 1602 1595 l 1,64,65
641 1576 m 256,69,70
 641 1608 641 1608 617.5 1631.5 c 128,-1,71
 594 1655 594 1655 562 1655 c 256,72,73
 530 1655 530 1655 507 1632 c 128,-1,74
 484 1609 484 1609 484 1576 c 0,75,76
 484 1544 484 1544 507 1521 c 128,-1,77
 530 1498 530 1498 562 1498 c 0,78,79
 595 1498 595 1498 618 1521 c 128,-1,80
 641 1544 641 1544 641 1576 c 256,69,70
2140 714 m 0,81,82
 2140 933 2140 933 2048 1131 c 0,83,84
 1960 1321 1960 1321 1801 1460 c 1,85,86
 1772 1444 1772 1444 1737 1444 c 0,87,88
 1681 1444 1681 1444 1642 1485 c 1,89,-1
 658 1485 l 1,90,91
 619 1444 619 1444 563 1444 c 0,92,93
 528 1444 528 1444 499 1460 c 1,94,95
 340 1321 340 1321 252 1131 c 0,96,97
 160 933 160 933 160 714 c 0,98,99
 160 265 160 265 499 -31 c 1,100,101
 528 -15 528 -15 563 -15 c 0,102,103
 619 -15 619 -15 658 -56 c 1,104,-1
 1642 -56 l 1,105,106
 1681 -15 1681 -15 1737 -15 c 0,107,108
 1772 -15 1772 -15 1801 -31 c 1,109,110
 2140 265 2140 265 2140 714 c 0,81,82
1816 -147 m 0,111,112
 1816 -115 1816 -115 1793 -92 c 128,-1,113
 1770 -69 1770 -69 1738 -69 c 0,114,115
 1705 -69 1705 -69 1682 -92 c 128,-1,116
 1659 -115 1659 -115 1659 -147 c 256,117,118
 1659 -179 1659 -179 1682.5 -202.5 c 128,-1,119
 1706 -226 1706 -226 1738 -226 c 256,120,121
 1770 -226 1770 -226 1793 -203 c 128,-1,122
 1816 -180 1816 -180 1816 -147 c 0,111,112
1602 -166 m 1,123,-1
 698 -166 l 1,124,125
 910 -275 910 -275 1151 -275 c 0,126,127
 1390 -275 1390 -275 1602 -166 c 1,123,-1
641 -147 m 256,128,129
 641 -115 641 -115 618 -92 c 128,-1,130
 595 -69 595 -69 562 -69 c 0,131,132
 530 -69 530 -69 507 -92 c 128,-1,133
 484 -115 484 -115 484 -147 c 0,134,135
 484 -180 484 -180 507 -203 c 128,-1,136
 530 -226 530 -226 562 -226 c 256,137,138
 594 -226 594 -226 617.5 -202.5 c 128,-1,139
 641 -179 641 -179 641 -147 c 256,128,129
EndSplineSet
EndChar

StartChar: uni06DE
Encoding: 1758 1758 389
Width: 2221
GlyphClass: 2
Flags: W
LayerCount: 2
Fore
SplineSet
2171 750 m 1,0,-1
 1861 439 l 1,1,-1
 1861 0 l 1,2,-1
 1421 0 l 1,3,-1
 1111 -311 l 1,4,-1
 800 0 l 1,5,-1
 361 0 l 1,6,-1
 361 439 l 1,7,-1
 50 750 l 1,8,-1
 361 1061 l 1,9,-1
 361 1500 l 1,10,-1
 800 1500 l 1,11,-1
 1111 1811 l 1,12,-1
 1421 1500 l 1,13,-1
 1861 1500 l 1,14,-1
 1861 1061 l 1,15,-1
 2171 750 l 1,0,-1
436 364 m 1,16,-1
 436 75 l 1,17,-1
 725 75 l 1,18,-1
 436 364 l 1,16,-1
725 1425 m 1,19,-1
 436 1425 l 1,20,-1
 436 1136 l 1,21,-1
 725 1425 l 1,19,-1
1786 1136 m 1,22,-1
 1786 1425 l 1,23,-1
 1496 1425 l 1,24,-1
 1786 1136 l 1,22,-1
1786 75 m 1,25,-1
 1786 364 l 1,26,-1
 1496 75 l 1,27,-1
 1786 75 l 1,25,-1
906 0 m 1,28,-1
 1111 -205 l 1,29,-1
 1315 0 l 1,30,-1
 906 0 l 1,28,-1
361 955 m 1,31,-1
 156 750 l 1,32,-1
 361 545 l 1,33,-1
 361 955 l 1,31,-1
1315 1500 m 1,34,-1
 1111 1705 l 1,35,-1
 906 1500 l 1,36,-1
 1315 1500 l 1,34,-1
1786 1030 m 1,37,-1
 1390 1425 l 1,38,-1
 831 1425 l 1,39,-1
 436 1030 l 1,40,-1
 436 470 l 1,41,-1
 831 75 l 1,42,-1
 1390 75 l 1,43,-1
 1786 470 l 1,44,-1
 1786 1030 l 1,37,-1
2065 750 m 1,45,-1
 1861 955 l 1,46,-1
 1861 545 l 1,47,-1
 2065 750 l 1,45,-1
1328 750 m 256,48,49
 1328 660 1328 660 1264.5 596 c 128,-1,50
 1201 532 1201 532 1111 532 c 256,51,52
 1021 532 1021 532 957 596 c 128,-1,53
 893 660 893 660 893 750 c 256,54,55
 893 840 893 840 957 903.5 c 128,-1,56
 1021 967 1021 967 1111 967 c 256,57,58
 1201 967 1201 967 1264.5 903.5 c 128,-1,59
 1328 840 1328 840 1328 750 c 256,48,49
1253 750 m 256,60,61
 1253 809 1253 809 1211 850.5 c 128,-1,62
 1169 892 1169 892 1110 892 c 256,63,64
 1051 892 1051 892 1009 850.5 c 128,-1,65
 967 809 967 809 967 750 c 256,66,67
 967 691 967 691 1009 649 c 128,-1,68
 1051 607 1051 607 1110 607 c 256,69,70
 1169 607 1169 607 1211 649 c 128,-1,71
 1253 691 1253 691 1253 750 c 256,60,61
EndSplineSet
EndChar

StartChar: uni06DF
Encoding: 1759 1759 390
Width: 0
GlyphClass: 2
Flags: W
LayerCount: 2
Fore
SplineSet
75 1429 m 256,0,1
 75 1398 75 1398 53 1376 c 128,-1,2
 31 1354 31 1354 0 1354 c 256,3,4
 -31 1354 -31 1354 -53 1376 c 128,-1,5
 -75 1398 -75 1398 -75 1429 c 256,6,7
 -75 1460 -75 1460 -53 1482 c 128,-1,8
 -31 1504 -31 1504 0 1504 c 256,9,10
 31 1504 31 1504 53 1482 c 128,-1,11
 75 1460 75 1460 75 1429 c 256,0,1
EndSplineSet
EndChar

StartChar: uni06E9
Encoding: 1769 1769 391
Width: 1229
GlyphClass: 2
Flags: W
LayerCount: 2
Fore
SplineSet
1179 0 m 1,0,-1
 50 0 l 1,1,-1
 278 261 l 1,2,-1
 278 849 l 1,3,-1
 50 1108 l 1,4,-1
 614 1676 l 1,5,-1
 1179 1108 l 1,6,-1
 951 849 l 1,7,-1
 951 261 l 1,8,-1
 1179 0 l 1,0,-1
1101 1108 m 1,9,-1
 614 1598 l 1,10,-1
 128 1108 l 1,11,-1
 338 871 l 1,12,-1
 338 239 l 1,13,-1
 178 56 l 1,14,-1
 1051 56 l 1,15,-1
 891 239 l 1,16,-1
 891 871 l 1,17,-1
 1101 1108 l 1,9,-1
995 1108 m 1,18,-1
 845 937 l 1,19,-1
 845 131 l 1,20,-1
 384 131 l 1,21,-1
 384 937 l 1,22,-1
 234 1108 l 1,23,-1
 614 1489 l 1,24,-1
 995 1108 l 1,18,-1
922 1108 m 1,25,-1
 614 1416 l 1,26,-1
 307 1108 l 1,27,-1
 433 968 l 1,28,-1
 433 186 l 1,29,-1
 796 186 l 1,30,-1
 796 968 l 1,31,-1
 922 1108 l 1,25,-1
833 1108 m 1,32,-1
 745 1011 l 1,33,-1
 745 267 l 1,34,-1
 484 267 l 1,35,-1
 484 1011 l 1,36,-1
 396 1108 l 1,37,-1
 614 1331 l 1,38,-1
 833 1108 l 1,32,-1
780 1108 m 1,39,-1
 614 1278 l 1,40,-1
 449 1108 l 1,41,-1
 523 1027 l 1,42,-1
 523 309 l 1,43,-1
 705 309 l 1,44,-1
 705 1027 l 1,45,-1
 780 1108 l 1,39,-1
EndSplineSet
EndChar

StartChar: uni06EB
Encoding: 1771 1771 393
Width: 0
GlyphClass: 2
Flags: W
LayerCount: 2
Fore
SplineSet
168 1522 m 1,0,-1
 -1 1354 l 1,1,-1
 -168 1521 l 1,2,-1
 1 1689 l 1,3,-1
 168 1522 l 1,0,-1
104 1522 m 1,4,-1
 0 1626 l 1,5,-1
 -104 1521 l 1,6,-1
 0 1417 l 1,7,-1
 104 1522 l 1,4,-1
EndSplineSet
EndChar

StartChar: comma
Encoding: 44 44 402
Width: 515
Flags: W
LayerCount: 2
Fore
SplineSet
152 -270 m 1,0,1
 249 -202 249 -202 293.5 -147 c 128,-1,2
 338 -92 338 -92 338 -42 c 0,3,4
 338 -28 338 -28 329 -17.5 c 128,-1,5
 320 -7 320 -7 308 -7 c 2,6,-1
 295 -7 l 1,7,-1
 274 -10 l 1,8,-1
 261 -10 l 2,9,10
 253 -10 253 -10 242.5 -7.5 c 128,-1,11
 232 -5 232 -5 221.5 -1 c 128,-1,12
 211 3 211 3 201 8.5 c 128,-1,13
 191 14 191 14 184 20 c 0,14,15
 162 36 162 36 151 62.5 c 128,-1,16
 140 89 140 89 140 122 c 0,17,18
 140 187 140 187 179 225.5 c 128,-1,19
 218 264 218 264 281 264 c 0,20,21
 319 264 319 264 351 249.5 c 128,-1,22
 383 235 383 235 406 209 c 128,-1,23
 429 183 429 183 441.5 147 c 128,-1,24
 454 111 454 111 454 67 c 0,25,26
 454 12 454 12 437 -37.5 c 128,-1,27
 420 -87 420 -87 386 -132.5 c 128,-1,28
 352 -178 352 -178 298.5 -221.5 c 128,-1,29
 245 -265 245 -265 171 -308 c 1,30,-1
 152 -270 l 1,0,1
EndSplineSet
EndChar

StartChar: afii57407
Encoding: 1567 1567 403
Width: 764
GlyphClass: 2
Flags: W
LayerCount: 2
Fore
SplineSet
670 960 m 0,0,1
 670 896 670 896 635 842 c 0,2,3
 596 781 596 781 535 781 c 0,4,5
 497 781 497 781 468 807 c 128,-1,6
 439 833 439 833 439 870 c 0,7,8
 439 985 439 985 541 985 c 0,9,10
 573 985 573 985 609 967 c 1,11,12
 618 1016 618 1016 572 1068 c 0,13,14
 517 1130 517 1130 424 1130 c 0,15,16
 349 1130 349 1130 303 1079.5 c 128,-1,17
 257 1029 257 1029 257 953 c 0,18,19
 257 866 257 866 356 702 c 128,-1,20
 455 538 455 538 455 434 c 0,21,22
 455 408 455 408 452 384 c 2,23,-1
 437 263 l 1,24,-1
 387 266 l 1,25,-1
 394 368 l 2,26,27
 399 439 399 439 324 512 c 2,28,-1
 179 653 l 1,29,30
 100 753 100 753 100 884 c 0,31,32
 100 1009 100 1009 189.5 1104.5 c 128,-1,33
 279 1200 279 1200 403 1200 c 0,34,35
 507 1200 507 1200 587 1133 c 0,36,37
 670 1063 670 1063 670 960 c 0,0,1
492 90 m 256,38,39
 492 53 492 53 465.5 27 c 128,-1,40
 439 1 439 1 402 1 c 256,41,42
 365 1 365 1 339 27 c 128,-1,43
 313 53 313 53 313 90 c 256,44,45
 313 127 313 127 339 153 c 128,-1,46
 365 179 365 179 402 179 c 256,47,48
 439 179 439 179 465.5 153 c 128,-1,49
 492 127 492 127 492 90 c 256,38,39
EndSplineSet
EndChar

StartChar: afii57392
Encoding: 1776 1776 404
Width: 734
Flags: W
LayerCount: 2
Fore
SplineSet
610 479 m 1,0,1
 556 430 556 430 483 359 c 0,2,3
 446 323 446 323 371 232 c 1,4,5
 316 299 316 299 254 366 c 0,6,7
 222 400 222 400 123 476 c 1,8,9
 187 530 187 530 248 590 c 0,10,11
 282 623 282 623 363 726 c 1,12,13
 418 661 418 661 470 604 c 0,14,15
 508 563 508 563 610 479 c 1,0,1
EndSplineSet
EndChar

StartChar: afii57393
Encoding: 1777 1777 405
Width: 705
Flags: W
LayerCount: 2
Fore
SplineSet
556 364 m 0,0,1
 556 195 556 195 526 62 c 0,2,3
 493 -85 493 -85 442 -85 c 0,4,5
 410 -85 410 -85 402 -19 c 0,6,7
 399 5 399 5 399 99 c 0,8,9
 399 613 399 613 140 983 c 1,10,11
 169 1031 169 1031 298 1228 c 1,12,13
 357 1188 357 1188 438 995 c 0,14,15
 556 715 556 715 556 364 c 0,0,1
EndSplineSet
EndChar

StartChar: afii57394
Encoding: 1778 1778 406
Width: 995
Flags: W
LayerCount: 2
Fore
SplineSet
885 1175 m 0,0,1
 885 1006 885 1006 795 893 c 0,2,3
 698 771 698 771 534 771 c 0,4,5
 516 771 516 771 499 773 c 1,6,7
 562 534 562 534 562 250 c 0,8,9
 562 -81 562 -81 465 -81 c 0,10,11
 432 -81 432 -81 427 -27 c 0,12,13
 423 31 423 31 415 147 c 0,14,15
 403 294 403 294 359 458 c 0,16,17
 295 699 295 699 108 991 c 1,18,-1
 253 1238 l 1,19,20
 285 1199 285 1199 351 1124 c 0,21,22
 430 1040 430 1040 556 1040 c 0,23,24
 657 1040 657 1040 718 1091 c 0,25,26
 753 1120 753 1120 787 1184 c 0,27,28
 814 1235 814 1235 835 1235 c 0,29,30
 885 1235 885 1235 885 1175 c 0,0,1
EndSplineSet
EndChar

StartChar: afii57395
Encoding: 1779 1779 407
Width: 1152
Flags: W
LayerCount: 2
Fore
SplineSet
1039 1145 m 0,0,1
 1039 1030 1039 1030 991 922 c 0,2,3
 930 784 930 784 825 784 c 0,4,5
 768 784 768 784 741 796.5 c 128,-1,6
 714 809 714 809 679 852 c 1,7,8
 613 753 613 753 496 748 c 1,9,10
 563 549 563 549 563 263 c 0,11,12
 563 134 563 134 543 40 c 0,13,14
 517 -82 517 -82 469 -82 c 0,15,16
 431 -82 431 -82 427 -31 c 0,17,18
 423 27 423 27 415 143 c 0,19,20
 402 292 402 292 353 473 c 0,21,22
 271 775 271 775 101 982 c 1,23,-1
 248 1241 l 1,24,25
 271 1222 271 1222 310 1157 c 0,26,27
 350 1089 350 1089 375 1065 c 0,28,29
 421 1020 421 1020 479 1020 c 0,30,31
 556 1020 556 1020 589 1075 c 0,32,33
 603 1098 603 1098 620 1176 c 0,34,35
 632 1231 632 1231 662 1231 c 0,36,37
 702 1231 702 1231 712 1181 c 0,38,39
 729 1094 729 1094 731 1090 c 0,40,41
 755 1040 755 1040 828 1040 c 0,42,43
 885 1040 885 1040 915 1091 c 0,44,45
 926 1110 926 1110 949 1184 c 0,46,47
 965 1235 965 1235 988 1235 c 0,48,49
 1039 1235 1039 1235 1039 1145 c 0,0,1
EndSplineSet
EndChar

StartChar: afii62843
Encoding: 1780 1780 408
Width: 1033
Flags: W
LayerCount: 2
Fore
SplineSet
923 903 m 0,0,1
 923 808 923 808 826 710 c 0,2,3
 715 597 715 597 561 597 c 0,4,5
 527 597 527 597 492 603 c 1,6,7
 530 389 530 389 530 336 c 0,8,9
 530 205 530 205 517 96 c 0,10,11
 494 -100 494 -100 437 -100 c 0,12,13
 388 -100 388 -100 380 35 c 0,14,15
 364 285 364 285 344 388 c 0,16,17
 281 704 281 704 107 930 c 1,18,19
 153 1017 153 1017 255 1191 c 1,20,21
 309 1147 309 1147 392 1013 c 1,22,23
 496 1213 496 1213 674 1213 c 0,24,25
 749 1213 749 1213 813 1153 c 0,26,27
 866 1103 866 1103 866 1076 c 0,28,29
 866 1035 866 1035 840 1035 c 0,30,31
 820 1035 820 1035 764 1052 c 128,-1,32
 708 1069 708 1069 672 1069 c 0,33,34
 589 1069 589 1069 543 1016 c 0,35,36
 507 974 507 974 507 923 c 0,37,38
 507 911 507 911 511 900 c 0,39,40
 545 807 545 807 681 807 c 0,41,42
 773 807 773 807 845 867 c 0,43,44
 908 920 908 920 913 920 c 0,45,46
 923 920 923 920 923 903 c 0,0,1
EndSplineSet
EndChar

StartChar: afii62844
Encoding: 1781 1781 409
Width: 1101
Flags: W
LayerCount: 2
Fore
SplineSet
991 286 m 0,0,1
 991 143 991 143 932 48 c 0,2,3
 861 -65 861 -65 727 -65 c 0,4,5
 618 -65 618 -65 562 41 c 1,6,7
 483 -81 483 -81 357 -81 c 0,8,9
 244 -81 244 -81 180 0 c 0,10,11
 121 75 121 75 121 191 c 0,12,13
 121 318 121 318 235 582 c 0,14,15
 324 787 324 787 410 929 c 1,16,-1
 371 974 l 1,17,-1
 475 1215 l 2,18,19
 484 1237 484 1237 493 1237 c 0,20,21
 500 1237 500 1237 514 1219 c 0,22,23
 750 921 750 921 857 726 c 0,24,25
 991 481 991 481 991 286 c 0,0,1
859 277 m 0,26,27
 859 362 859 362 712 573 c 0,28,29
 589 750 589 750 486 854 c 1,30,31
 427 747 427 747 358 567 c 0,32,33
 282 369 282 369 282 302 c 0,34,35
 282 183 282 183 392 183 c 0,36,37
 464 183 464 183 493 228 c 0,38,39
 503 243 503 243 522 312 c 0,40,41
 534 357 534 357 566 357 c 0,42,43
 606 357 606 357 618 314 c 0,44,45
 638 241 638 241 643 234 c 0,46,47
 671 191 671 191 750 191 c 0,48,49
 859 191 859 191 859 277 c 0,26,27
EndSplineSet
EndChar

StartChar: afii62845
Encoding: 1782 1782 410
Width: 1008
Flags: W
LayerCount: 2
Fore
SplineSet
894 846 m 0,0,1
 888 807 888 807 861 703 c 0,2,3
 830 586 830 586 818 576 c 1,4,5
 804 571 804 571 783 564 c 128,-1,6
 762 557 762 557 735 546 c 0,7,8
 648 513 648 513 554 429.5 c 128,-1,9
 460 346 460 346 355 213 c 0,10,11
 313 160 313 160 274.5 104.5 c 128,-1,12
 236 49 236 49 199 -11 c 0,13,14
 161 -71 161 -71 136 -71 c 0,15,16
 112 -71 112 -71 112 -19 c 0,17,18
 112 47 112 47 140.5 132.5 c 128,-1,19
 169 218 169 218 219 316 c 0,20,21
 262 400 262 400 379 544 c 1,22,23
 157 598 157 598 157 801 c 0,24,25
 157 901 157 901 273 1038 c 0,26,27
 436 1228 436 1228 556 1228 c 0,28,29
 592 1228 592 1228 630 1210.5 c 128,-1,30
 668 1193 668 1193 699.5 1166 c 128,-1,31
 731 1139 731 1139 751.5 1105.5 c 128,-1,32
 772 1072 772 1072 772 1040 c 0,33,34
 772 1002 772 1002 752 1002 c 0,35,36
 746 1002 746 1002 718.5 1009.5 c 128,-1,37
 691 1017 691 1017 657 1026 c 128,-1,38
 623 1035 623 1035 590 1042.5 c 128,-1,39
 557 1050 557 1050 539 1050 c 0,40,41
 495 1050 495 1050 454.5 1036 c 128,-1,42
 414 1022 414 1022 383 999 c 128,-1,43
 352 976 352 976 334 947 c 128,-1,44
 316 918 316 918 316 889 c 0,45,46
 316 857 316 857 336 829 c 128,-1,47
 356 801 356 801 388 780.5 c 128,-1,48
 420 760 420 760 461 748 c 128,-1,49
 502 736 502 736 544 736 c 0,50,51
 594 736 594 736 728 814 c 0,52,53
 863 892 863 892 883 892 c 0,54,55
 896 892 896 892 896 868 c 0,56,57
 896 863 896 863 895.5 858 c 128,-1,58
 895 853 895 853 894 846 c 0,0,1
EndSplineSet
EndChar

StartChar: afii57399
Encoding: 1783 1783 411
Width: 1128
Flags: W
LayerCount: 2
Fore
SplineSet
1019 941 m 1,0,1
 835 711 835 711 738 448 c 0,2,3
 702 349 702 349 647 102 c 0,4,5
 610 -66 610 -66 576 -66 c 0,6,7
 535 -66 535 -66 506 58 c 0,8,9
 450 296 450 296 400 433 c 0,10,11
 293 727 293 727 110 931 c 1,12,-1
 202 1212 l 2,13,14
 211 1240 211 1240 218 1240 c 0,15,16
 224 1240 224 1240 241 1221 c 0,17,18
 350 1099 350 1099 448 849 c 0,19,20
 531 637 531 637 572 434 c 1,21,22
 605 630 605 630 677 830 c 0,23,24
 769 1087 769 1087 884 1223 c 0,25,26
 898 1240 898 1240 905 1240 c 0,27,28
 911 1240 911 1240 921 1212 c 2,29,-1
 1019 941 l 1,0,1
EndSplineSet
EndChar

StartChar: afii57400
Encoding: 1784 1784 412
Width: 1163
Flags: W
LayerCount: 2
Fore
SplineSet
144 231 m 1,0,1
 330 462 330 462 425 723 c 0,2,3
 460 818 460 818 516 1070 c 0,4,5
 553 1238 553 1238 587 1238 c 0,6,7
 628 1238 628 1238 657 1113 c 0,8,9
 711 881 711 881 763 739 c 0,10,11
 872 442 872 442 1053 240 c 1,12,-1
 961 -41 l 2,13,14
 952 -69 952 -69 945 -69 c 0,15,16
 939 -69 939 -69 921 -49 c 0,17,18
 811 74 811 74 714 323 c 0,19,20
 632 532 632 532 591 737 c 1,21,22
 558 545 558 545 485 342 c 0,23,24
 393 86 393 86 278 -51 c 0,25,26
 264 -68 264 -68 258 -68 c 0,27,28
 251 -68 251 -68 241 -41 c 2,29,-1
 144 231 l 1,0,1
EndSplineSet
EndChar

StartChar: afii57401
Encoding: 1785 1785 413
Width: 995
Flags: W
LayerCount: 2
Fore
SplineSet
882 196 m 1,0,-1
 800 -85 l 1,1,2
 631 40 631 40 581 259 c 0,3,4
 559 356 559 356 560 550 c 1,5,6
 477 542 477 542 426 542 c 0,7,8
 117 542 117 542 117 748 c 0,9,10
 117 852 117 852 183 1012 c 0,11,12
 274 1233 274 1233 421 1233 c 0,13,14
 714 1233 714 1233 714 758 c 0,15,16
 714 485 714 485 771 349 c 0,17,18
 800 280 800 280 882 196 c 1,0,-1
532 816 m 1,19,20
 531 878 531 878 484 923.5 c 128,-1,21
 437 969 437 969 374 969 c 0,22,23
 321 969 321 969 290 935 c 0,24,25
 267 909 267 909 267 881 c 0,26,27
 267 805 267 805 387 805 c 0,28,29
 506 805 506 805 532 816 c 1,19,20
EndSplineSet
EndChar

StartChar: afii57392.001
Encoding: 1632 1632 414
Width: 734
Flags: W
LayerCount: 2
Fore
SplineSet
610 479 m 1,0,1
 556 430 556 430 483 359 c 0,2,3
 446 323 446 323 371 232 c 1,4,5
 316 299 316 299 254 366 c 0,6,7
 222 400 222 400 123 476 c 1,8,9
 187 530 187 530 248 590 c 0,10,11
 282 623 282 623 363 726 c 1,12,13
 418 661 418 661 470 604 c 0,14,15
 508 563 508 563 610 479 c 1,0,1
EndSplineSet
EndChar

StartChar: afii57393.001
Encoding: 1633 1633 415
Width: 705
Flags: W
LayerCount: 2
Fore
SplineSet
556 364 m 0,0,1
 556 195 556 195 526 62 c 0,2,3
 493 -85 493 -85 442 -85 c 0,4,5
 410 -85 410 -85 402 -19 c 0,6,7
 399 5 399 5 399 99 c 0,8,9
 399 613 399 613 140 983 c 1,10,11
 169 1031 169 1031 298 1228 c 1,12,13
 357 1188 357 1188 438 995 c 0,14,15
 556 715 556 715 556 364 c 0,0,1
EndSplineSet
EndChar

StartChar: afii57394.001
Encoding: 1634 1634 416
Width: 995
Flags: W
LayerCount: 2
Fore
SplineSet
885 1175 m 0,0,1
 885 1006 885 1006 795 893 c 0,2,3
 698 771 698 771 534 771 c 0,4,5
 516 771 516 771 499 773 c 1,6,7
 562 534 562 534 562 250 c 0,8,9
 562 -81 562 -81 465 -81 c 0,10,11
 432 -81 432 -81 427 -27 c 0,12,13
 423 31 423 31 415 147 c 0,14,15
 403 294 403 294 359 458 c 0,16,17
 295 699 295 699 108 991 c 1,18,-1
 253 1238 l 1,19,20
 285 1199 285 1199 351 1124 c 0,21,22
 430 1040 430 1040 556 1040 c 0,23,24
 657 1040 657 1040 718 1091 c 0,25,26
 753 1120 753 1120 787 1184 c 0,27,28
 814 1235 814 1235 835 1235 c 0,29,30
 885 1235 885 1235 885 1175 c 0,0,1
EndSplineSet
EndChar

StartChar: afii57395.001
Encoding: 1635 1635 417
Width: 1152
Flags: W
LayerCount: 2
Fore
SplineSet
1039 1145 m 0,0,1
 1039 1030 1039 1030 991 922 c 0,2,3
 930 784 930 784 825 784 c 0,4,5
 768 784 768 784 741 796.5 c 128,-1,6
 714 809 714 809 679 852 c 1,7,8
 613 753 613 753 496 748 c 1,9,10
 563 549 563 549 563 263 c 0,11,12
 563 134 563 134 543 40 c 0,13,14
 517 -82 517 -82 469 -82 c 0,15,16
 431 -82 431 -82 427 -31 c 0,17,18
 423 27 423 27 415 143 c 0,19,20
 402 292 402 292 353 473 c 0,21,22
 271 775 271 775 101 982 c 1,23,-1
 248 1241 l 1,24,25
 271 1222 271 1222 310 1157 c 0,26,27
 350 1089 350 1089 375 1065 c 0,28,29
 421 1020 421 1020 479 1020 c 0,30,31
 556 1020 556 1020 589 1075 c 0,32,33
 603 1098 603 1098 620 1176 c 0,34,35
 632 1231 632 1231 662 1231 c 0,36,37
 702 1231 702 1231 712 1181 c 0,38,39
 729 1094 729 1094 731 1090 c 0,40,41
 755 1040 755 1040 828 1040 c 0,42,43
 885 1040 885 1040 915 1091 c 0,44,45
 926 1110 926 1110 949 1184 c 0,46,47
 965 1235 965 1235 988 1235 c 0,48,49
 1039 1235 1039 1235 1039 1145 c 0,0,1
EndSplineSet
EndChar

StartChar: afii57396
Encoding: 1636 1636 418
Width: 1033
Flags: W
LayerCount: 2
Fore
SplineSet
923 903 m 0,0,1
 923 808 923 808 826 710 c 0,2,3
 715 597 715 597 561 597 c 0,4,5
 527 597 527 597 492 603 c 1,6,7
 530 389 530 389 530 336 c 0,8,9
 530 205 530 205 517 96 c 0,10,11
 494 -100 494 -100 437 -100 c 0,12,13
 388 -100 388 -100 380 35 c 0,14,15
 364 285 364 285 344 388 c 0,16,17
 281 704 281 704 107 930 c 1,18,19
 153 1017 153 1017 255 1191 c 1,20,21
 309 1147 309 1147 392 1013 c 1,22,23
 496 1213 496 1213 674 1213 c 0,24,25
 749 1213 749 1213 813 1153 c 0,26,27
 866 1103 866 1103 866 1076 c 0,28,29
 866 1035 866 1035 840 1035 c 0,30,31
 820 1035 820 1035 764 1052 c 128,-1,32
 708 1069 708 1069 672 1069 c 0,33,34
 589 1069 589 1069 543 1016 c 0,35,36
 507 974 507 974 507 923 c 0,37,38
 507 911 507 911 511 900 c 0,39,40
 545 807 545 807 681 807 c 0,41,42
 773 807 773 807 845 867 c 0,43,44
 908 920 908 920 913 920 c 0,45,46
 923 920 923 920 923 903 c 0,0,1
EndSplineSet
EndChar

StartChar: afii57397
Encoding: 1637 1637 419
Width: 1101
Flags: W
LayerCount: 2
Fore
SplineSet
991 286 m 0,0,1
 991 143 991 143 932 48 c 0,2,3
 861 -65 861 -65 727 -65 c 0,4,5
 618 -65 618 -65 562 41 c 1,6,7
 483 -81 483 -81 357 -81 c 0,8,9
 244 -81 244 -81 180 0 c 0,10,11
 121 75 121 75 121 191 c 0,12,13
 121 318 121 318 235 582 c 0,14,15
 324 787 324 787 410 929 c 1,16,-1
 371 974 l 1,17,-1
 475 1215 l 2,18,19
 484 1237 484 1237 493 1237 c 0,20,21
 500 1237 500 1237 514 1219 c 0,22,23
 750 921 750 921 857 726 c 0,24,25
 991 481 991 481 991 286 c 0,0,1
859 277 m 0,26,27
 859 362 859 362 712 573 c 0,28,29
 589 750 589 750 486 854 c 1,30,31
 427 747 427 747 358 567 c 0,32,33
 282 369 282 369 282 302 c 0,34,35
 282 183 282 183 392 183 c 0,36,37
 464 183 464 183 493 228 c 0,38,39
 503 243 503 243 522 312 c 0,40,41
 534 357 534 357 566 357 c 0,42,43
 606 357 606 357 618 314 c 0,44,45
 638 241 638 241 643 234 c 0,46,47
 671 191 671 191 750 191 c 0,48,49
 859 191 859 191 859 277 c 0,26,27
EndSplineSet
EndChar

StartChar: afii57398
Encoding: 1638 1638 420
Width: 1008
Flags: W
LayerCount: 2
Fore
SplineSet
894 846 m 0,0,1
 888 807 888 807 861 703 c 0,2,3
 830 586 830 586 818 576 c 1,4,5
 804 571 804 571 783 564 c 128,-1,6
 762 557 762 557 735 546 c 0,7,8
 648 513 648 513 554 429.5 c 128,-1,9
 460 346 460 346 355 213 c 0,10,11
 313 160 313 160 274.5 104.5 c 128,-1,12
 236 49 236 49 199 -11 c 0,13,14
 161 -71 161 -71 136 -71 c 0,15,16
 112 -71 112 -71 112 -19 c 0,17,18
 112 47 112 47 140.5 132.5 c 128,-1,19
 169 218 169 218 219 316 c 0,20,21
 262 400 262 400 379 544 c 1,22,23
 157 598 157 598 157 801 c 0,24,25
 157 901 157 901 273 1038 c 0,26,27
 436 1228 436 1228 556 1228 c 0,28,29
 592 1228 592 1228 630 1210.5 c 128,-1,30
 668 1193 668 1193 699.5 1166 c 128,-1,31
 731 1139 731 1139 751.5 1105.5 c 128,-1,32
 772 1072 772 1072 772 1040 c 0,33,34
 772 1002 772 1002 752 1002 c 0,35,36
 746 1002 746 1002 718.5 1009.5 c 128,-1,37
 691 1017 691 1017 657 1026 c 128,-1,38
 623 1035 623 1035 590 1042.5 c 128,-1,39
 557 1050 557 1050 539 1050 c 0,40,41
 495 1050 495 1050 454.5 1036 c 128,-1,42
 414 1022 414 1022 383 999 c 128,-1,43
 352 976 352 976 334 947 c 128,-1,44
 316 918 316 918 316 889 c 0,45,46
 316 857 316 857 336 829 c 128,-1,47
 356 801 356 801 388 780.5 c 128,-1,48
 420 760 420 760 461 748 c 128,-1,49
 502 736 502 736 544 736 c 0,50,51
 594 736 594 736 728 814 c 0,52,53
 863 892 863 892 883 892 c 0,54,55
 896 892 896 892 896 868 c 0,56,57
 896 863 896 863 895.5 858 c 128,-1,58
 895 853 895 853 894 846 c 0,0,1
EndSplineSet
EndChar

StartChar: afii57399.001
Encoding: 1639 1639 421
Width: 1128
Flags: W
LayerCount: 2
Fore
SplineSet
1019 941 m 1,0,1
 835 711 835 711 738 448 c 0,2,3
 702 349 702 349 647 102 c 0,4,5
 610 -66 610 -66 576 -66 c 0,6,7
 535 -66 535 -66 506 58 c 0,8,9
 450 296 450 296 400 433 c 0,10,11
 293 727 293 727 110 931 c 1,12,-1
 202 1212 l 2,13,14
 211 1240 211 1240 218 1240 c 0,15,16
 224 1240 224 1240 241 1221 c 0,17,18
 350 1099 350 1099 448 849 c 0,19,20
 531 637 531 637 572 434 c 1,21,22
 605 630 605 630 677 830 c 0,23,24
 769 1087 769 1087 884 1223 c 0,25,26
 898 1240 898 1240 905 1240 c 0,27,28
 911 1240 911 1240 921 1212 c 2,29,-1
 1019 941 l 1,0,1
EndSplineSet
EndChar

StartChar: afii57400.001
Encoding: 1640 1640 422
Width: 1163
Flags: W
LayerCount: 2
Fore
SplineSet
144 231 m 1,0,1
 330 462 330 462 425 723 c 0,2,3
 460 818 460 818 516 1070 c 0,4,5
 553 1238 553 1238 587 1238 c 0,6,7
 628 1238 628 1238 657 1113 c 0,8,9
 711 881 711 881 763 739 c 0,10,11
 872 442 872 442 1053 240 c 1,12,-1
 961 -41 l 2,13,14
 952 -69 952 -69 945 -69 c 0,15,16
 939 -69 939 -69 921 -49 c 0,17,18
 811 74 811 74 714 323 c 0,19,20
 632 532 632 532 591 737 c 1,21,22
 558 545 558 545 485 342 c 0,23,24
 393 86 393 86 278 -51 c 0,25,26
 264 -68 264 -68 258 -68 c 0,27,28
 251 -68 251 -68 241 -41 c 2,29,-1
 144 231 l 1,0,1
EndSplineSet
EndChar

StartChar: afii57401.001
Encoding: 1641 1641 423
Width: 995
Flags: W
LayerCount: 2
Fore
SplineSet
882 196 m 1,0,-1
 800 -85 l 1,1,2
 631 40 631 40 581 259 c 0,3,4
 559 356 559 356 560 550 c 1,5,6
 477 542 477 542 426 542 c 0,7,8
 117 542 117 542 117 748 c 0,9,10
 117 852 117 852 183 1012 c 0,11,12
 274 1233 274 1233 421 1233 c 0,13,14
 714 1233 714 1233 714 758 c 0,15,16
 714 485 714 485 771 349 c 0,17,18
 800 280 800 280 882 196 c 1,0,-1
532 816 m 1,19,20
 531 878 531 878 484 923.5 c 128,-1,21
 437 969 437 969 374 969 c 0,22,23
 321 969 321 969 290 935 c 0,24,25
 267 909 267 909 267 881 c 0,26,27
 267 805 267 805 387 805 c 0,28,29
 506 805 506 805 532 816 c 1,19,20
EndSplineSet
EndChar

StartChar: guillemotleft
Encoding: 171 171 424
Width: 836
Flags: W
LayerCount: 2
Fore
SplineSet
442 616 m 1,0,1
 387 507 387 507 387 393 c 0,2,3
 387 255 387 255 518 82 c 1,4,-1
 518 83 l 1,5,6
 538 60 538 60 547.5 44 c 128,-1,7
 557 28 557 28 560 20 c 0,8,9
 560 -5 560 -5 534 -5 c 0,10,11
 528 -5 528 -5 513 1 c 0,12,13
 377 71 377 71 294 168 c 1,14,-1
 294 167 l 1,15,16
 202 276 202 276 202 396 c 0,17,18
 203 448 203 448 222.5 500 c 128,-1,19
 242 552 242 552 280 603 c 0,20,21
 307 640 307 640 344.5 676.5 c 128,-1,22
 382 713 382 713 426 745 c 0,23,24
 499 799 499 799 528 799 c 0,25,26
 563 799 563 799 563 775 c 0,27,28
 563 765 563 765 555 757 c 0,29,30
 528 730 528 730 509 708 c 128,-1,31
 490 686 490 686 477 668.5 c 128,-1,32
 464 651 464 651 455.5 638 c 128,-1,33
 447 625 447 625 441 615 c 2,34,-1
 442 616 l 1,0,1
721 616 m 1,35,36
 666 507 666 507 666 393 c 0,37,38
 666 255 666 255 797 82 c 1,39,-1
 797 83 l 1,40,41
 817 60 817 60 826.5 44 c 128,-1,42
 836 28 836 28 839 20 c 0,43,44
 839 -5 839 -5 813 -5 c 0,45,46
 806 -5 806 -5 793 1 c 0,47,48
 725 36 725 36 670 77 c 128,-1,49
 615 118 615 118 573 168 c 1,50,-1
 573 167 l 1,51,52
 481 276 481 276 481 396 c 0,53,54
 482 448 482 448 501.5 500 c 128,-1,55
 521 552 521 552 559 603 c 0,56,57
 586 640 586 640 623.5 676.5 c 128,-1,58
 661 713 661 713 705 745 c 0,59,60
 778 799 778 799 807 799 c 0,61,62
 842 799 842 799 842 775 c 0,63,64
 842 765 842 765 834 757 c 0,65,66
 807 730 807 730 788 708 c 128,-1,67
 769 686 769 686 756 668.5 c 128,-1,68
 743 651 743 651 734.5 638 c 128,-1,69
 726 625 726 625 720 615 c 2,70,-1
 721 616 l 1,35,36
EndSplineSet
EndChar

StartChar: guillemotright
Encoding: 187 187 425
Width: 836
Flags: W
LayerCount: 2
Fore
SplineSet
573 622 m 1,0,1
 561 641 561 641 537.5 674.5 c 128,-1,2
 514 708 514 708 460 762 c 0,3,4
 452 770 452 770 452 780 c 0,5,6
 452 804 452 804 487 804 c 0,7,8
 514 804 514 804 588 751 c 0,9,10
 631 719 631 719 668 683 c 128,-1,11
 705 647 705 647 732 610 c 0,12,13
 769 559 769 559 788.5 508 c 128,-1,14
 808 457 808 457 809 406 c 0,15,16
 809 287 809 287 718 179 c 1,17,-1
 718 180 l 1,18,19
 636 83 636 83 501 15 c 0,20,21
 487 9 487 9 481 9 c 0,22,23
 455 9 455 9 455 34 c 0,24,25
 458 42 458 42 467.5 57.5 c 128,-1,26
 477 73 477 73 497 96 c 1,27,-1
 497 95 l 1,28,29
 626 266 626 266 626 403 c 0,30,31
 626 515 626 515 572 623 c 1,32,-1
 573 622 l 1,0,1
297 622 m 1,33,34
 285 641 285 641 261.5 674.5 c 128,-1,35
 238 708 238 708 184 762 c 0,36,37
 176 770 176 770 176 780 c 0,38,39
 176 804 176 804 211 804 c 0,40,41
 238 804 238 804 312 751 c 0,42,43
 355 719 355 719 392 683 c 128,-1,44
 429 647 429 647 456 610 c 0,45,46
 493 559 493 559 512.5 508 c 128,-1,47
 532 457 532 457 533 406 c 0,48,49
 533 287 533 287 442 179 c 1,50,-1
 442 180 l 1,51,52
 360 83 360 83 225 15 c 0,53,54
 211 9 211 9 205 9 c 0,55,56
 179 9 179 9 179 34 c 0,57,58
 182 42 182 42 191.5 57.5 c 128,-1,59
 201 73 201 73 221 96 c 1,60,-1
 221 95 l 1,61,62
 350 266 350 266 350 403 c 0,63,64
 350 515 350 515 296 623 c 1,65,-1
 297 622 l 1,33,34
EndSplineSet
EndChar

StartChar: quoteleft
Encoding: 8216 8216 426
Width: 425
Flags: W
LayerCount: 2
Fore
SplineSet
121 993 m 0,0,1
 122 1058 122 1058 166 1121.5 c 128,-1,2
 210 1185 210 1185 265 1211 c 1,3,-1
 296 1153 l 1,4,5
 280 1144 280 1144 258 1120 c 128,-1,6
 236 1096 236 1096 226 1058 c 1,7,8
 292 1030 292 1030 289 975 c 0,9,10
 289 959 289 959 282.5 944.5 c 128,-1,11
 276 930 276 930 265 919 c 128,-1,12
 254 908 254 908 239 901.5 c 128,-1,13
 224 895 224 895 208 895 c 0,14,15
 188 895 188 895 171.5 903.5 c 128,-1,16
 155 912 155 912 144 925.5 c 128,-1,17
 133 939 133 939 127 957 c 128,-1,18
 121 975 121 975 121 993 c 0,0,1
EndSplineSet
EndChar

StartChar: quoteright
Encoding: 8217 8217 427
Width: 372
Flags: W
LayerCount: 2
Fore
SplineSet
311 1113 m 0,0,1
 310 1048 310 1048 266 984.5 c 128,-1,2
 222 921 222 921 167 895 c 1,3,-1
 136 953 l 1,4,5
 152 962 152 962 174 986 c 128,-1,6
 196 1010 196 1010 206 1048 c 1,7,8
 140 1076 140 1076 143 1131 c 0,9,10
 143 1147 143 1147 149.5 1161.5 c 128,-1,11
 156 1176 156 1176 167 1187 c 128,-1,12
 178 1198 178 1198 192.5 1204.5 c 128,-1,13
 207 1211 207 1211 224 1211 c 0,14,15
 244 1211 244 1211 260 1202.5 c 128,-1,16
 276 1194 276 1194 287.5 1180.5 c 128,-1,17
 299 1167 299 1167 305 1149 c 128,-1,18
 311 1131 311 1131 311 1113 c 0,0,1
EndSplineSet
EndChar

StartChar: afii57451
Encoding: 1611 1611 428
Width: 0
GlyphClass: 4
Flags: W
AnchorPoint: "Anchor-2" 0 0 mark 0
AnchorPoint: "Anchor-0" 0 0 mark 0
LayerCount: 2
Fore
SplineSet
168 161 m 1,0,-1
 -200 -10 l 1,1,-1
 -177 89 l 1,2,-1
 191 259 l 1,3,-1
 168 161 l 1,0,-1
178 322 m 1,4,-1
 -190 151 l 1,5,-1
 -167 250 l 1,6,-1
 201 420 l 1,7,-1
 178 322 l 1,4,-1
EndSplineSet
EndChar

StartChar: afii57454
Encoding: 1614 1614 429
Width: 0
GlyphClass: 4
Flags: W
AnchorPoint: "Anchor-2" 0 0 mark 0
AnchorPoint: "Anchor-0" 0 0 mark 0
LayerCount: 2
Fore
SplineSet
181 172 m 1,0,-1
 -187 1 l 1,1,-1
 -164 100 l 1,2,-1
 204 270 l 1,3,-1
 181 172 l 1,0,-1
EndSplineSet
EndChar

StartChar: afii57455
Encoding: 1615 1615 430
Width: 0
GlyphClass: 4
Flags: W
AnchorPoint: "Anchor-2" 0 0 mark 0
AnchorPoint: "Anchor-0" 0 0 mark 0
LayerCount: 2
Fore
SplineSet
166 174 m 1,0,1
 136 119 136 119 109 101 c 1,2,-1
 41 125 l 1,3,4
 -54 2 -54 2 -233 2 c 0,5,6
 -286 2 -286 2 -301 35 c 1,7,8
 -276 37 -276 37 -239.5 46.5 c 128,-1,9
 -203 56 -203 56 -153 76 c 0,10,11
 -102 96 -102 96 -67 114.5 c 128,-1,12
 -32 133 -32 133 -12 150 c 1,13,14
 -131 205 -131 205 -131 275 c 0,15,16
 -131 329 -131 329 -65 389 c 0,17,18
 4 449 4 449 60 449 c 0,19,20
 138 449 138 449 138 340 c 0,21,22
 138 295 138 295 127.5 260 c 128,-1,23
 117 225 117 225 97 199 c 1,24,25
 138 174 138 174 166 174 c 1,0,1
72 295 m 0,26,27
 72 365 72 365 27 365 c 0,28,29
 15 365 15 365 2.5 361.5 c 128,-1,30
 -10 358 -10 358 -22 350 c 0,31,32
 -53 335 -53 335 -53 312 c 0,33,34
 -53 266 -53 266 56 219 c 1,35,36
 72 243 72 243 72 295 c 0,26,27
EndSplineSet
EndChar

StartChar: afii57452
Encoding: 1612 1612 431
Width: 0
GlyphClass: 4
Flags: W
AnchorPoint: "Anchor-2" 0 0 mark 0
AnchorPoint: "Anchor-0" 0 0 mark 0
LayerCount: 2
Fore
SplineSet
215 148 m 1,0,-1
 149 160 l 1,1,2
 107 91 107 91 28 52.5 c 128,-1,3
 -51 14 -51 14 -166 4 c 1,4,5
 -152 36 -152 36 -145 70 c 128,-1,6
 -138 104 -138 104 -138 141 c 0,7,8
 -138 201 -138 201 -199 201 c 0,9,10
 -219 201 -219 201 -243 193 c 128,-1,11
 -267 185 -267 185 -293 168 c 1,12,13
 -284 297 -284 297 -160 297 c 0,14,15
 -84 297 -84 297 -84 205 c 0,16,17
 -84 167 -84 167 -89 139 c 128,-1,18
 -94 111 -94 111 -105 94 c 1,19,20
 -76 88 -76 88 -11 111 c 0,21,22
 66 138 66 138 100 178 c 1,23,24
 -19 218 -19 218 -19 293 c 0,25,26
 -19 351 -19 351 37 410 c 0,27,28
 94 471 94 471 151 471 c 0,29,30
 167 471 167 471 180.5 461.5 c 128,-1,31
 194 452 194 452 204 436.5 c 128,-1,32
 214 421 214 421 219.5 401.5 c 128,-1,33
 225 382 225 382 225 361 c 0,34,35
 225 301 225 301 200 238 c 1,36,37
 211 233 211 233 226.5 230.5 c 128,-1,38
 242 228 242 228 262 228 c 1,39,-1
 215 148 l 1,0,-1
174 309 m 0,40,41
 174 387 174 387 123 387 c 0,42,43
 108 387 108 387 95 382 c 128,-1,44
 82 377 82 377 71.5 369.5 c 128,-1,45
 61 362 61 362 55 352.5 c 128,-1,46
 49 343 49 343 49 334 c 0,47,48
 49 293 49 293 157 252 c 1,49,50
 174 281 174 281 174 309 c 0,40,41
EndSplineSet
EndChar

StartChar: afii57456
Encoding: 1616 1616 432
Width: 0
GlyphClass: 4
Flags: W
AnchorPoint: "Anchor-3" 0 0 mark 0
AnchorPoint: "Anchor-1" 0 0 mark 0
LayerCount: 2
Fore
SplineSet
181 172 m 1,0,-1
 -187 1 l 1,1,-1
 -164 100 l 1,2,-1
 204 270 l 1,3,-1
 181 172 l 1,0,-1
EndSplineSet
EndChar

StartChar: afii57457
Encoding: 1617 1617 433
Width: 0
GlyphClass: 4
Flags: W
AnchorPoint: "Anchor-2" 0 0 mark 0
AnchorPoint: "Anchor-0" 0 0 mark 0
LayerCount: 2
Fore
SplineSet
169 290 m 2,0,1
 167 268 167 268 164 236 c 128,-1,2
 161 204 161 204 153 161 c 1,3,4
 124 77 124 77 48 77 c 0,5,6
 19 77 19 77 -9 91 c 1,7,8
 -59 1 -59 1 -118 1 c 0,9,10
 -191 1 -191 1 -191 101 c 0,11,12
 -191 140 -191 140 -183.5 166 c 128,-1,13
 -176 192 -176 192 -161 208 c 0,14,15
 -136 234 -136 234 -122 224 c 1,16,17
 -130 210 -130 210 -134 193 c 128,-1,18
 -138 176 -138 176 -138 153 c 0,19,20
 -138 110 -138 110 -105 110 c 0,21,22
 -65 110 -65 110 -44 171 c 2,23,-1
 -17 267 l 1,24,-1
 24 290 l 1,25,26
 24 185 24 185 77 185 c 0,27,28
 118 185 118 185 118 218 c 0,29,30
 118 262 118 262 119.5 286.5 c 128,-1,31
 121 311 121 311 124 319 c 0,32,33
 143 359 143 359 175 368 c 1,34,-1
 169 290 l 2,0,1
EndSplineSet
EndChar

StartChar: afii57458
Encoding: 1618 1618 434
Width: 0
GlyphClass: 4
Flags: W
AnchorPoint: "Anchor-2" 0 0 mark 0
AnchorPoint: "Anchor-0" 0 0 mark 0
LayerCount: 2
Fore
SplineSet
157 187 m 0,0,1
 157 149 157 149 142.5 116.5 c 128,-1,2
 128 84 128 84 103 59.5 c 128,-1,3
 78 35 78 35 45.5 21 c 128,-1,4
 13 7 13 7 -23 7 c 0,5,6
 -142 7 -142 7 -142 128 c 0,7,8
 -142 176 -142 176 -128.5 216 c 128,-1,9
 -115 256 -115 256 -89 288 c 1,10,11
 -46 357 -46 357 14 357 c 0,12,13
 42 357 42 357 68 344 c 128,-1,14
 94 331 94 331 114 308.5 c 128,-1,15
 134 286 134 286 145.5 254.5 c 128,-1,16
 157 223 157 223 157 187 c 0,0,1
106 151 m 1,17,18
 106 198 106 198 67 230 c 0,19,20
 33 261 33 261 -7 261 c 0,21,22
 -24 261 -24 261 -39 253 c 128,-1,23
 -54 245 -54 245 -66 228 c 0,24,25
 -87 201 -87 201 -87 171 c 0,26,27
 -87 104 -87 104 -1 104 c 0,28,29
 71 104 71 104 106 151 c 1,17,18
EndSplineSet
EndChar

StartChar: exclam
Encoding: 33 33 437
Width: 399
GlyphClass: 2
Flags: W
LayerCount: 2
Fore
SplineSet
317 974 m 0,0,1
 317 904 317 904 294 758 c 0,2,3
 267 589 267 589 262 507 c 2,4,-1
 247 277 l 1,5,-1
 185 277 l 1,6,7
 183 302 183 302 168 505 c 0,8,9
 162 588 162 588 134 761 c 0,10,11
 110 911 110 911 110 976 c 0,12,13
 110 1217 110 1217 213 1217 c 0,14,15
 317 1217 317 1217 317 974 c 0,0,1
319 102 m 0,16,17
 319 59 319 59 289.5 30 c 128,-1,18
 260 1 260 1 217 1 c 256,19,20
 174 1 174 1 145.5 30 c 128,-1,21
 117 59 117 59 117 102 c 0,22,23
 117 144 117 144 146 173 c 128,-1,24
 175 202 175 202 217 202 c 0,25,26
 258 202 258 202 288.5 172.5 c 128,-1,27
 319 143 319 143 319 102 c 0,16,17
EndSplineSet
EndChar

StartChar: afii64060
Encoding: 64830 64830 438
Width: 576
GlyphClass: 2
Flags: W
LayerCount: 2
Fore
SplineSet
502 932 m 0,0,1
 299 643 299 643 299 408 c 0,2,3
 299 214 299 214 402 26 c 0,4,5
 418 -4 418 -4 459 -64.5 c 128,-1,6
 500 -125 500 -125 568 -216 c 0,7,8
 574 -224 574 -224 574 -233 c 0,9,10
 574 -256 574 -256 543 -256 c 0,11,12
 469 -256 469 -256 380 -168 c 0,13,14
 270 -61 270 -61 202 65 c 0,15,16
 110 235 110 235 110 403 c 0,17,18
 110 595 110 595 220 774 c 0,19,20
 321 938 321 938 538 1055 c 0,21,22
 547 1061 547 1061 554 1061 c 0,23,24
 573 1061 573 1061 573 1036 c 1,25,26
 563 1019 563 1019 502 932 c 0,0,1
EndSplineSet
EndChar

StartChar: afii64061
Encoding: 64831 64831 439
Width: 576
GlyphClass: 2
Flags: W
LayerCount: 2
Fore
SplineSet
182 932 m 0,0,1
 121 1019 121 1019 111 1036 c 1,2,3
 111 1061 111 1061 130 1061 c 0,4,5
 137 1061 137 1061 146 1055 c 0,6,7
 363 938 363 938 464 774 c 0,8,9
 574 595 574 595 574 403 c 0,10,11
 574 235 574 235 482 65 c 0,12,13
 414 -61 414 -61 304 -168 c 0,14,15
 215 -256 215 -256 141 -256 c 0,16,17
 110 -256 110 -256 110 -233 c 0,18,19
 110 -224 110 -224 116 -216 c 0,20,21
 184 -125 184 -125 225 -64.5 c 128,-1,22
 266 -4 266 -4 282 26 c 0,23,24
 385 214 385 214 385 408 c 0,25,26
 385 643 385 643 182 932 c 0,0,1
EndSplineSet
EndChar

StartChar: afii62821
Encoding: 65252 65252 440
Width: 909
GlyphClass: 2
Flags: W
AnchorPoint: "Anchor-3" 405 -585 basechar 0
AnchorPoint: "Anchor-2" 435 855 basechar 0
LayerCount: 2
Fore
SplineSet
909 0 m 1,0,-1
 841 0 l 2,1,2
 786 0 786 0 738.5 39.5 c 128,-1,3
 691 79 691 79 670 133 c 1,4,5
 612 -21 612 -21 468 -21 c 0,6,7
 340 -21 340 -21 248 124 c 1,8,9
 184 1 184 1 60 0 c 2,10,-1
 -70 0 l 1,11,-1
 -70 257 l 1,12,-1
 60 257 l 2,13,14
 146 258 146 258 168 273 c 0,15,16
 186 285 186 285 182 328 c 0,17,18
 174 428 174 428 242 518 c 0,19,20
 316 616 316 616 428 616 c 0,21,22
 578 616 578 616 653 449 c 2,23,-1
 716 308 l 1,24,25
 749 257 749 257 817 257 c 2,26,-1
 909 257 l 1,27,-1
 909 0 l 1,0,-1
583 268 m 0,28,29
 583 328 583 328 541 404 c 0,30,31
 493 490 493 490 439 490 c 0,32,33
 371 490 371 490 371 399 c 0,34,35
 371 331 371 331 407 255 c 0,36,37
 451 164 451 164 511 164 c 0,38,39
 583 164 583 164 583 268 c 0,28,29
EndSplineSet
EndChar

StartChar: uni25CC
Encoding: 9676 9676 441
Width: 911
Flags: W
AnchorPoint: "Anchor-3" 405 -450 basechar 0
AnchorPoint: "Anchor-2" 465 930 basechar 0
LayerCount: 2
Fore
SplineSet
771 629 m 256,0,1
 771 592 771 592 734 592 c 0,2,3
 695 592 695 592 695 629 c 256,4,5
 695 666 695 666 734 666 c 0,6,7
 771 666 771 666 771 629 c 256,0,1
658 703 m 0,8,9
 658 666 658 666 621 666 c 0,10,11
 582 666 582 666 582 703 c 0,12,13
 582 742 582 742 621 742 c 0,14,15
 658 742 658 742 658 703 c 0,8,9
847 516 m 0,16,17
 847 477 847 477 808 477 c 0,18,19
 771 477 771 477 771 516 c 0,20,21
 771 553 771 553 810 553 c 0,22,23
 847 553 847 553 847 516 c 0,16,17
873 384 m 256,24,25
 873 347 873 347 836 347 c 0,26,27
 797 347 797 347 797 384 c 256,28,29
 797 421 797 421 836 421 c 0,30,31
 873 421 873 421 873 384 c 256,24,25
525 731 m 0,32,33
 525 692 525 692 488 692 c 256,34,35
 451 692 451 692 451 731 c 0,36,37
 451 768 451 768 488 768 c 256,38,39
 525 768 525 768 525 731 c 0,32,33
847 251 m 0,40,41
 847 214 847 214 808 214 c 0,42,43
 771 214 771 214 771 251 c 0,44,45
 771 290 771 290 808 290 c 0,46,47
 847 290 847 290 847 251 c 0,40,41
394 703 m 0,48,49
 394 666 394 666 356 666 c 0,50,51
 319 666 319 666 319 703 c 0,52,53
 319 742 319 742 356 742 c 0,54,55
 394 742 394 742 394 703 c 0,48,49
282 629 m 256,56,57
 282 592 282 592 243 592 c 0,58,59
 206 592 206 592 206 627 c 0,60,61
 206 666 206 666 243 666 c 0,62,63
 282 666 282 666 282 629 c 256,56,57
771 138 m 0,64,65
 771 101 771 101 734 101 c 256,66,67
 697 101 697 101 697 138 c 0,68,69
 697 177 697 177 734 177 c 256,70,71
 771 177 771 177 771 138 c 0,64,65
658 64 m 0,72,73
 658 27 658 27 621 27 c 256,74,75
 584 27 584 27 584 64 c 0,76,77
 584 103 584 103 621 103 c 256,78,79
 658 103 658 103 658 64 c 0,72,73
206 516 m 0,80,81
 206 477 206 477 171 477 c 0,82,83
 132 477 132 477 132 516 c 0,84,85
 132 553 132 553 169 553 c 256,86,87
 206 553 206 553 206 516 c 0,80,81
180 384 m 256,88,89
 180 347 180 347 143 347 c 0,90,91
 104 347 104 347 104 384 c 256,92,93
 104 421 104 421 143 421 c 0,94,95
 180 421 180 421 180 384 c 256,88,89
525 38 m 0,96,97
 525 -1 525 -1 488 -1 c 256,98,99
 451 -1 451 -1 451 38 c 0,100,101
 451 75 451 75 488 75 c 256,102,103
 525 75 525 75 525 38 c 0,96,97
394 66 m 0,104,105
 394 27 394 27 356 27 c 0,106,107
 319 27 319 27 319 64 c 0,108,109
 319 103 319 103 356 103 c 0,110,111
 394 103 394 103 394 66 c 0,104,105
206 251 m 0,112,113
 206 214 206 214 169 214 c 256,114,115
 132 214 132 214 132 251 c 0,116,117
 132 290 132 290 169 290 c 256,118,119
 206 290 206 290 206 251 c 0,112,113
282 138 m 0,120,121
 282 101 282 101 245 101 c 0,122,123
 206 101 206 101 206 138 c 0,124,125
 206 177 206 177 243 177 c 0,126,127
 282 177 282 177 282 138 c 0,120,121
EndSplineSet
EndChar

StartChar: afii62819
Encoding: 65246 65246 442
Width: 1342
GlyphClass: 2
Flags: W
AnchorPoint: "Anchor-3" 570 -945 basechar 0
AnchorPoint: "Anchor-2" 930 1335 basechar 0
LayerCount: 2
Fore
SplineSet
1342 0 m 1,0,-1
 1302 0 l 2,1,2
 1186 0 1186 0 1135 73 c 1,3,4
 1135 -159 1135 -159 1058 -284 c 0,5,6
 931 -489 931 -489 587 -489 c 0,7,8
 175 -489 175 -489 175 -120 c 0,9,10
 175 -34 175 -34 218 83 c 0,11,12
 263 209 263 209 303 209 c 0,13,14
 340 209 340 209 340 161 c 0,15,16
 340 153 340 153 334 129.5 c 128,-1,17
 328 106 328 106 321.5 78 c 128,-1,18
 315 50 315 50 309 23.5 c 128,-1,19
 303 -3 303 -3 303 -16 c 0,20,21
 303 -234 303 -234 615 -234 c 0,22,23
 821 -234 821 -234 930 -167 c 0,24,25
 1004 -120 1004 -120 1004 -81 c 0,26,27
 1004 72 1004 72 998 246.5 c 128,-1,28
 992 421 992 421 979 620 c 0,29,30
 956 980 956 980 937 1086 c 1,31,-1
 1127 1251 l 2,32,33
 1129 1253 1129 1253 1132.5 1255.5 c 128,-1,34
 1136 1258 1136 1258 1140 1258 c 0,35,36
 1146 1258 1146 1258 1146 1245 c 2,37,-1
 1155 442 l 2,38,39
 1157 257 1157 257 1312 257 c 2,40,-1
 1342 257 l 1,41,-1
 1342 0 l 1,0,-1
EndSplineSet
EndChar

StartChar: braceright
Encoding: 125 125 445
Width: 672
GlyphClass: 2
Flags: W
LayerCount: 2
Fore
SplineSet
273 224 m 2,0,1
 273 277 273 277 282 314 c 128,-1,2
 291 351 291 351 314 376.5 c 128,-1,3
 337 402 337 402 376 418 c 128,-1,4
 415 434 415 434 474 447 c 1,5,6
 414 460 414 460 375 476 c 128,-1,7
 336 492 336 492 313.5 517 c 128,-1,8
 291 542 291 542 282 578.5 c 128,-1,9
 273 615 273 615 273 669 c 2,10,-1
 273 960 l 2,11,12
 273 1008 273 1008 264 1043 c 128,-1,13
 255 1078 255 1078 233.5 1103 c 128,-1,14
 212 1128 212 1128 177 1143.5 c 128,-1,15
 142 1159 142 1159 92 1170 c 1,16,-1
 92 1191 l 1,17,18
 150 1190 150 1190 192.5 1187.5 c 128,-1,19
 235 1185 235 1185 267 1179 c 128,-1,20
 299 1173 299 1173 322.5 1163.5 c 128,-1,21
 346 1154 346 1154 367 1141 c 0,22,23
 453 1088 453 1088 453 951 c 2,24,-1
 453 645 l 2,25,26
 453 600 453 600 460.5 568.5 c 128,-1,27
 468 537 468 537 489 514.5 c 128,-1,28
 510 492 510 492 545 476.5 c 128,-1,29
 580 461 580 461 635 447 c 1,30,31
 580 433 580 433 545 418 c 128,-1,32
 510 403 510 403 489 380.5 c 128,-1,33
 468 358 468 358 460.5 326 c 128,-1,34
 453 294 453 294 453 249 c 2,35,-1
 453 -57 l 2,36,37
 453 -196 453 -196 367 -249 c 0,38,39
 346 -263 346 -263 322 -272 c 128,-1,40
 298 -281 298 -281 266 -286.5 c 128,-1,41
 234 -292 234 -292 191.5 -295 c 128,-1,42
 149 -298 149 -298 92 -298 c 1,43,-1
 92 -278 l 1,44,45
 143 -268 143 -268 178 -251.5 c 128,-1,46
 213 -235 213 -235 234 -210 c 128,-1,47
 255 -185 255 -185 264 -150.5 c 128,-1,48
 273 -116 273 -116 273 -67 c 2,49,-1
 273 224 l 2,0,1
EndSplineSet
EndChar

StartChar: uni0656
Encoding: 1622 1622 452
Width: 0
GlyphClass: 4
Flags: W
AnchorPoint: "Anchor-3" 0 0 mark 0
AnchorPoint: "Anchor-1" 0 0 mark 0
LayerCount: 2
Fore
SplineSet
20 60 m 1,0,-1
 -31 -17 l 1,1,2
 -37 -17 -37 -17 -41 4 c 0,3,4
 -56 91 -56 91 -88 321 c 1,5,-1
 -1 381 l 2,6,7
 6 385 6 385 11 385 c 0,8,9
 17 385 17 385 18 378 c 0,10,11
 18 283 18 283 20 60 c 1,0,-1
EndSplineSet
EndChar

StartChar: E005
Encoding: 65578 -1 470
Width: 476
GlyphClass: 3
Flags: W
LayerCount: 2
Fore
SplineSet
-43 0 m 1,0,-1
 -43 207 l 1,1,-1
 581 207 l 1,2,-1
 581 0 l 1,3,-1
 -43 0 l 1,0,-1
EndSplineSet
EndChar

StartChar: afii57470
Encoding: 1726 1726 480
Width: 893
Flags: W
AnchorPoint: "Anchor-3" 270 -570 basechar 0
AnchorPoint: "Anchor-2" 285 1125 basechar 0
LayerCount: 2
Fore
SplineSet
678 41 m 0,0,1
 637 41 637 41 526 92 c 0,2,3
 463 121 463 121 434 134 c 1,4,5
 426 118 426 118 306 72 c 0,6,7
 119 0 119 0 60 0 c 2,8,-1
 -70 0 l 1,9,-1
 -70 257 l 1,10,-1
 55 257 l 2,11,12
 141 257 141 257 165 278 c 1,13,14
 115 320 115 320 115 395 c 0,15,16
 115 474 115 474 173 546 c 0,17,18
 225 611 225 611 303 646 c 1,19,20
 262 680 262 680 213 697 c 1,21,-1
 310 901 l 1,22,23
 568 766 568 766 691 668 c 0,24,25
 891 509 891 509 891 353 c 0,26,27
 891 237 891 237 815 135 c 0,28,29
 745 41 745 41 678 41 c 0,0,1
777 298 m 0,30,31
 777 343 777 343 700 403 c 0,32,33
 690 411 690 411 603 473 c 1,34,35
 607 451 607 451 607 433 c 0,36,37
 607 354 607 354 539 292 c 1,38,39
 632 230 632 230 719 230 c 0,40,41
 777 230 777 230 777 298 c 0,30,31
504 461 m 0,42,43
 504 494 504 494 477 531 c 0,44,45
 447 570 447 570 416 570 c 0,46,47
 377 570 377 570 323 531 c 0,48,49
 266 491 266 491 266 454 c 0,50,51
 266 418 266 418 322 382 c 0,52,53
 371 350 371 350 400 350 c 0,54,55
 426 350 426 350 461 378 c 0,56,57
 504 413 504 413 504 461 c 0,42,43
EndSplineSet
Substitution2: "'medi' Medial Forms in Arabic lookup 3 subtable" afii62827
Substitution2: "'fina' Terminal Forms in Arabic lookup 2 subtable" afii62827
Substitution2: "'init' Initial Forms in Arabic lookup 1 subtable" afii57470
EndChar

StartChar: at
Encoding: 64 64 489
Width: 1587
Flags: W
LayerCount: 2
Fore
SplineSet
1034 863 m 1,0,-1
 1154 863 l 1,1,-1
 1042 419 l 2,2,3
 1041 414 1041 414 1040 405.5 c 128,-1,4
 1039 397 1039 397 1039 389 c 0,5,6
 1039 308 1039 308 1103 308 c 0,7,8
 1146 308 1146 308 1185.5 337 c 128,-1,9
 1225 366 1225 366 1255.5 414.5 c 128,-1,10
 1286 463 1286 463 1304 526 c 128,-1,11
 1322 589 1322 589 1322 657 c 0,12,13
 1322 749 1322 749 1282.5 831.5 c 128,-1,14
 1243 914 1243 914 1175.5 976.5 c 128,-1,15
 1108 1039 1108 1039 1018.5 1075.5 c 128,-1,16
 929 1112 929 1112 829 1112 c 0,17,18
 723 1112 723 1112 633.5 1070.5 c 128,-1,19
 544 1029 544 1029 479 955 c 128,-1,20
 414 881 414 881 377.5 778.5 c 128,-1,21
 341 676 341 676 341 555 c 0,22,23
 341 443 341 443 378.5 350 c 128,-1,24
 416 257 416 257 484 189.5 c 128,-1,25
 552 122 552 122 646 84 c 128,-1,26
 740 46 740 46 852 46 c 0,27,28
 894 46 894 46 933 50.5 c 128,-1,29
 972 55 972 55 1012 64.5 c 128,-1,30
 1052 74 1052 74 1095.5 90.5 c 128,-1,31
 1139 107 1139 107 1191 130 c 1,32,-1
 1213 70 l 1,33,34
 1151 40 1151 40 1101.5 20.5 c 128,-1,35
 1052 1 1052 1 1007 -11 c 128,-1,36
 962 -23 962 -23 920 -27.5 c 128,-1,37
 878 -32 878 -32 830 -32 c 0,38,39
 694 -32 694 -32 576.5 14 c 128,-1,40
 459 60 459 60 371.5 140 c 128,-1,41
 284 220 284 220 234 329 c 128,-1,42
 184 438 184 438 184 563 c 0,43,44
 184 692 184 692 234 804 c 128,-1,45
 284 916 284 916 371.5 999.5 c 128,-1,46
 459 1083 459 1083 576 1131 c 128,-1,47
 693 1179 693 1179 827 1179 c 0,48,49
 949 1179 949 1179 1054 1139.5 c 128,-1,50
 1159 1100 1159 1100 1236.5 1030.5 c 128,-1,51
 1314 961 1314 961 1358 867.5 c 128,-1,52
 1402 774 1402 774 1402 665 c 0,53,54
 1402 580 1402 580 1376 503.5 c 128,-1,55
 1350 427 1350 427 1306 369.5 c 128,-1,56
 1262 312 1262 312 1203.5 278 c 128,-1,57
 1145 244 1145 244 1080 244 c 256,58,59
 1015 244 1015 244 971.5 279 c 128,-1,60
 928 314 928 314 919 371 c 1,61,62
 874 313 874 313 817 279.5 c 128,-1,63
 760 246 760 246 705 246 c 0,64,65
 670 246 670 246 641 260.5 c 128,-1,66
 612 275 612 275 590 301.5 c 128,-1,67
 568 328 568 328 556 364 c 128,-1,68
 544 400 544 400 544 441 c 0,69,70
 544 489 544 489 553.5 537 c 128,-1,71
 563 585 563 585 582 631 c 128,-1,72
 601 677 601 677 627.5 719 c 128,-1,73
 654 761 654 761 687 797 c 0,74,75
 728 839 728 839 781 862.5 c 128,-1,76
 834 886 834 886 891 886 c 0,77,78
 914 886 914 886 931.5 882 c 128,-1,79
 949 878 949 878 962.5 867.5 c 128,-1,80
 976 857 976 857 989 839.5 c 128,-1,81
 1002 822 1002 822 1015 795 c 1,82,-1
 1034 863 l 1,0,-1
913 804 m 0,83,84
 880 807 880 807 840.5 783 c 128,-1,85
 801 759 801 759 764 716 c 0,86,87
 720 667 720 667 697.5 604.5 c 128,-1,88
 675 542 675 542 675 472 c 0,89,90
 675 405 675 405 702 365 c 128,-1,91
 729 325 729 325 776 325 c 0,92,93
 814 325 814 325 851 355.5 c 128,-1,94
 888 386 888 386 916 441 c 0,95,96
 930 467 930 467 942 499 c 128,-1,97
 954 531 954 531 963 564.5 c 128,-1,98
 972 598 972 598 977.5 630.5 c 128,-1,99
 983 663 983 663 985 692 c 0,100,101
 987 742 987 742 969 772 c 128,-1,102
 951 802 951 802 913 804 c 0,83,84
EndSplineSet
EndChar

StartChar: A
Encoding: 65 65 490
Width: 1232
Flags: W
LayerCount: 2
Fore
SplineSet
1175 0 m 1,0,-1
 623 0 l 1,1,-1
 623 42 l 1,2,3
 641 45 641 45 656 46 c 128,-1,4
 671 47 671 47 677 47 c 0,5,6
 722 50 722 50 740.5 63.5 c 128,-1,7
 759 77 759 77 759 104 c 0,8,9
 759 118 759 118 755 137.5 c 128,-1,10
 751 157 751 157 741.5 184.5 c 128,-1,11
 732 212 732 212 717 249 c 128,-1,12
 702 286 702 286 680 336 c 1,13,-1
 297 336 l 1,14,-1
 271 269 l 2,15,16
 258 235 258 235 248.5 209 c 128,-1,17
 239 183 239 183 233 164.5 c 128,-1,18
 227 146 227 146 224 134 c 128,-1,19
 221 122 221 122 221 113 c 0,20,21
 221 79 221 79 253 63 c 128,-1,22
 285 47 285 47 362 42 c 1,23,-1
 362 0 l 1,24,-1
 15 0 l 1,25,-1
 15 42 l 1,26,27
 45 48 45 48 66 58 c 128,-1,28
 87 68 87 68 104.5 89 c 128,-1,29
 122 110 122 110 140 146 c 128,-1,30
 158 182 158 182 182 242 c 2,31,-1
 562 1177 l 1,32,-1
 609 1177 l 1,33,-1
 990 280 l 2,34,35
 1021 205 1021 205 1043.5 158 c 128,-1,36
 1066 111 1066 111 1085.5 85.5 c 128,-1,37
 1105 60 1105 60 1124.5 51 c 128,-1,38
 1144 42 1144 42 1169 42 c 2,39,-1
 1175 42 l 1,40,-1
 1175 0 l 1,0,-1
655 403 m 1,41,-1
 483 817 l 1,42,-1
 322 403 l 1,43,-1
 655 403 l 1,41,-1
EndSplineSet
EndChar

StartChar: B
Encoding: 66 66 491
Width: 1138
Flags: W
LayerCount: 2
Fore
SplineSet
555 1152 m 2,0,1
 768 1152 768 1152 883 1082 c 128,-1,2
 998 1012 998 1012 998 880 c 0,3,4
 998 831 998 831 983 793.5 c 128,-1,5
 968 756 968 756 936 725 c 128,-1,6
 904 694 904 694 852.5 669.5 c 128,-1,7
 801 645 801 645 726 623 c 1,8,9
 771 613 771 613 805.5 603 c 128,-1,10
 840 593 840 593 867.5 581 c 128,-1,11
 895 569 895 569 918 554 c 128,-1,12
 941 539 941 539 963 520 c 0,13,14
 1009 480 1009 480 1032.5 429 c 128,-1,15
 1056 378 1056 378 1056 320 c 0,16,17
 1056 248 1056 248 1022 189 c 128,-1,18
 988 130 988 130 924.5 88 c 128,-1,19
 861 46 861 46 772.5 23 c 128,-1,20
 684 0 684 0 576 0 c 2,21,-1
 27 0 l 1,22,-1
 27 42 l 1,23,24
 74 48 74 48 103 55.5 c 128,-1,25
 132 63 132 63 149 76 c 128,-1,26
 166 89 166 89 171.5 110 c 128,-1,27
 177 131 177 131 177 164 c 2,28,-1
 177 990 l 2,29,30
 177 1022 177 1022 170.5 1044 c 128,-1,31
 164 1066 164 1066 146.5 1080 c 128,-1,32
 129 1094 129 1094 100.5 1100.5 c 128,-1,33
 72 1107 72 1107 27 1110 c 1,34,-1
 27 1152 l 1,35,-1
 555 1152 l 2,0,1
451 158 m 2,36,37
 451 102 451 102 474.5 78.5 c 128,-1,38
 498 55 498 55 555 55 c 0,39,40
 762 55 762 55 762 306 c 0,41,42
 762 585 762 585 502 585 c 2,43,-1
 451 585 l 1,44,-1
 451 158 l 2,36,37
451 636 m 1,45,46
 529 638 529 638 580.5 649.5 c 128,-1,47
 632 661 632 661 662 687 c 128,-1,48
 692 713 692 713 704 757 c 128,-1,49
 716 801 716 801 716 868 c 0,50,51
 716 990 716 990 674.5 1046 c 128,-1,52
 633 1102 633 1102 542 1102 c 0,53,54
 492 1102 492 1102 471.5 1083.5 c 128,-1,55
 451 1065 451 1065 451 1019 c 2,56,-1
 451 636 l 1,45,46
EndSplineSet
EndChar

StartChar: C
Encoding: 67 67 492
Width: 1232
Flags: W
LayerCount: 2
Fore
SplineSet
1172 217 m 1,0,1
 1144 184 1144 184 1121.5 161 c 128,-1,2
 1099 138 1099 138 1079 120 c 128,-1,3
 1059 102 1059 102 1041 87.5 c 128,-1,4
 1023 73 1023 73 1003 60 c 0,5,6
 932 13 932 13 855.5 -9.5 c 128,-1,7
 779 -32 779 -32 687 -32 c 0,8,9
 555 -32 555 -32 444 12.5 c 128,-1,10
 333 57 333 57 252.5 136.5 c 128,-1,11
 172 216 172 216 127.5 326 c 128,-1,12
 83 436 83 436 83 568 c 0,13,14
 83 699 83 699 128 810.5 c 128,-1,15
 173 922 173 922 252.5 1004 c 128,-1,16
 332 1086 332 1086 441 1132.5 c 128,-1,17
 550 1179 550 1179 677 1179 c 0,18,19
 739 1179 739 1179 802 1165 c 128,-1,20
 865 1151 865 1151 941 1119 c 0,21,22
 970 1106 970 1106 989 1101 c 128,-1,23
 1008 1096 1008 1096 1020 1096 c 0,24,25
 1045 1096 1045 1096 1061 1112 c 128,-1,26
 1077 1128 1077 1128 1096 1174 c 1,27,-1
 1141 1174 l 1,28,-1
 1141 774 l 1,29,-1
 1099 774 l 1,30,31
 1076 822 1076 822 1056.5 858.5 c 128,-1,32
 1037 895 1037 895 1017.5 924.5 c 128,-1,33
 998 954 998 954 976 978 c 128,-1,34
 954 1002 954 1002 926 1027 c 0,35,36
 870 1076 870 1076 815 1099.5 c 128,-1,37
 760 1123 760 1123 700 1123 c 0,38,39
 545 1123 545 1123 465.5 985.5 c 128,-1,40
 386 848 386 848 386 581 c 0,41,42
 386 453 386 453 403.5 359.5 c 128,-1,43
 421 266 421 266 459 198 c 0,44,45
 477 165 477 165 505.5 137.5 c 128,-1,46
 534 110 534 110 569.5 90.5 c 128,-1,47
 605 71 605 71 645.5 60 c 128,-1,48
 686 49 686 49 728 49 c 0,49,50
 764 49 764 49 804.5 57 c 128,-1,51
 845 65 845 65 882 80 c 0,52,53
 913 92 913 92 940 107 c 128,-1,54
 967 122 967 122 994.5 142.5 c 128,-1,55
 1022 163 1022 163 1052.5 191 c 128,-1,56
 1083 219 1083 219 1121 259 c 1,57,-1
 1172 217 l 1,0,1
EndSplineSet
EndChar

StartChar: D
Encoding: 68 68 493
Width: 1232
Flags: W
LayerCount: 2
Fore
SplineSet
166 997 m 2,0,1
 166 1026 166 1026 159 1045.5 c 128,-1,2
 152 1065 152 1065 136 1078.5 c 128,-1,3
 120 1092 120 1092 93 1099 c 128,-1,4
 66 1106 66 1106 24 1110 c 1,5,-1
 24 1152 l 1,6,-1
 544 1152 l 2,7,8
 692 1152 692 1152 809 1113.5 c 128,-1,9
 926 1075 926 1075 1008 1002 c 128,-1,10
 1090 929 1090 929 1133.5 824.5 c 128,-1,11
 1177 720 1177 720 1177 589 c 0,12,13
 1177 457 1177 457 1133 348 c 128,-1,14
 1089 239 1089 239 1008 162 c 128,-1,15
 927 85 927 85 814.5 42.5 c 128,-1,16
 702 0 702 0 563 0 c 2,17,-1
 24 0 l 1,18,-1
 24 42 l 1,19,20
 98 45 98 45 132 72 c 128,-1,21
 166 99 166 99 166 155 c 2,22,-1
 166 997 l 2,0,1
441 158 m 2,23,24
 441 129 441 129 446 110 c 128,-1,25
 451 91 451 91 462 80 c 128,-1,26
 473 69 473 69 492.5 64.5 c 128,-1,27
 512 60 512 60 541 60 c 0,28,29
 706 60 706 60 791 177 c 0,30,31
 811 206 811 206 828 247 c 128,-1,32
 845 288 845 288 856.5 338 c 128,-1,33
 868 388 868 388 874 445.5 c 128,-1,34
 880 503 880 503 880 563 c 0,35,36
 880 671 880 671 862.5 762 c 128,-1,37
 845 853 845 853 810 921 c 0,38,39
 766 1010 766 1010 700.5 1053 c 128,-1,40
 635 1096 635 1096 542 1096 c 0,41,42
 441 1096 441 1096 441 1036 c 2,43,-1
 441 158 l 2,23,24
EndSplineSet
EndChar

StartChar: E
Encoding: 69 69 494
Width: 1138
Flags: W
LayerCount: 2
Fore
SplineSet
1011 810 m 1,0,-1
 969 810 l 1,1,2
 953 896 953 896 927 950.5 c 128,-1,3
 901 1005 901 1005 855 1037.5 c 128,-1,4
 809 1070 809 1070 738.5 1083 c 128,-1,5
 668 1096 668 1096 564 1096 c 0,6,7
 531 1096 531 1096 509.5 1092.5 c 128,-1,8
 488 1089 488 1089 476 1080 c 128,-1,9
 464 1071 464 1071 459 1055.5 c 128,-1,10
 454 1040 454 1040 454 1015 c 2,11,-1
 454 619 l 1,12,13
 522 618 522 618 570.5 630.5 c 128,-1,14
 619 643 619 643 651.5 673 c 128,-1,15
 684 703 684 703 702 752 c 128,-1,16
 720 801 720 801 730 874 c 1,17,-1
 774 874 l 1,18,-1
 774 297 l 1,19,-1
 730 297 l 1,20,21
 722 371 722 371 704 421.5 c 128,-1,22
 686 472 686 472 653.5 503 c 128,-1,23
 621 534 621 534 572 548 c 128,-1,24
 523 562 523 562 454 562 c 1,25,-1
 454 148 l 2,26,27
 454 121 454 121 460.5 102.5 c 128,-1,28
 467 84 467 84 483.5 73 c 128,-1,29
 500 62 500 62 527.5 57.5 c 128,-1,30
 555 53 555 53 596 53 c 0,31,32
 693 53 693 53 765.5 74.5 c 128,-1,33
 838 96 838 96 897 143 c 0,34,35
 920 162 920 162 938.5 181 c 128,-1,36
 957 200 957 200 974.5 224.5 c 128,-1,37
 992 249 992 249 1009 280.5 c 128,-1,38
 1026 312 1026 312 1046 355 c 1,39,-1
 1094 355 l 1,40,-1
 1025 0 l 1,41,-1
 27 0 l 1,42,-1
 27 42 l 1,43,44
 74 48 74 48 103.5 55 c 128,-1,45
 133 62 133 62 149.5 75 c 128,-1,46
 166 88 166 88 171.5 109 c 128,-1,47
 177 130 177 130 177 164 c 2,48,-1
 177 990 l 2,49,50
 177 1022 177 1022 170.5 1044 c 128,-1,51
 164 1066 164 1066 146.5 1080 c 128,-1,52
 129 1094 129 1094 100.5 1100.5 c 128,-1,53
 72 1107 72 1107 27 1110 c 1,54,-1
 27 1152 l 1,55,-1
 1011 1152 l 1,56,-1
 1011 810 l 1,0,-1
EndSplineSet
EndChar

StartChar: F
Encoding: 70 70 495
Width: 1042
Flags: W
LayerCount: 2
Fore
SplineSet
995 810 m 1,0,-1
 954 810 l 1,1,2
 945 851 945 851 936.5 880.5 c 128,-1,3
 928 910 928 910 918.5 932.5 c 128,-1,4
 909 955 909 955 898.5 972.5 c 128,-1,5
 888 990 888 990 874 1006 c 0,6,7
 833 1052 833 1052 757 1074 c 128,-1,8
 681 1096 681 1096 563 1096 c 0,9,10
 530 1096 530 1096 509 1092 c 128,-1,11
 488 1088 488 1088 476 1079 c 128,-1,12
 464 1070 464 1070 459 1054.5 c 128,-1,13
 454 1039 454 1039 454 1015 c 2,14,-1
 454 619 l 1,15,16
 517 619 517 619 562 631.5 c 128,-1,17
 607 644 607 644 636.5 673.5 c 128,-1,18
 666 703 666 703 684.5 752 c 128,-1,19
 703 801 703 801 714 874 c 1,20,-1
 758 874 l 1,21,-1
 758 297 l 1,22,-1
 714 297 l 1,23,24
 706 371 706 371 688.5 421 c 128,-1,25
 671 471 671 471 641 502 c 128,-1,26
 611 533 611 533 565 546.5 c 128,-1,27
 519 560 519 560 454 562 c 1,28,-1
 454 164 l 2,29,30
 454 128 454 128 461 105.5 c 128,-1,31
 468 83 468 83 489 70 c 128,-1,32
 510 57 510 57 546 51 c 128,-1,33
 582 45 582 45 641 42 c 1,34,-1
 641 0 l 1,35,-1
 27 0 l 1,36,-1
 27 42 l 1,37,38
 74 48 74 48 103.5 55 c 128,-1,39
 133 62 133 62 149.5 75 c 128,-1,40
 166 88 166 88 171.5 109 c 128,-1,41
 177 130 177 130 177 164 c 2,42,-1
 177 990 l 2,43,44
 177 1023 177 1023 170.5 1045 c 128,-1,45
 164 1067 164 1067 146.5 1081 c 128,-1,46
 129 1095 129 1095 100.5 1101 c 128,-1,47
 72 1107 72 1107 27 1110 c 1,48,-1
 27 1152 l 1,49,-1
 995 1152 l 1,50,-1
 995 810 l 1,0,-1
EndSplineSet
EndChar

StartChar: G
Encoding: 71 71 496
Width: 1327
Flags: W
LayerCount: 2
Fore
SplineSet
1288 447 m 1,0,1
 1240 442 1240 442 1211 434 c 128,-1,2
 1182 426 1182 426 1166.5 409.5 c 128,-1,3
 1151 393 1151 393 1146 364.5 c 128,-1,4
 1141 336 1141 336 1141 290 c 2,5,-1
 1141 73 l 1,6,7
 1100 49 1100 49 1046.5 29.5 c 128,-1,8
 993 10 993 10 931 -4 c 128,-1,9
 869 -18 869 -18 802.5 -25 c 128,-1,10
 736 -32 736 -32 670 -32 c 0,11,12
 536 -32 536 -32 424.5 12 c 128,-1,13
 313 56 313 56 233 135 c 128,-1,14
 153 214 153 214 108.5 323.5 c 128,-1,15
 64 433 64 433 64 564 c 0,16,17
 64 697 64 697 109 809 c 128,-1,18
 154 921 154 921 233.5 1003.5 c 128,-1,19
 313 1086 313 1086 421 1132.5 c 128,-1,20
 529 1179 529 1179 657 1179 c 0,21,22
 718 1179 718 1179 781.5 1165 c 128,-1,23
 845 1151 845 1151 921 1119 c 0,24,25
 950 1106 950 1106 969.5 1101 c 128,-1,26
 989 1096 989 1096 1000 1096 c 0,27,28
 1024 1096 1024 1096 1040.5 1112 c 128,-1,29
 1057 1128 1057 1128 1074 1174 c 1,30,-1
 1121 1174 l 1,31,-1
 1121 774 l 1,32,-1
 1078 774 l 1,33,34
 1055 822 1055 822 1036 859 c 128,-1,35
 1017 896 1017 896 997.5 925.5 c 128,-1,36
 978 955 978 955 955.5 979 c 128,-1,37
 933 1003 933 1003 906 1027 c 0,38,39
 849 1076 849 1076 793.5 1099.5 c 128,-1,40
 738 1123 738 1123 679 1123 c 0,41,42
 523 1123 523 1123 444 984.5 c 128,-1,43
 365 846 365 846 365 576 c 0,44,45
 365 270 365 270 475 130 c 0,46,47
 518 74 518 74 574 49 c 128,-1,48
 630 24 630 24 711 24 c 0,49,50
 798 24 798 24 836.5 53.5 c 128,-1,51
 875 83 875 83 875 148 c 2,52,-1
 875 327 l 2,53,54
 875 362 875 362 868.5 384 c 128,-1,55
 862 406 862 406 843.5 418.5 c 128,-1,56
 825 431 825 431 791.5 437.5 c 128,-1,57
 758 444 758 444 703 447 c 1,58,-1
 703 490 l 1,59,-1
 1288 490 l 1,60,-1
 1288 447 l 1,0,1
EndSplineSet
EndChar

StartChar: H
Encoding: 72 72 497
Width: 1327
Flags: W
LayerCount: 2
Fore
SplineSet
458 557 m 1,0,-1
 458 164 l 2,1,2
 458 132 458 132 464 111.5 c 128,-1,3
 470 91 470 91 487.5 77.5 c 128,-1,4
 505 64 505 64 534 56 c 128,-1,5
 563 48 563 48 611 42 c 1,6,-1
 611 0 l 1,7,-1
 36 0 l 1,8,-1
 36 42 l 1,9,10
 80 48 80 48 108.5 56 c 128,-1,11
 137 64 137 64 153 77.5 c 128,-1,12
 169 91 169 91 174.5 111.5 c 128,-1,13
 180 132 180 132 180 164 c 2,14,-1
 180 990 l 2,15,16
 180 1021 180 1021 174 1042.5 c 128,-1,17
 168 1064 168 1064 151 1078 c 128,-1,18
 134 1092 134 1092 106 1099 c 128,-1,19
 78 1106 78 1106 36 1110 c 1,20,-1
 36 1152 l 1,21,-1
 611 1152 l 1,22,-1
 611 1110 l 1,23,24
 565 1107 565 1107 536 1100 c 128,-1,25
 507 1093 507 1093 489 1078.5 c 128,-1,26
 471 1064 471 1064 464.5 1042.5 c 128,-1,27
 458 1021 458 1021 458 990 c 2,28,-1
 458 636 l 1,29,-1
 868 636 l 1,30,-1
 868 990 l 2,31,32
 868 1021 868 1021 861 1042.5 c 128,-1,33
 854 1064 854 1064 836 1078.5 c 128,-1,34
 818 1093 818 1093 788.5 1100 c 128,-1,35
 759 1107 759 1107 714 1110 c 1,36,-1
 714 1152 l 1,37,-1
 1295 1152 l 1,38,-1
 1295 1110 l 1,39,40
 1251 1107 1251 1107 1222.5 1100 c 128,-1,41
 1194 1093 1194 1093 1176.5 1078.5 c 128,-1,42
 1159 1064 1159 1064 1152 1042.5 c 128,-1,43
 1145 1021 1145 1021 1145 990 c 2,44,-1
 1145 164 l 2,45,46
 1145 132 1145 132 1151 111.5 c 128,-1,47
 1157 91 1157 91 1174 77.5 c 128,-1,48
 1191 64 1191 64 1220 56 c 128,-1,49
 1249 48 1249 48 1295 42 c 1,50,-1
 1295 0 l 1,51,-1
 714 0 l 1,52,-1
 714 42 l 1,53,54
 761 48 761 48 791 56 c 128,-1,55
 821 64 821 64 838.5 77.5 c 128,-1,56
 856 91 856 91 862 111.5 c 128,-1,57
 868 132 868 132 868 164 c 2,58,-1
 868 557 l 1,59,-1
 458 557 l 1,0,-1
EndSplineSet
EndChar

StartChar: I
Encoding: 73 73 498
Width: 663
Flags: W
LayerCount: 2
Fore
SplineSet
192 990 m 2,0,1
 192 1022 192 1022 184.5 1043.5 c 128,-1,2
 177 1065 177 1065 159 1079.5 c 128,-1,3
 141 1094 141 1094 110.5 1100.5 c 128,-1,4
 80 1107 80 1107 34 1110 c 1,5,-1
 34 1152 l 1,6,-1
 631 1152 l 1,7,-1
 631 1110 l 1,8,9
 584 1108 584 1108 552.5 1102 c 128,-1,10
 521 1096 521 1096 502.5 1081.5 c 128,-1,11
 484 1067 484 1067 476.5 1045 c 128,-1,12
 469 1023 469 1023 469 990 c 2,13,-1
 469 164 l 2,14,15
 469 130 469 130 476 108 c 128,-1,16
 483 86 483 86 501.5 72.5 c 128,-1,17
 520 59 520 59 551 52 c 128,-1,18
 582 45 582 45 631 42 c 1,19,-1
 631 0 l 1,20,-1
 34 0 l 1,21,-1
 34 42 l 1,22,23
 82 47 82 47 113 54.5 c 128,-1,24
 144 62 144 62 161.5 75.5 c 128,-1,25
 179 89 179 89 185.5 110 c 128,-1,26
 192 131 192 131 192 164 c 2,27,-1
 192 990 l 2,0,1
EndSplineSet
EndChar

StartChar: J
Encoding: 74 74 499
Width: 853
Flags: W
LayerCount: 2
Fore
SplineSet
665 210 m 2,0,1
 665 25 665 25 572.5 -69.5 c 128,-1,2
 480 -164 480 -164 300 -164 c 0,3,4
 249 -164 249 -164 201 -153 c 128,-1,5
 153 -142 153 -142 120 -125 c 0,6,7
 94 -111 94 -111 73.5 -89.5 c 128,-1,8
 53 -68 53 -68 37.5 -43.5 c 128,-1,9
 22 -19 22 -19 13.5 8 c 128,-1,10
 5 35 5 35 5 62 c 0,11,12
 5 86 5 86 14.5 108 c 128,-1,13
 24 130 24 130 41 147 c 128,-1,14
 58 164 58 164 79.5 174 c 128,-1,15
 101 184 101 184 124 184 c 0,16,17
 149 184 149 184 172 174 c 128,-1,18
 195 164 195 164 211.5 146 c 128,-1,19
 228 128 228 128 238.5 105 c 128,-1,20
 249 82 249 82 249 57 c 0,21,22
 249 37 249 37 244 24 c 128,-1,23
 239 11 239 11 223 -9 c 0,24,25
 212 -25 212 -25 207.5 -33.5 c 128,-1,26
 203 -42 203 -42 203 -53 c 0,27,28
 203 -77 203 -77 224.5 -92.5 c 128,-1,29
 246 -108 246 -108 280 -108 c 0,30,31
 338 -108 338 -108 363.5 -73 c 128,-1,32
 389 -38 389 -38 389 41 c 2,33,-1
 389 990 l 2,34,35
 389 1024 389 1024 381.5 1046.5 c 128,-1,36
 374 1069 374 1069 354.5 1082.5 c 128,-1,37
 335 1096 335 1096 302 1102 c 128,-1,38
 269 1108 269 1108 217 1110 c 1,39,-1
 217 1152 l 1,40,-1
 817 1152 l 1,41,-1
 817 1110 l 1,42,43
 769 1107 769 1107 739.5 1099.5 c 128,-1,44
 710 1092 710 1092 693.5 1074.5 c 128,-1,45
 677 1057 677 1057 671 1028.5 c 128,-1,46
 665 1000 665 1000 665 954 c 2,47,-1
 665 210 l 2,0,1
EndSplineSet
EndChar

StartChar: K
Encoding: 75 75 500
Width: 1327
Flags: W
LayerCount: 2
Fore
SplineSet
1312 0 m 1,0,-1
 739 0 l 1,1,-1
 739 42 l 1,2,3
 757 44 757 44 772 44 c 128,-1,4
 787 44 787 44 793 44 c 0,5,6
 836 46 836 46 855 54 c 128,-1,7
 874 62 874 62 874 78 c 0,8,9
 874 92 874 92 865.5 107 c 128,-1,10
 857 122 857 122 832 153 c 2,11,-1
 522 541 l 1,12,-1
 475 498 l 1,13,-1
 475 164 l 2,14,15
 475 132 475 132 481.5 111.5 c 128,-1,16
 488 91 488 91 504.5 77.5 c 128,-1,17
 521 64 521 64 550.5 56 c 128,-1,18
 580 48 580 48 626 42 c 1,19,-1
 626 0 l 1,20,-1
 51 0 l 1,21,-1
 51 42 l 1,22,23
 97 48 97 48 126.5 55.5 c 128,-1,24
 156 63 156 63 172 76 c 128,-1,25
 188 89 188 89 194 110 c 128,-1,26
 200 131 200 131 200 164 c 2,27,-1
 200 990 l 2,28,29
 200 1023 200 1023 193.5 1045 c 128,-1,30
 187 1067 187 1067 170 1081 c 128,-1,31
 153 1095 153 1095 124 1101 c 128,-1,32
 95 1107 95 1107 51 1110 c 1,33,-1
 51 1152 l 1,34,-1
 628 1152 l 1,35,-1
 628 1110 l 1,36,37
 581 1107 581 1107 551 1099.5 c 128,-1,38
 521 1092 521 1092 504 1074 c 128,-1,39
 487 1056 487 1056 481 1027.5 c 128,-1,40
 475 999 475 999 475 954 c 2,41,-1
 475 589 l 1,42,-1
 847 960 l 2,43,44
 866 980 866 980 878 993 c 128,-1,45
 890 1006 890 1006 897 1016.5 c 128,-1,46
 904 1027 904 1027 905.5 1035.5 c 128,-1,47
 907 1044 907 1044 907 1054 c 0,48,49
 907 1080 907 1080 889 1091.5 c 128,-1,50
 871 1103 871 1103 824 1105 c 0,51,52
 817 1107 817 1107 800.5 1107.5 c 128,-1,53
 784 1108 784 1108 762 1110 c 1,54,-1
 762 1152 l 1,55,-1
 1255 1152 l 1,56,-1
 1255 1110 l 1,57,58
 1214 1106 1214 1106 1180 1099.5 c 128,-1,59
 1146 1093 1146 1093 1112 1077.5 c 128,-1,60
 1078 1062 1078 1062 1040.5 1035.5 c 128,-1,61
 1003 1009 1003 1009 955.5 967.5 c 128,-1,62
 908 926 908 926 848 866 c 128,-1,63
 788 806 788 806 708 723 c 1,64,-1
 1229 78 l 2,65,66
 1246 59 1246 59 1263 51.5 c 128,-1,67
 1280 44 1280 44 1312 42 c 1,68,-1
 1312 0 l 1,0,-1
EndSplineSet
EndChar

